%TF.GenerationSoftware,KiCad,Pcbnew,(5.1.8-0-10_14)*%
%TF.CreationDate,2021-02-17T10:46:29+00:00*%
%TF.ProjectId,sd2snes_ecp5,73643273-6e65-4735-9f65-6370352e6b69,B*%
%TF.SameCoordinates,Original*%
%TF.FileFunction,Profile,NP*%
%FSLAX46Y46*%
G04 Gerber Fmt 4.6, Leading zero omitted, Abs format (unit mm)*
G04 Created by KiCad (PCBNEW (5.1.8-0-10_14)) date 2021-02-17 10:46:29*
%MOMM*%
%LPD*%
G01*
G04 APERTURE LIST*
%TA.AperFunction,Profile*%
%ADD10C,0.101600*%
%TD*%
%TA.AperFunction,Profile*%
%ADD11C,0.099060*%
%TD*%
G04 APERTURE END LIST*
D10*
%TO.C,J201*%
X120701100Y-155001260D02*
X179298900Y-155001260D01*
X117500700Y-143700800D02*
X117500700Y-154300220D01*
X120000060Y-143700800D02*
X117500700Y-143700800D01*
X120000060Y-154300220D02*
X120000060Y-143700800D01*
X116799660Y-155001260D02*
X105699860Y-155001260D01*
X104998820Y-154300220D02*
X104998820Y-144500900D01*
X182499300Y-143700800D02*
X182499300Y-154300220D01*
X179999940Y-143700800D02*
X182499300Y-143700800D01*
X179999940Y-154300220D02*
X179999940Y-143700800D01*
X183200340Y-155001260D02*
X194300140Y-155001260D01*
X196482000Y-132474000D02*
X199022000Y-132474000D01*
X196499780Y-134500920D02*
X196482000Y-132474000D01*
X198999140Y-134500920D02*
X196499780Y-134500920D01*
X198999140Y-139601240D02*
X198999140Y-134500920D01*
X200599340Y-139601240D02*
X198999140Y-139601240D01*
X200599340Y-144399300D02*
X200599340Y-139601240D01*
X195001180Y-144399300D02*
X200599340Y-144399300D01*
X195001180Y-144500900D02*
X195001180Y-144399300D01*
X195001180Y-154300220D02*
X195001180Y-144500900D01*
X200647600Y-127140000D02*
X200698400Y-87957960D01*
X198999140Y-79499760D02*
X198999140Y-75499260D01*
X196499780Y-79499760D02*
X198999140Y-79499760D01*
X196499780Y-81199020D02*
X196499780Y-79499760D01*
X198999140Y-81199020D02*
X196499780Y-81199020D01*
X199022000Y-87960500D02*
X198999140Y-81199020D01*
X200698400Y-87957960D02*
X199022000Y-87960500D01*
X104998820Y-144399300D02*
X104998820Y-144500900D01*
X100599540Y-144399300D02*
X104998820Y-144399300D01*
X100597000Y-139840000D02*
X100599540Y-144399300D01*
X103137000Y-139840000D02*
X100599540Y-139840000D01*
X103137000Y-137300000D02*
X103137000Y-139840000D01*
X98946000Y-137300000D02*
X103137000Y-137300000D01*
X99200000Y-87960500D02*
X99200000Y-118885000D01*
X100470000Y-87960500D02*
X99200000Y-87960500D01*
X100470000Y-81199020D02*
X100470000Y-87960500D01*
X102999840Y-81199020D02*
X100470000Y-81199020D01*
X102999840Y-79499760D02*
X102999840Y-81199020D01*
X100500480Y-79499760D02*
X102999840Y-79499760D01*
X100500480Y-75499260D02*
X100500480Y-79499760D01*
X128349040Y-71999140D02*
X128349040Y-75499260D01*
X171899880Y-75499260D02*
X171899880Y-71999140D01*
X100500480Y-75499260D02*
X128349040Y-75499260D01*
X128349040Y-71999140D02*
X171899880Y-71999140D01*
X171899880Y-75499260D02*
X198999140Y-75499260D01*
X99200000Y-118885000D02*
X103264000Y-118885000D01*
X103264000Y-120917000D02*
X103264000Y-118885000D01*
X100597000Y-127648000D02*
X100597000Y-120917000D01*
X103264000Y-120917000D02*
X100597000Y-120917000D01*
X98946000Y-137300000D02*
X98946000Y-127648000D01*
X98946000Y-127648000D02*
X100597000Y-127648000D01*
X196482000Y-127140000D02*
X200647600Y-127140000D01*
X196482000Y-129172000D02*
X196482000Y-127140000D01*
X196482000Y-129172000D02*
X199022000Y-129172000D01*
X199022000Y-132474000D02*
X199022000Y-129172000D01*
D11*
X194300140Y-155001260D02*
G75*
G03*
X195001180Y-154300220I0J701040D01*
G01*
X182499300Y-154300220D02*
G75*
G03*
X183200340Y-155001260I701040J0D01*
G01*
X179298900Y-155001260D02*
G75*
G03*
X179999940Y-154300220I0J701040D01*
G01*
X120000060Y-154300220D02*
G75*
G03*
X120701100Y-155001260I701040J0D01*
G01*
X116799660Y-155001260D02*
G75*
G03*
X117500700Y-154300220I0J701040D01*
G01*
X104998820Y-154300220D02*
G75*
G03*
X105699860Y-155001260I701040J0D01*
G01*
%TD*%
M02*
