%TF.GenerationSoftware,KiCad,Pcbnew,(5.1.8-0-10_14)*%
%TF.CreationDate,2021-02-17T10:46:27+00:00*%
%TF.ProjectId,sd2snes_ecp5,73643273-6e65-4735-9f65-6370352e6b69,B*%
%TF.SameCoordinates,Original*%
%TF.FileFunction,Paste,Bot*%
%TF.FilePolarity,Positive*%
%FSLAX46Y46*%
G04 Gerber Fmt 4.6, Leading zero omitted, Abs format (unit mm)*
G04 Created by KiCad (PCBNEW (5.1.8-0-10_14)) date 2021-02-17 10:46:27*
%MOMM*%
%LPD*%
G01*
G04 APERTURE LIST*
G04 APERTURE END LIST*
%TO.C,R316*%
G36*
G01*
X171810000Y-77640000D02*
X171810000Y-77960000D01*
G75*
G02*
X171700000Y-78070000I-110000J0D01*
G01*
X171480000Y-78070000D01*
G75*
G02*
X171370000Y-77960000I0J110000D01*
G01*
X171370000Y-77640000D01*
G75*
G02*
X171480000Y-77530000I110000J0D01*
G01*
X171700000Y-77530000D01*
G75*
G02*
X171810000Y-77640000I0J-110000D01*
G01*
G37*
G36*
G01*
X172830000Y-77640000D02*
X172830000Y-77960000D01*
G75*
G02*
X172720000Y-78070000I-110000J0D01*
G01*
X172500000Y-78070000D01*
G75*
G02*
X172390000Y-77960000I0J110000D01*
G01*
X172390000Y-77640000D01*
G75*
G02*
X172500000Y-77530000I110000J0D01*
G01*
X172720000Y-77530000D01*
G75*
G02*
X172830000Y-77640000I0J-110000D01*
G01*
G37*
%TD*%
%TO.C,R315*%
G36*
G01*
X165365000Y-76910000D02*
X165365000Y-76590000D01*
G75*
G02*
X165475000Y-76480000I110000J0D01*
G01*
X165695000Y-76480000D01*
G75*
G02*
X165805000Y-76590000I0J-110000D01*
G01*
X165805000Y-76910000D01*
G75*
G02*
X165695000Y-77020000I-110000J0D01*
G01*
X165475000Y-77020000D01*
G75*
G02*
X165365000Y-76910000I0J110000D01*
G01*
G37*
G36*
G01*
X164345000Y-76910000D02*
X164345000Y-76590000D01*
G75*
G02*
X164455000Y-76480000I110000J0D01*
G01*
X164675000Y-76480000D01*
G75*
G02*
X164785000Y-76590000I0J-110000D01*
G01*
X164785000Y-76910000D01*
G75*
G02*
X164675000Y-77020000I-110000J0D01*
G01*
X164455000Y-77020000D01*
G75*
G02*
X164345000Y-76910000I0J110000D01*
G01*
G37*
%TD*%
%TO.C,R314*%
G36*
G01*
X166745000Y-76590000D02*
X166745000Y-76910000D01*
G75*
G02*
X166635000Y-77020000I-110000J0D01*
G01*
X166415000Y-77020000D01*
G75*
G02*
X166305000Y-76910000I0J110000D01*
G01*
X166305000Y-76590000D01*
G75*
G02*
X166415000Y-76480000I110000J0D01*
G01*
X166635000Y-76480000D01*
G75*
G02*
X166745000Y-76590000I0J-110000D01*
G01*
G37*
G36*
G01*
X167765000Y-76590000D02*
X167765000Y-76910000D01*
G75*
G02*
X167655000Y-77020000I-110000J0D01*
G01*
X167435000Y-77020000D01*
G75*
G02*
X167325000Y-76910000I0J110000D01*
G01*
X167325000Y-76590000D01*
G75*
G02*
X167435000Y-76480000I110000J0D01*
G01*
X167655000Y-76480000D01*
G75*
G02*
X167765000Y-76590000I0J-110000D01*
G01*
G37*
%TD*%
%TO.C,C314*%
G36*
G01*
X172350000Y-76945000D02*
X172350000Y-76655000D01*
G75*
G02*
X172465000Y-76540000I115000J0D01*
G01*
X172695000Y-76540000D01*
G75*
G02*
X172810000Y-76655000I0J-115000D01*
G01*
X172810000Y-76945000D01*
G75*
G02*
X172695000Y-77060000I-115000J0D01*
G01*
X172465000Y-77060000D01*
G75*
G02*
X172350000Y-76945000I0J115000D01*
G01*
G37*
G36*
G01*
X171390000Y-76945000D02*
X171390000Y-76655000D01*
G75*
G02*
X171505000Y-76540000I115000J0D01*
G01*
X171735000Y-76540000D01*
G75*
G02*
X171850000Y-76655000I0J-115000D01*
G01*
X171850000Y-76945000D01*
G75*
G02*
X171735000Y-77060000I-115000J0D01*
G01*
X171505000Y-77060000D01*
G75*
G02*
X171390000Y-76945000I0J115000D01*
G01*
G37*
%TD*%
%TO.C,D601*%
G36*
G01*
X140225000Y-91700000D02*
X140575000Y-91700000D01*
G75*
G02*
X140750000Y-91875000I0J-175000D01*
G01*
X140750000Y-92325000D01*
G75*
G02*
X140575000Y-92500000I-175000J0D01*
G01*
X140225000Y-92500000D01*
G75*
G02*
X140050000Y-92325000I0J175000D01*
G01*
X140050000Y-91875000D01*
G75*
G02*
X140225000Y-91700000I175000J0D01*
G01*
G37*
G36*
G01*
X141175000Y-89700000D02*
X141525000Y-89700000D01*
G75*
G02*
X141700000Y-89875000I0J-175000D01*
G01*
X141700000Y-90325000D01*
G75*
G02*
X141525000Y-90500000I-175000J0D01*
G01*
X141175000Y-90500000D01*
G75*
G02*
X141000000Y-90325000I0J175000D01*
G01*
X141000000Y-89875000D01*
G75*
G02*
X141175000Y-89700000I175000J0D01*
G01*
G37*
G36*
G01*
X139275000Y-89700000D02*
X139625000Y-89700000D01*
G75*
G02*
X139800000Y-89875000I0J-175000D01*
G01*
X139800000Y-90325000D01*
G75*
G02*
X139625000Y-90500000I-175000J0D01*
G01*
X139275000Y-90500000D01*
G75*
G02*
X139100000Y-90325000I0J175000D01*
G01*
X139100000Y-89875000D01*
G75*
G02*
X139275000Y-89700000I175000J0D01*
G01*
G37*
%TD*%
%TO.C,Q601*%
G36*
G01*
X143800000Y-90925000D02*
X143800000Y-91275000D01*
G75*
G02*
X143625000Y-91450000I-175000J0D01*
G01*
X143175000Y-91450000D01*
G75*
G02*
X143000000Y-91275000I0J175000D01*
G01*
X143000000Y-90925000D01*
G75*
G02*
X143175000Y-90750000I175000J0D01*
G01*
X143625000Y-90750000D01*
G75*
G02*
X143800000Y-90925000I0J-175000D01*
G01*
G37*
G36*
G01*
X145800000Y-91875000D02*
X145800000Y-92225000D01*
G75*
G02*
X145625000Y-92400000I-175000J0D01*
G01*
X145175000Y-92400000D01*
G75*
G02*
X145000000Y-92225000I0J175000D01*
G01*
X145000000Y-91875000D01*
G75*
G02*
X145175000Y-91700000I175000J0D01*
G01*
X145625000Y-91700000D01*
G75*
G02*
X145800000Y-91875000I0J-175000D01*
G01*
G37*
G36*
G01*
X145800000Y-89975000D02*
X145800000Y-90325000D01*
G75*
G02*
X145625000Y-90500000I-175000J0D01*
G01*
X145175000Y-90500000D01*
G75*
G02*
X145000000Y-90325000I0J175000D01*
G01*
X145000000Y-89975000D01*
G75*
G02*
X145175000Y-89800000I175000J0D01*
G01*
X145625000Y-89800000D01*
G75*
G02*
X145800000Y-89975000I0J-175000D01*
G01*
G37*
%TD*%
%TO.C,Q201*%
G36*
G01*
X166345000Y-126970000D02*
X166345000Y-127320000D01*
G75*
G02*
X166170000Y-127495000I-175000J0D01*
G01*
X165720000Y-127495000D01*
G75*
G02*
X165545000Y-127320000I0J175000D01*
G01*
X165545000Y-126970000D01*
G75*
G02*
X165720000Y-126795000I175000J0D01*
G01*
X166170000Y-126795000D01*
G75*
G02*
X166345000Y-126970000I0J-175000D01*
G01*
G37*
G36*
G01*
X168345000Y-127920000D02*
X168345000Y-128270000D01*
G75*
G02*
X168170000Y-128445000I-175000J0D01*
G01*
X167720000Y-128445000D01*
G75*
G02*
X167545000Y-128270000I0J175000D01*
G01*
X167545000Y-127920000D01*
G75*
G02*
X167720000Y-127745000I175000J0D01*
G01*
X168170000Y-127745000D01*
G75*
G02*
X168345000Y-127920000I0J-175000D01*
G01*
G37*
G36*
G01*
X168345000Y-126020000D02*
X168345000Y-126370000D01*
G75*
G02*
X168170000Y-126545000I-175000J0D01*
G01*
X167720000Y-126545000D01*
G75*
G02*
X167545000Y-126370000I0J175000D01*
G01*
X167545000Y-126020000D01*
G75*
G02*
X167720000Y-125845000I175000J0D01*
G01*
X168170000Y-125845000D01*
G75*
G02*
X168345000Y-126020000I0J-175000D01*
G01*
G37*
%TD*%
%TO.C,R313*%
G36*
G01*
X174410000Y-103940000D02*
X174410000Y-104260000D01*
G75*
G02*
X174300000Y-104370000I-110000J0D01*
G01*
X174080000Y-104370000D01*
G75*
G02*
X173970000Y-104260000I0J110000D01*
G01*
X173970000Y-103940000D01*
G75*
G02*
X174080000Y-103830000I110000J0D01*
G01*
X174300000Y-103830000D01*
G75*
G02*
X174410000Y-103940000I0J-110000D01*
G01*
G37*
G36*
G01*
X175430000Y-103940000D02*
X175430000Y-104260000D01*
G75*
G02*
X175320000Y-104370000I-110000J0D01*
G01*
X175100000Y-104370000D01*
G75*
G02*
X174990000Y-104260000I0J110000D01*
G01*
X174990000Y-103940000D01*
G75*
G02*
X175100000Y-103830000I110000J0D01*
G01*
X175320000Y-103830000D01*
G75*
G02*
X175430000Y-103940000I0J-110000D01*
G01*
G37*
%TD*%
%TO.C,R312*%
G36*
G01*
X174410000Y-104940000D02*
X174410000Y-105260000D01*
G75*
G02*
X174300000Y-105370000I-110000J0D01*
G01*
X174080000Y-105370000D01*
G75*
G02*
X173970000Y-105260000I0J110000D01*
G01*
X173970000Y-104940000D01*
G75*
G02*
X174080000Y-104830000I110000J0D01*
G01*
X174300000Y-104830000D01*
G75*
G02*
X174410000Y-104940000I0J-110000D01*
G01*
G37*
G36*
G01*
X175430000Y-104940000D02*
X175430000Y-105260000D01*
G75*
G02*
X175320000Y-105370000I-110000J0D01*
G01*
X175100000Y-105370000D01*
G75*
G02*
X174990000Y-105260000I0J110000D01*
G01*
X174990000Y-104940000D01*
G75*
G02*
X175100000Y-104830000I110000J0D01*
G01*
X175320000Y-104830000D01*
G75*
G02*
X175430000Y-104940000I0J-110000D01*
G01*
G37*
%TD*%
%TO.C,R311*%
G36*
G01*
X143828000Y-82110000D02*
X143508000Y-82110000D01*
G75*
G02*
X143398000Y-82000000I0J110000D01*
G01*
X143398000Y-81780000D01*
G75*
G02*
X143508000Y-81670000I110000J0D01*
G01*
X143828000Y-81670000D01*
G75*
G02*
X143938000Y-81780000I0J-110000D01*
G01*
X143938000Y-82000000D01*
G75*
G02*
X143828000Y-82110000I-110000J0D01*
G01*
G37*
G36*
G01*
X143828000Y-83130000D02*
X143508000Y-83130000D01*
G75*
G02*
X143398000Y-83020000I0J110000D01*
G01*
X143398000Y-82800000D01*
G75*
G02*
X143508000Y-82690000I110000J0D01*
G01*
X143828000Y-82690000D01*
G75*
G02*
X143938000Y-82800000I0J-110000D01*
G01*
X143938000Y-83020000D01*
G75*
G02*
X143828000Y-83130000I-110000J0D01*
G01*
G37*
%TD*%
%TO.C,C313*%
G36*
G01*
X144813000Y-82150000D02*
X144523000Y-82150000D01*
G75*
G02*
X144408000Y-82035000I0J115000D01*
G01*
X144408000Y-81805000D01*
G75*
G02*
X144523000Y-81690000I115000J0D01*
G01*
X144813000Y-81690000D01*
G75*
G02*
X144928000Y-81805000I0J-115000D01*
G01*
X144928000Y-82035000D01*
G75*
G02*
X144813000Y-82150000I-115000J0D01*
G01*
G37*
G36*
G01*
X144813000Y-83110000D02*
X144523000Y-83110000D01*
G75*
G02*
X144408000Y-82995000I0J115000D01*
G01*
X144408000Y-82765000D01*
G75*
G02*
X144523000Y-82650000I115000J0D01*
G01*
X144813000Y-82650000D01*
G75*
G02*
X144928000Y-82765000I0J-115000D01*
G01*
X144928000Y-82995000D01*
G75*
G02*
X144813000Y-83110000I-115000J0D01*
G01*
G37*
%TD*%
%TO.C,R205*%
G36*
G01*
X170010000Y-134685000D02*
X170010000Y-134365000D01*
G75*
G02*
X170120000Y-134255000I110000J0D01*
G01*
X170340000Y-134255000D01*
G75*
G02*
X170450000Y-134365000I0J-110000D01*
G01*
X170450000Y-134685000D01*
G75*
G02*
X170340000Y-134795000I-110000J0D01*
G01*
X170120000Y-134795000D01*
G75*
G02*
X170010000Y-134685000I0J110000D01*
G01*
G37*
G36*
G01*
X168990000Y-134685000D02*
X168990000Y-134365000D01*
G75*
G02*
X169100000Y-134255000I110000J0D01*
G01*
X169320000Y-134255000D01*
G75*
G02*
X169430000Y-134365000I0J-110000D01*
G01*
X169430000Y-134685000D01*
G75*
G02*
X169320000Y-134795000I-110000J0D01*
G01*
X169100000Y-134795000D01*
G75*
G02*
X168990000Y-134685000I0J110000D01*
G01*
G37*
%TD*%
%TO.C,R204*%
G36*
G01*
X170010000Y-133085000D02*
X170010000Y-132765000D01*
G75*
G02*
X170120000Y-132655000I110000J0D01*
G01*
X170340000Y-132655000D01*
G75*
G02*
X170450000Y-132765000I0J-110000D01*
G01*
X170450000Y-133085000D01*
G75*
G02*
X170340000Y-133195000I-110000J0D01*
G01*
X170120000Y-133195000D01*
G75*
G02*
X170010000Y-133085000I0J110000D01*
G01*
G37*
G36*
G01*
X168990000Y-133085000D02*
X168990000Y-132765000D01*
G75*
G02*
X169100000Y-132655000I110000J0D01*
G01*
X169320000Y-132655000D01*
G75*
G02*
X169430000Y-132765000I0J-110000D01*
G01*
X169430000Y-133085000D01*
G75*
G02*
X169320000Y-133195000I-110000J0D01*
G01*
X169100000Y-133195000D01*
G75*
G02*
X168990000Y-133085000I0J110000D01*
G01*
G37*
%TD*%
%TO.C,C506*%
G36*
G01*
X145825000Y-111775000D02*
X146115000Y-111775000D01*
G75*
G02*
X146230000Y-111890000I0J-115000D01*
G01*
X146230000Y-112120000D01*
G75*
G02*
X146115000Y-112235000I-115000J0D01*
G01*
X145825000Y-112235000D01*
G75*
G02*
X145710000Y-112120000I0J115000D01*
G01*
X145710000Y-111890000D01*
G75*
G02*
X145825000Y-111775000I115000J0D01*
G01*
G37*
G36*
G01*
X145825000Y-110815000D02*
X146115000Y-110815000D01*
G75*
G02*
X146230000Y-110930000I0J-115000D01*
G01*
X146230000Y-111160000D01*
G75*
G02*
X146115000Y-111275000I-115000J0D01*
G01*
X145825000Y-111275000D01*
G75*
G02*
X145710000Y-111160000I0J115000D01*
G01*
X145710000Y-110930000D01*
G75*
G02*
X145825000Y-110815000I115000J0D01*
G01*
G37*
%TD*%
%TO.C,C505*%
G36*
G01*
X144875000Y-111775000D02*
X145165000Y-111775000D01*
G75*
G02*
X145280000Y-111890000I0J-115000D01*
G01*
X145280000Y-112120000D01*
G75*
G02*
X145165000Y-112235000I-115000J0D01*
G01*
X144875000Y-112235000D01*
G75*
G02*
X144760000Y-112120000I0J115000D01*
G01*
X144760000Y-111890000D01*
G75*
G02*
X144875000Y-111775000I115000J0D01*
G01*
G37*
G36*
G01*
X144875000Y-110815000D02*
X145165000Y-110815000D01*
G75*
G02*
X145280000Y-110930000I0J-115000D01*
G01*
X145280000Y-111160000D01*
G75*
G02*
X145165000Y-111275000I-115000J0D01*
G01*
X144875000Y-111275000D01*
G75*
G02*
X144760000Y-111160000I0J115000D01*
G01*
X144760000Y-110930000D01*
G75*
G02*
X144875000Y-110815000I115000J0D01*
G01*
G37*
%TD*%
%TO.C,C310*%
G36*
G01*
X174044000Y-100655000D02*
X174044000Y-101555000D01*
G75*
G02*
X173819000Y-101780000I-225000J0D01*
G01*
X173369000Y-101780000D01*
G75*
G02*
X173144000Y-101555000I0J225000D01*
G01*
X173144000Y-100655000D01*
G75*
G02*
X173369000Y-100430000I225000J0D01*
G01*
X173819000Y-100430000D01*
G75*
G02*
X174044000Y-100655000I0J-225000D01*
G01*
G37*
G36*
G01*
X175944000Y-100655000D02*
X175944000Y-101555000D01*
G75*
G02*
X175719000Y-101780000I-225000J0D01*
G01*
X175269000Y-101780000D01*
G75*
G02*
X175044000Y-101555000I0J225000D01*
G01*
X175044000Y-100655000D01*
G75*
G02*
X175269000Y-100430000I225000J0D01*
G01*
X175719000Y-100430000D01*
G75*
G02*
X175944000Y-100655000I0J-225000D01*
G01*
G37*
%TD*%
%TO.C,C515*%
G36*
G01*
X154095000Y-109550000D02*
X154095000Y-109100000D01*
G75*
G02*
X154295000Y-108900000I200000J0D01*
G01*
X154695000Y-108900000D01*
G75*
G02*
X154895000Y-109100000I0J-200000D01*
G01*
X154895000Y-109550000D01*
G75*
G02*
X154695000Y-109750000I-200000J0D01*
G01*
X154295000Y-109750000D01*
G75*
G02*
X154095000Y-109550000I0J200000D01*
G01*
G37*
G36*
G01*
X152545000Y-109550000D02*
X152545000Y-109100000D01*
G75*
G02*
X152745000Y-108900000I200000J0D01*
G01*
X153145000Y-108900000D01*
G75*
G02*
X153345000Y-109100000I0J-200000D01*
G01*
X153345000Y-109550000D01*
G75*
G02*
X153145000Y-109750000I-200000J0D01*
G01*
X152745000Y-109750000D01*
G75*
G02*
X152545000Y-109550000I0J200000D01*
G01*
G37*
%TD*%
%TO.C,R505*%
G36*
G01*
X153944000Y-105960000D02*
X153944000Y-105640000D01*
G75*
G02*
X154054000Y-105530000I110000J0D01*
G01*
X154274000Y-105530000D01*
G75*
G02*
X154384000Y-105640000I0J-110000D01*
G01*
X154384000Y-105960000D01*
G75*
G02*
X154274000Y-106070000I-110000J0D01*
G01*
X154054000Y-106070000D01*
G75*
G02*
X153944000Y-105960000I0J110000D01*
G01*
G37*
G36*
G01*
X152924000Y-105960000D02*
X152924000Y-105640000D01*
G75*
G02*
X153034000Y-105530000I110000J0D01*
G01*
X153254000Y-105530000D01*
G75*
G02*
X153364000Y-105640000I0J-110000D01*
G01*
X153364000Y-105960000D01*
G75*
G02*
X153254000Y-106070000I-110000J0D01*
G01*
X153034000Y-106070000D01*
G75*
G02*
X152924000Y-105960000I0J110000D01*
G01*
G37*
%TD*%
%TO.C,R504*%
G36*
G01*
X153944000Y-106960000D02*
X153944000Y-106640000D01*
G75*
G02*
X154054000Y-106530000I110000J0D01*
G01*
X154274000Y-106530000D01*
G75*
G02*
X154384000Y-106640000I0J-110000D01*
G01*
X154384000Y-106960000D01*
G75*
G02*
X154274000Y-107070000I-110000J0D01*
G01*
X154054000Y-107070000D01*
G75*
G02*
X153944000Y-106960000I0J110000D01*
G01*
G37*
G36*
G01*
X152924000Y-106960000D02*
X152924000Y-106640000D01*
G75*
G02*
X153034000Y-106530000I110000J0D01*
G01*
X153254000Y-106530000D01*
G75*
G02*
X153364000Y-106640000I0J-110000D01*
G01*
X153364000Y-106960000D01*
G75*
G02*
X153254000Y-107070000I-110000J0D01*
G01*
X153034000Y-107070000D01*
G75*
G02*
X152924000Y-106960000I0J110000D01*
G01*
G37*
%TD*%
%TO.C,R503*%
G36*
G01*
X153944000Y-104960000D02*
X153944000Y-104640000D01*
G75*
G02*
X154054000Y-104530000I110000J0D01*
G01*
X154274000Y-104530000D01*
G75*
G02*
X154384000Y-104640000I0J-110000D01*
G01*
X154384000Y-104960000D01*
G75*
G02*
X154274000Y-105070000I-110000J0D01*
G01*
X154054000Y-105070000D01*
G75*
G02*
X153944000Y-104960000I0J110000D01*
G01*
G37*
G36*
G01*
X152924000Y-104960000D02*
X152924000Y-104640000D01*
G75*
G02*
X153034000Y-104530000I110000J0D01*
G01*
X153254000Y-104530000D01*
G75*
G02*
X153364000Y-104640000I0J-110000D01*
G01*
X153364000Y-104960000D01*
G75*
G02*
X153254000Y-105070000I-110000J0D01*
G01*
X153034000Y-105070000D01*
G75*
G02*
X152924000Y-104960000I0J110000D01*
G01*
G37*
%TD*%
%TO.C,C512*%
G36*
G01*
X150195000Y-98950000D02*
X150195000Y-98500000D01*
G75*
G02*
X150395000Y-98300000I200000J0D01*
G01*
X150795000Y-98300000D01*
G75*
G02*
X150995000Y-98500000I0J-200000D01*
G01*
X150995000Y-98950000D01*
G75*
G02*
X150795000Y-99150000I-200000J0D01*
G01*
X150395000Y-99150000D01*
G75*
G02*
X150195000Y-98950000I0J200000D01*
G01*
G37*
G36*
G01*
X148645000Y-98950000D02*
X148645000Y-98500000D01*
G75*
G02*
X148845000Y-98300000I200000J0D01*
G01*
X149245000Y-98300000D01*
G75*
G02*
X149445000Y-98500000I0J-200000D01*
G01*
X149445000Y-98950000D01*
G75*
G02*
X149245000Y-99150000I-200000J0D01*
G01*
X148845000Y-99150000D01*
G75*
G02*
X148645000Y-98950000I0J200000D01*
G01*
G37*
%TD*%
%TO.C,C508*%
G36*
G01*
X136925000Y-116175000D02*
X136925000Y-116625000D01*
G75*
G02*
X136725000Y-116825000I-200000J0D01*
G01*
X136325000Y-116825000D01*
G75*
G02*
X136125000Y-116625000I0J200000D01*
G01*
X136125000Y-116175000D01*
G75*
G02*
X136325000Y-115975000I200000J0D01*
G01*
X136725000Y-115975000D01*
G75*
G02*
X136925000Y-116175000I0J-200000D01*
G01*
G37*
G36*
G01*
X138475000Y-116175000D02*
X138475000Y-116625000D01*
G75*
G02*
X138275000Y-116825000I-200000J0D01*
G01*
X137875000Y-116825000D01*
G75*
G02*
X137675000Y-116625000I0J200000D01*
G01*
X137675000Y-116175000D01*
G75*
G02*
X137875000Y-115975000I200000J0D01*
G01*
X138275000Y-115975000D01*
G75*
G02*
X138475000Y-116175000I0J-200000D01*
G01*
G37*
%TD*%
%TO.C,C507*%
G36*
G01*
X152325000Y-99125000D02*
X151875000Y-99125000D01*
G75*
G02*
X151675000Y-98925000I0J200000D01*
G01*
X151675000Y-98525000D01*
G75*
G02*
X151875000Y-98325000I200000J0D01*
G01*
X152325000Y-98325000D01*
G75*
G02*
X152525000Y-98525000I0J-200000D01*
G01*
X152525000Y-98925000D01*
G75*
G02*
X152325000Y-99125000I-200000J0D01*
G01*
G37*
G36*
G01*
X152325000Y-100675000D02*
X151875000Y-100675000D01*
G75*
G02*
X151675000Y-100475000I0J200000D01*
G01*
X151675000Y-100075000D01*
G75*
G02*
X151875000Y-99875000I200000J0D01*
G01*
X152325000Y-99875000D01*
G75*
G02*
X152525000Y-100075000I0J-200000D01*
G01*
X152525000Y-100475000D01*
G75*
G02*
X152325000Y-100675000I-200000J0D01*
G01*
G37*
%TD*%
%TO.C,C415*%
G36*
G01*
X197113000Y-136175000D02*
X197113000Y-135885000D01*
G75*
G02*
X197228000Y-135770000I115000J0D01*
G01*
X197458000Y-135770000D01*
G75*
G02*
X197573000Y-135885000I0J-115000D01*
G01*
X197573000Y-136175000D01*
G75*
G02*
X197458000Y-136290000I-115000J0D01*
G01*
X197228000Y-136290000D01*
G75*
G02*
X197113000Y-136175000I0J115000D01*
G01*
G37*
G36*
G01*
X196153000Y-136175000D02*
X196153000Y-135885000D01*
G75*
G02*
X196268000Y-135770000I115000J0D01*
G01*
X196498000Y-135770000D01*
G75*
G02*
X196613000Y-135885000I0J-115000D01*
G01*
X196613000Y-136175000D01*
G75*
G02*
X196498000Y-136290000I-115000J0D01*
G01*
X196268000Y-136290000D01*
G75*
G02*
X196153000Y-136175000I0J115000D01*
G01*
G37*
%TD*%
%TO.C,C309*%
G36*
G01*
X172669000Y-97375000D02*
X172959000Y-97375000D01*
G75*
G02*
X173074000Y-97490000I0J-115000D01*
G01*
X173074000Y-97720000D01*
G75*
G02*
X172959000Y-97835000I-115000J0D01*
G01*
X172669000Y-97835000D01*
G75*
G02*
X172554000Y-97720000I0J115000D01*
G01*
X172554000Y-97490000D01*
G75*
G02*
X172669000Y-97375000I115000J0D01*
G01*
G37*
G36*
G01*
X172669000Y-96415000D02*
X172959000Y-96415000D01*
G75*
G02*
X173074000Y-96530000I0J-115000D01*
G01*
X173074000Y-96760000D01*
G75*
G02*
X172959000Y-96875000I-115000J0D01*
G01*
X172669000Y-96875000D01*
G75*
G02*
X172554000Y-96760000I0J115000D01*
G01*
X172554000Y-96530000D01*
G75*
G02*
X172669000Y-96415000I115000J0D01*
G01*
G37*
%TD*%
%TO.C,C308*%
G36*
G01*
X181064000Y-105750000D02*
X181064000Y-105460000D01*
G75*
G02*
X181179000Y-105345000I115000J0D01*
G01*
X181409000Y-105345000D01*
G75*
G02*
X181524000Y-105460000I0J-115000D01*
G01*
X181524000Y-105750000D01*
G75*
G02*
X181409000Y-105865000I-115000J0D01*
G01*
X181179000Y-105865000D01*
G75*
G02*
X181064000Y-105750000I0J115000D01*
G01*
G37*
G36*
G01*
X180104000Y-105750000D02*
X180104000Y-105460000D01*
G75*
G02*
X180219000Y-105345000I115000J0D01*
G01*
X180449000Y-105345000D01*
G75*
G02*
X180564000Y-105460000I0J-115000D01*
G01*
X180564000Y-105750000D01*
G75*
G02*
X180449000Y-105865000I-115000J0D01*
G01*
X180219000Y-105865000D01*
G75*
G02*
X180104000Y-105750000I0J115000D01*
G01*
G37*
%TD*%
%TO.C,C307*%
G36*
G01*
X181044000Y-96210000D02*
X181044000Y-96500000D01*
G75*
G02*
X180929000Y-96615000I-115000J0D01*
G01*
X180699000Y-96615000D01*
G75*
G02*
X180584000Y-96500000I0J115000D01*
G01*
X180584000Y-96210000D01*
G75*
G02*
X180699000Y-96095000I115000J0D01*
G01*
X180929000Y-96095000D01*
G75*
G02*
X181044000Y-96210000I0J-115000D01*
G01*
G37*
G36*
G01*
X182004000Y-96210000D02*
X182004000Y-96500000D01*
G75*
G02*
X181889000Y-96615000I-115000J0D01*
G01*
X181659000Y-96615000D01*
G75*
G02*
X181544000Y-96500000I0J115000D01*
G01*
X181544000Y-96210000D01*
G75*
G02*
X181659000Y-96095000I115000J0D01*
G01*
X181889000Y-96095000D01*
G75*
G02*
X182004000Y-96210000I0J-115000D01*
G01*
G37*
%TD*%
%TO.C,C306*%
G36*
G01*
X172669000Y-104355000D02*
X172959000Y-104355000D01*
G75*
G02*
X173074000Y-104470000I0J-115000D01*
G01*
X173074000Y-104700000D01*
G75*
G02*
X172959000Y-104815000I-115000J0D01*
G01*
X172669000Y-104815000D01*
G75*
G02*
X172554000Y-104700000I0J115000D01*
G01*
X172554000Y-104470000D01*
G75*
G02*
X172669000Y-104355000I115000J0D01*
G01*
G37*
G36*
G01*
X172669000Y-103395000D02*
X172959000Y-103395000D01*
G75*
G02*
X173074000Y-103510000I0J-115000D01*
G01*
X173074000Y-103740000D01*
G75*
G02*
X172959000Y-103855000I-115000J0D01*
G01*
X172669000Y-103855000D01*
G75*
G02*
X172554000Y-103740000I0J115000D01*
G01*
X172554000Y-103510000D01*
G75*
G02*
X172669000Y-103395000I115000J0D01*
G01*
G37*
%TD*%
%TO.C,C311*%
G36*
G01*
X148282000Y-77805000D02*
X148282000Y-76905000D01*
G75*
G02*
X148507000Y-76680000I225000J0D01*
G01*
X148957000Y-76680000D01*
G75*
G02*
X149182000Y-76905000I0J-225000D01*
G01*
X149182000Y-77805000D01*
G75*
G02*
X148957000Y-78030000I-225000J0D01*
G01*
X148507000Y-78030000D01*
G75*
G02*
X148282000Y-77805000I0J225000D01*
G01*
G37*
G36*
G01*
X146382000Y-77805000D02*
X146382000Y-76905000D01*
G75*
G02*
X146607000Y-76680000I225000J0D01*
G01*
X147057000Y-76680000D01*
G75*
G02*
X147282000Y-76905000I0J-225000D01*
G01*
X147282000Y-77805000D01*
G75*
G02*
X147057000Y-78030000I-225000J0D01*
G01*
X146607000Y-78030000D01*
G75*
G02*
X146382000Y-77805000I0J225000D01*
G01*
G37*
%TD*%
%TO.C,R602*%
G36*
G01*
X146540000Y-92280000D02*
X146860000Y-92280000D01*
G75*
G02*
X146970000Y-92390000I0J-110000D01*
G01*
X146970000Y-92610000D01*
G75*
G02*
X146860000Y-92720000I-110000J0D01*
G01*
X146540000Y-92720000D01*
G75*
G02*
X146430000Y-92610000I0J110000D01*
G01*
X146430000Y-92390000D01*
G75*
G02*
X146540000Y-92280000I110000J0D01*
G01*
G37*
G36*
G01*
X146540000Y-91260000D02*
X146860000Y-91260000D01*
G75*
G02*
X146970000Y-91370000I0J-110000D01*
G01*
X146970000Y-91590000D01*
G75*
G02*
X146860000Y-91700000I-110000J0D01*
G01*
X146540000Y-91700000D01*
G75*
G02*
X146430000Y-91590000I0J110000D01*
G01*
X146430000Y-91370000D01*
G75*
G02*
X146540000Y-91260000I110000J0D01*
G01*
G37*
%TD*%
%TO.C,R601*%
G36*
G01*
X146860000Y-89700000D02*
X146540000Y-89700000D01*
G75*
G02*
X146430000Y-89590000I0J110000D01*
G01*
X146430000Y-89370000D01*
G75*
G02*
X146540000Y-89260000I110000J0D01*
G01*
X146860000Y-89260000D01*
G75*
G02*
X146970000Y-89370000I0J-110000D01*
G01*
X146970000Y-89590000D01*
G75*
G02*
X146860000Y-89700000I-110000J0D01*
G01*
G37*
G36*
G01*
X146860000Y-90720000D02*
X146540000Y-90720000D01*
G75*
G02*
X146430000Y-90610000I0J110000D01*
G01*
X146430000Y-90390000D01*
G75*
G02*
X146540000Y-90280000I110000J0D01*
G01*
X146860000Y-90280000D01*
G75*
G02*
X146970000Y-90390000I0J-110000D01*
G01*
X146970000Y-90610000D01*
G75*
G02*
X146860000Y-90720000I-110000J0D01*
G01*
G37*
%TD*%
%TO.C,R603*%
G36*
G01*
X143940000Y-93510000D02*
X143940000Y-93190000D01*
G75*
G02*
X144050000Y-93080000I110000J0D01*
G01*
X144270000Y-93080000D01*
G75*
G02*
X144380000Y-93190000I0J-110000D01*
G01*
X144380000Y-93510000D01*
G75*
G02*
X144270000Y-93620000I-110000J0D01*
G01*
X144050000Y-93620000D01*
G75*
G02*
X143940000Y-93510000I0J110000D01*
G01*
G37*
G36*
G01*
X142920000Y-93510000D02*
X142920000Y-93190000D01*
G75*
G02*
X143030000Y-93080000I110000J0D01*
G01*
X143250000Y-93080000D01*
G75*
G02*
X143360000Y-93190000I0J-110000D01*
G01*
X143360000Y-93510000D01*
G75*
G02*
X143250000Y-93620000I-110000J0D01*
G01*
X143030000Y-93620000D01*
G75*
G02*
X142920000Y-93510000I0J110000D01*
G01*
G37*
%TD*%
%TO.C,R305*%
G36*
G01*
X196210000Y-88740000D02*
X196210000Y-89060000D01*
G75*
G02*
X196100000Y-89170000I-110000J0D01*
G01*
X195880000Y-89170000D01*
G75*
G02*
X195770000Y-89060000I0J110000D01*
G01*
X195770000Y-88740000D01*
G75*
G02*
X195880000Y-88630000I110000J0D01*
G01*
X196100000Y-88630000D01*
G75*
G02*
X196210000Y-88740000I0J-110000D01*
G01*
G37*
G36*
G01*
X197230000Y-88740000D02*
X197230000Y-89060000D01*
G75*
G02*
X197120000Y-89170000I-110000J0D01*
G01*
X196900000Y-89170000D01*
G75*
G02*
X196790000Y-89060000I0J110000D01*
G01*
X196790000Y-88740000D01*
G75*
G02*
X196900000Y-88630000I110000J0D01*
G01*
X197120000Y-88630000D01*
G75*
G02*
X197230000Y-88740000I0J-110000D01*
G01*
G37*
%TD*%
%TO.C,R304*%
G36*
G01*
X193845000Y-79800000D02*
X193845000Y-79480000D01*
G75*
G02*
X193955000Y-79370000I110000J0D01*
G01*
X194175000Y-79370000D01*
G75*
G02*
X194285000Y-79480000I0J-110000D01*
G01*
X194285000Y-79800000D01*
G75*
G02*
X194175000Y-79910000I-110000J0D01*
G01*
X193955000Y-79910000D01*
G75*
G02*
X193845000Y-79800000I0J110000D01*
G01*
G37*
G36*
G01*
X192825000Y-79800000D02*
X192825000Y-79480000D01*
G75*
G02*
X192935000Y-79370000I110000J0D01*
G01*
X193155000Y-79370000D01*
G75*
G02*
X193265000Y-79480000I0J-110000D01*
G01*
X193265000Y-79800000D01*
G75*
G02*
X193155000Y-79910000I-110000J0D01*
G01*
X192935000Y-79910000D01*
G75*
G02*
X192825000Y-79800000I0J110000D01*
G01*
G37*
%TD*%
%TO.C,R301*%
G36*
G01*
X137874000Y-75230000D02*
X137874000Y-74910000D01*
G75*
G02*
X137984000Y-74800000I110000J0D01*
G01*
X138204000Y-74800000D01*
G75*
G02*
X138314000Y-74910000I0J-110000D01*
G01*
X138314000Y-75230000D01*
G75*
G02*
X138204000Y-75340000I-110000J0D01*
G01*
X137984000Y-75340000D01*
G75*
G02*
X137874000Y-75230000I0J110000D01*
G01*
G37*
G36*
G01*
X136854000Y-75230000D02*
X136854000Y-74910000D01*
G75*
G02*
X136964000Y-74800000I110000J0D01*
G01*
X137184000Y-74800000D01*
G75*
G02*
X137294000Y-74910000I0J-110000D01*
G01*
X137294000Y-75230000D01*
G75*
G02*
X137184000Y-75340000I-110000J0D01*
G01*
X136964000Y-75340000D01*
G75*
G02*
X136854000Y-75230000I0J110000D01*
G01*
G37*
%TD*%
%TO.C,R302*%
G36*
G01*
X133494000Y-74910000D02*
X133494000Y-75230000D01*
G75*
G02*
X133384000Y-75340000I-110000J0D01*
G01*
X133164000Y-75340000D01*
G75*
G02*
X133054000Y-75230000I0J110000D01*
G01*
X133054000Y-74910000D01*
G75*
G02*
X133164000Y-74800000I110000J0D01*
G01*
X133384000Y-74800000D01*
G75*
G02*
X133494000Y-74910000I0J-110000D01*
G01*
G37*
G36*
G01*
X134514000Y-74910000D02*
X134514000Y-75230000D01*
G75*
G02*
X134404000Y-75340000I-110000J0D01*
G01*
X134184000Y-75340000D01*
G75*
G02*
X134074000Y-75230000I0J110000D01*
G01*
X134074000Y-74910000D01*
G75*
G02*
X134184000Y-74800000I110000J0D01*
G01*
X134404000Y-74800000D01*
G75*
G02*
X134514000Y-74910000I0J-110000D01*
G01*
G37*
%TD*%
%TO.C,R303*%
G36*
G01*
X129694000Y-74910000D02*
X129694000Y-75230000D01*
G75*
G02*
X129584000Y-75340000I-110000J0D01*
G01*
X129364000Y-75340000D01*
G75*
G02*
X129254000Y-75230000I0J110000D01*
G01*
X129254000Y-74910000D01*
G75*
G02*
X129364000Y-74800000I110000J0D01*
G01*
X129584000Y-74800000D01*
G75*
G02*
X129694000Y-74910000I0J-110000D01*
G01*
G37*
G36*
G01*
X130714000Y-74910000D02*
X130714000Y-75230000D01*
G75*
G02*
X130604000Y-75340000I-110000J0D01*
G01*
X130384000Y-75340000D01*
G75*
G02*
X130274000Y-75230000I0J110000D01*
G01*
X130274000Y-74910000D01*
G75*
G02*
X130384000Y-74800000I110000J0D01*
G01*
X130604000Y-74800000D01*
G75*
G02*
X130714000Y-74910000I0J-110000D01*
G01*
G37*
%TD*%
%TO.C,R407*%
G36*
G01*
X169060000Y-140310000D02*
X168740000Y-140310000D01*
G75*
G02*
X168630000Y-140200000I0J110000D01*
G01*
X168630000Y-139980000D01*
G75*
G02*
X168740000Y-139870000I110000J0D01*
G01*
X169060000Y-139870000D01*
G75*
G02*
X169170000Y-139980000I0J-110000D01*
G01*
X169170000Y-140200000D01*
G75*
G02*
X169060000Y-140310000I-110000J0D01*
G01*
G37*
G36*
G01*
X169060000Y-141330000D02*
X168740000Y-141330000D01*
G75*
G02*
X168630000Y-141220000I0J110000D01*
G01*
X168630000Y-141000000D01*
G75*
G02*
X168740000Y-140890000I110000J0D01*
G01*
X169060000Y-140890000D01*
G75*
G02*
X169170000Y-141000000I0J-110000D01*
G01*
X169170000Y-141220000D01*
G75*
G02*
X169060000Y-141330000I-110000J0D01*
G01*
G37*
%TD*%
%TO.C,R406*%
G36*
G01*
X170440000Y-140890000D02*
X170760000Y-140890000D01*
G75*
G02*
X170870000Y-141000000I0J-110000D01*
G01*
X170870000Y-141220000D01*
G75*
G02*
X170760000Y-141330000I-110000J0D01*
G01*
X170440000Y-141330000D01*
G75*
G02*
X170330000Y-141220000I0J110000D01*
G01*
X170330000Y-141000000D01*
G75*
G02*
X170440000Y-140890000I110000J0D01*
G01*
G37*
G36*
G01*
X170440000Y-139870000D02*
X170760000Y-139870000D01*
G75*
G02*
X170870000Y-139980000I0J-110000D01*
G01*
X170870000Y-140200000D01*
G75*
G02*
X170760000Y-140310000I-110000J0D01*
G01*
X170440000Y-140310000D01*
G75*
G02*
X170330000Y-140200000I0J110000D01*
G01*
X170330000Y-139980000D01*
G75*
G02*
X170440000Y-139870000I110000J0D01*
G01*
G37*
%TD*%
%TO.C,R410*%
G36*
G01*
X173440000Y-140890000D02*
X173760000Y-140890000D01*
G75*
G02*
X173870000Y-141000000I0J-110000D01*
G01*
X173870000Y-141220000D01*
G75*
G02*
X173760000Y-141330000I-110000J0D01*
G01*
X173440000Y-141330000D01*
G75*
G02*
X173330000Y-141220000I0J110000D01*
G01*
X173330000Y-141000000D01*
G75*
G02*
X173440000Y-140890000I110000J0D01*
G01*
G37*
G36*
G01*
X173440000Y-139870000D02*
X173760000Y-139870000D01*
G75*
G02*
X173870000Y-139980000I0J-110000D01*
G01*
X173870000Y-140200000D01*
G75*
G02*
X173760000Y-140310000I-110000J0D01*
G01*
X173440000Y-140310000D01*
G75*
G02*
X173330000Y-140200000I0J110000D01*
G01*
X173330000Y-139980000D01*
G75*
G02*
X173440000Y-139870000I110000J0D01*
G01*
G37*
%TD*%
%TO.C,R203*%
G36*
G01*
X169665000Y-125785000D02*
X169665000Y-126105000D01*
G75*
G02*
X169555000Y-126215000I-110000J0D01*
G01*
X169335000Y-126215000D01*
G75*
G02*
X169225000Y-126105000I0J110000D01*
G01*
X169225000Y-125785000D01*
G75*
G02*
X169335000Y-125675000I110000J0D01*
G01*
X169555000Y-125675000D01*
G75*
G02*
X169665000Y-125785000I0J-110000D01*
G01*
G37*
G36*
G01*
X170685000Y-125785000D02*
X170685000Y-126105000D01*
G75*
G02*
X170575000Y-126215000I-110000J0D01*
G01*
X170355000Y-126215000D01*
G75*
G02*
X170245000Y-126105000I0J110000D01*
G01*
X170245000Y-125785000D01*
G75*
G02*
X170355000Y-125675000I110000J0D01*
G01*
X170575000Y-125675000D01*
G75*
G02*
X170685000Y-125785000I0J-110000D01*
G01*
G37*
%TD*%
%TO.C,R202*%
G36*
G01*
X169285000Y-127975000D02*
X169605000Y-127975000D01*
G75*
G02*
X169715000Y-128085000I0J-110000D01*
G01*
X169715000Y-128305000D01*
G75*
G02*
X169605000Y-128415000I-110000J0D01*
G01*
X169285000Y-128415000D01*
G75*
G02*
X169175000Y-128305000I0J110000D01*
G01*
X169175000Y-128085000D01*
G75*
G02*
X169285000Y-127975000I110000J0D01*
G01*
G37*
G36*
G01*
X169285000Y-126955000D02*
X169605000Y-126955000D01*
G75*
G02*
X169715000Y-127065000I0J-110000D01*
G01*
X169715000Y-127285000D01*
G75*
G02*
X169605000Y-127395000I-110000J0D01*
G01*
X169285000Y-127395000D01*
G75*
G02*
X169175000Y-127285000I0J110000D01*
G01*
X169175000Y-127065000D01*
G75*
G02*
X169285000Y-126955000I110000J0D01*
G01*
G37*
%TD*%
%TO.C,R201*%
G36*
G01*
X126840000Y-140371000D02*
X127160000Y-140371000D01*
G75*
G02*
X127270000Y-140481000I0J-110000D01*
G01*
X127270000Y-140701000D01*
G75*
G02*
X127160000Y-140811000I-110000J0D01*
G01*
X126840000Y-140811000D01*
G75*
G02*
X126730000Y-140701000I0J110000D01*
G01*
X126730000Y-140481000D01*
G75*
G02*
X126840000Y-140371000I110000J0D01*
G01*
G37*
G36*
G01*
X126840000Y-139351000D02*
X127160000Y-139351000D01*
G75*
G02*
X127270000Y-139461000I0J-110000D01*
G01*
X127270000Y-139681000D01*
G75*
G02*
X127160000Y-139791000I-110000J0D01*
G01*
X126840000Y-139791000D01*
G75*
G02*
X126730000Y-139681000I0J110000D01*
G01*
X126730000Y-139461000D01*
G75*
G02*
X126840000Y-139351000I110000J0D01*
G01*
G37*
%TD*%
%TO.C,C602*%
G36*
G01*
X141300000Y-99405000D02*
X141300000Y-99695000D01*
G75*
G02*
X141185000Y-99810000I-115000J0D01*
G01*
X140955000Y-99810000D01*
G75*
G02*
X140840000Y-99695000I0J115000D01*
G01*
X140840000Y-99405000D01*
G75*
G02*
X140955000Y-99290000I115000J0D01*
G01*
X141185000Y-99290000D01*
G75*
G02*
X141300000Y-99405000I0J-115000D01*
G01*
G37*
G36*
G01*
X142260000Y-99405000D02*
X142260000Y-99695000D01*
G75*
G02*
X142145000Y-99810000I-115000J0D01*
G01*
X141915000Y-99810000D01*
G75*
G02*
X141800000Y-99695000I0J115000D01*
G01*
X141800000Y-99405000D01*
G75*
G02*
X141915000Y-99290000I115000J0D01*
G01*
X142145000Y-99290000D01*
G75*
G02*
X142260000Y-99405000I0J-115000D01*
G01*
G37*
%TD*%
%TO.C,C604*%
G36*
G01*
X126095000Y-108950000D02*
X126385000Y-108950000D01*
G75*
G02*
X126500000Y-109065000I0J-115000D01*
G01*
X126500000Y-109295000D01*
G75*
G02*
X126385000Y-109410000I-115000J0D01*
G01*
X126095000Y-109410000D01*
G75*
G02*
X125980000Y-109295000I0J115000D01*
G01*
X125980000Y-109065000D01*
G75*
G02*
X126095000Y-108950000I115000J0D01*
G01*
G37*
G36*
G01*
X126095000Y-107990000D02*
X126385000Y-107990000D01*
G75*
G02*
X126500000Y-108105000I0J-115000D01*
G01*
X126500000Y-108335000D01*
G75*
G02*
X126385000Y-108450000I-115000J0D01*
G01*
X126095000Y-108450000D01*
G75*
G02*
X125980000Y-108335000I0J115000D01*
G01*
X125980000Y-108105000D01*
G75*
G02*
X126095000Y-107990000I115000J0D01*
G01*
G37*
%TD*%
%TO.C,C603*%
G36*
G01*
X123010000Y-108450000D02*
X122720000Y-108450000D01*
G75*
G02*
X122605000Y-108335000I0J115000D01*
G01*
X122605000Y-108105000D01*
G75*
G02*
X122720000Y-107990000I115000J0D01*
G01*
X123010000Y-107990000D01*
G75*
G02*
X123125000Y-108105000I0J-115000D01*
G01*
X123125000Y-108335000D01*
G75*
G02*
X123010000Y-108450000I-115000J0D01*
G01*
G37*
G36*
G01*
X123010000Y-109410000D02*
X122720000Y-109410000D01*
G75*
G02*
X122605000Y-109295000I0J115000D01*
G01*
X122605000Y-109065000D01*
G75*
G02*
X122720000Y-108950000I115000J0D01*
G01*
X123010000Y-108950000D01*
G75*
G02*
X123125000Y-109065000I0J-115000D01*
G01*
X123125000Y-109295000D01*
G75*
G02*
X123010000Y-109410000I-115000J0D01*
G01*
G37*
%TD*%
%TO.C,C312*%
G36*
G01*
X148032000Y-75750000D02*
X148032000Y-75460000D01*
G75*
G02*
X148147000Y-75345000I115000J0D01*
G01*
X148377000Y-75345000D01*
G75*
G02*
X148492000Y-75460000I0J-115000D01*
G01*
X148492000Y-75750000D01*
G75*
G02*
X148377000Y-75865000I-115000J0D01*
G01*
X148147000Y-75865000D01*
G75*
G02*
X148032000Y-75750000I0J115000D01*
G01*
G37*
G36*
G01*
X147072000Y-75750000D02*
X147072000Y-75460000D01*
G75*
G02*
X147187000Y-75345000I115000J0D01*
G01*
X147417000Y-75345000D01*
G75*
G02*
X147532000Y-75460000I0J-115000D01*
G01*
X147532000Y-75750000D01*
G75*
G02*
X147417000Y-75865000I-115000J0D01*
G01*
X147187000Y-75865000D01*
G75*
G02*
X147072000Y-75750000I0J115000D01*
G01*
G37*
%TD*%
%TO.C,C301*%
G36*
G01*
X190640000Y-79495000D02*
X190640000Y-79785000D01*
G75*
G02*
X190525000Y-79900000I-115000J0D01*
G01*
X190295000Y-79900000D01*
G75*
G02*
X190180000Y-79785000I0J115000D01*
G01*
X190180000Y-79495000D01*
G75*
G02*
X190295000Y-79380000I115000J0D01*
G01*
X190525000Y-79380000D01*
G75*
G02*
X190640000Y-79495000I0J-115000D01*
G01*
G37*
G36*
G01*
X191600000Y-79495000D02*
X191600000Y-79785000D01*
G75*
G02*
X191485000Y-79900000I-115000J0D01*
G01*
X191255000Y-79900000D01*
G75*
G02*
X191140000Y-79785000I0J115000D01*
G01*
X191140000Y-79495000D01*
G75*
G02*
X191255000Y-79380000I115000J0D01*
G01*
X191485000Y-79380000D01*
G75*
G02*
X191600000Y-79495000I0J-115000D01*
G01*
G37*
%TD*%
%TO.C,C417*%
G36*
G01*
X193791000Y-135504000D02*
X193791000Y-135794000D01*
G75*
G02*
X193676000Y-135909000I-115000J0D01*
G01*
X193446000Y-135909000D01*
G75*
G02*
X193331000Y-135794000I0J115000D01*
G01*
X193331000Y-135504000D01*
G75*
G02*
X193446000Y-135389000I115000J0D01*
G01*
X193676000Y-135389000D01*
G75*
G02*
X193791000Y-135504000I0J-115000D01*
G01*
G37*
G36*
G01*
X194751000Y-135504000D02*
X194751000Y-135794000D01*
G75*
G02*
X194636000Y-135909000I-115000J0D01*
G01*
X194406000Y-135909000D01*
G75*
G02*
X194291000Y-135794000I0J115000D01*
G01*
X194291000Y-135504000D01*
G75*
G02*
X194406000Y-135389000I115000J0D01*
G01*
X194636000Y-135389000D01*
G75*
G02*
X194751000Y-135504000I0J-115000D01*
G01*
G37*
%TD*%
%TO.C,C412*%
G36*
G01*
X167755000Y-140850000D02*
X168045000Y-140850000D01*
G75*
G02*
X168160000Y-140965000I0J-115000D01*
G01*
X168160000Y-141195000D01*
G75*
G02*
X168045000Y-141310000I-115000J0D01*
G01*
X167755000Y-141310000D01*
G75*
G02*
X167640000Y-141195000I0J115000D01*
G01*
X167640000Y-140965000D01*
G75*
G02*
X167755000Y-140850000I115000J0D01*
G01*
G37*
G36*
G01*
X167755000Y-139890000D02*
X168045000Y-139890000D01*
G75*
G02*
X168160000Y-140005000I0J-115000D01*
G01*
X168160000Y-140235000D01*
G75*
G02*
X168045000Y-140350000I-115000J0D01*
G01*
X167755000Y-140350000D01*
G75*
G02*
X167640000Y-140235000I0J115000D01*
G01*
X167640000Y-140005000D01*
G75*
G02*
X167755000Y-139890000I115000J0D01*
G01*
G37*
%TD*%
%TO.C,C413*%
G36*
G01*
X171455000Y-140850000D02*
X171745000Y-140850000D01*
G75*
G02*
X171860000Y-140965000I0J-115000D01*
G01*
X171860000Y-141195000D01*
G75*
G02*
X171745000Y-141310000I-115000J0D01*
G01*
X171455000Y-141310000D01*
G75*
G02*
X171340000Y-141195000I0J115000D01*
G01*
X171340000Y-140965000D01*
G75*
G02*
X171455000Y-140850000I115000J0D01*
G01*
G37*
G36*
G01*
X171455000Y-139890000D02*
X171745000Y-139890000D01*
G75*
G02*
X171860000Y-140005000I0J-115000D01*
G01*
X171860000Y-140235000D01*
G75*
G02*
X171745000Y-140350000I-115000J0D01*
G01*
X171455000Y-140350000D01*
G75*
G02*
X171340000Y-140235000I0J115000D01*
G01*
X171340000Y-140005000D01*
G75*
G02*
X171455000Y-139890000I115000J0D01*
G01*
G37*
%TD*%
%TO.C,C419*%
G36*
G01*
X177470000Y-129525000D02*
X177180000Y-129525000D01*
G75*
G02*
X177065000Y-129410000I0J115000D01*
G01*
X177065000Y-129180000D01*
G75*
G02*
X177180000Y-129065000I115000J0D01*
G01*
X177470000Y-129065000D01*
G75*
G02*
X177585000Y-129180000I0J-115000D01*
G01*
X177585000Y-129410000D01*
G75*
G02*
X177470000Y-129525000I-115000J0D01*
G01*
G37*
G36*
G01*
X177470000Y-130485000D02*
X177180000Y-130485000D01*
G75*
G02*
X177065000Y-130370000I0J115000D01*
G01*
X177065000Y-130140000D01*
G75*
G02*
X177180000Y-130025000I115000J0D01*
G01*
X177470000Y-130025000D01*
G75*
G02*
X177585000Y-130140000I0J-115000D01*
G01*
X177585000Y-130370000D01*
G75*
G02*
X177470000Y-130485000I-115000J0D01*
G01*
G37*
%TD*%
%TO.C,C606*%
G36*
G01*
X133947500Y-109150000D02*
X134237500Y-109150000D01*
G75*
G02*
X134352500Y-109265000I0J-115000D01*
G01*
X134352500Y-109495000D01*
G75*
G02*
X134237500Y-109610000I-115000J0D01*
G01*
X133947500Y-109610000D01*
G75*
G02*
X133832500Y-109495000I0J115000D01*
G01*
X133832500Y-109265000D01*
G75*
G02*
X133947500Y-109150000I115000J0D01*
G01*
G37*
G36*
G01*
X133947500Y-108190000D02*
X134237500Y-108190000D01*
G75*
G02*
X134352500Y-108305000I0J-115000D01*
G01*
X134352500Y-108535000D01*
G75*
G02*
X134237500Y-108650000I-115000J0D01*
G01*
X133947500Y-108650000D01*
G75*
G02*
X133832500Y-108535000I0J115000D01*
G01*
X133832500Y-108305000D01*
G75*
G02*
X133947500Y-108190000I115000J0D01*
G01*
G37*
%TD*%
%TO.C,C605*%
G36*
G01*
X130850000Y-108650000D02*
X130560000Y-108650000D01*
G75*
G02*
X130445000Y-108535000I0J115000D01*
G01*
X130445000Y-108305000D01*
G75*
G02*
X130560000Y-108190000I115000J0D01*
G01*
X130850000Y-108190000D01*
G75*
G02*
X130965000Y-108305000I0J-115000D01*
G01*
X130965000Y-108535000D01*
G75*
G02*
X130850000Y-108650000I-115000J0D01*
G01*
G37*
G36*
G01*
X130850000Y-109610000D02*
X130560000Y-109610000D01*
G75*
G02*
X130445000Y-109495000I0J115000D01*
G01*
X130445000Y-109265000D01*
G75*
G02*
X130560000Y-109150000I115000J0D01*
G01*
X130850000Y-109150000D01*
G75*
G02*
X130965000Y-109265000I0J-115000D01*
G01*
X130965000Y-109495000D01*
G75*
G02*
X130850000Y-109610000I-115000J0D01*
G01*
G37*
%TD*%
%TO.C,C601*%
G36*
G01*
X141750000Y-93495000D02*
X141750000Y-93205000D01*
G75*
G02*
X141865000Y-93090000I115000J0D01*
G01*
X142095000Y-93090000D01*
G75*
G02*
X142210000Y-93205000I0J-115000D01*
G01*
X142210000Y-93495000D01*
G75*
G02*
X142095000Y-93610000I-115000J0D01*
G01*
X141865000Y-93610000D01*
G75*
G02*
X141750000Y-93495000I0J115000D01*
G01*
G37*
G36*
G01*
X140790000Y-93495000D02*
X140790000Y-93205000D01*
G75*
G02*
X140905000Y-93090000I115000J0D01*
G01*
X141135000Y-93090000D01*
G75*
G02*
X141250000Y-93205000I0J-115000D01*
G01*
X141250000Y-93495000D01*
G75*
G02*
X141135000Y-93610000I-115000J0D01*
G01*
X140905000Y-93610000D01*
G75*
G02*
X140790000Y-93495000I0J115000D01*
G01*
G37*
%TD*%
%TO.C,C511*%
G36*
G01*
X142665000Y-108075000D02*
X142375000Y-108075000D01*
G75*
G02*
X142260000Y-107960000I0J115000D01*
G01*
X142260000Y-107730000D01*
G75*
G02*
X142375000Y-107615000I115000J0D01*
G01*
X142665000Y-107615000D01*
G75*
G02*
X142780000Y-107730000I0J-115000D01*
G01*
X142780000Y-107960000D01*
G75*
G02*
X142665000Y-108075000I-115000J0D01*
G01*
G37*
G36*
G01*
X142665000Y-109035000D02*
X142375000Y-109035000D01*
G75*
G02*
X142260000Y-108920000I0J115000D01*
G01*
X142260000Y-108690000D01*
G75*
G02*
X142375000Y-108575000I115000J0D01*
G01*
X142665000Y-108575000D01*
G75*
G02*
X142780000Y-108690000I0J-115000D01*
G01*
X142780000Y-108920000D01*
G75*
G02*
X142665000Y-109035000I-115000J0D01*
G01*
G37*
%TD*%
%TO.C,C510*%
G36*
G01*
X143925000Y-111775000D02*
X144215000Y-111775000D01*
G75*
G02*
X144330000Y-111890000I0J-115000D01*
G01*
X144330000Y-112120000D01*
G75*
G02*
X144215000Y-112235000I-115000J0D01*
G01*
X143925000Y-112235000D01*
G75*
G02*
X143810000Y-112120000I0J115000D01*
G01*
X143810000Y-111890000D01*
G75*
G02*
X143925000Y-111775000I115000J0D01*
G01*
G37*
G36*
G01*
X143925000Y-110815000D02*
X144215000Y-110815000D01*
G75*
G02*
X144330000Y-110930000I0J-115000D01*
G01*
X144330000Y-111160000D01*
G75*
G02*
X144215000Y-111275000I-115000J0D01*
G01*
X143925000Y-111275000D01*
G75*
G02*
X143810000Y-111160000I0J115000D01*
G01*
X143810000Y-110930000D01*
G75*
G02*
X143925000Y-110815000I115000J0D01*
G01*
G37*
%TD*%
%TO.C,C509*%
G36*
G01*
X145870000Y-106330000D02*
X145870000Y-106620000D01*
G75*
G02*
X145755000Y-106735000I-115000J0D01*
G01*
X145525000Y-106735000D01*
G75*
G02*
X145410000Y-106620000I0J115000D01*
G01*
X145410000Y-106330000D01*
G75*
G02*
X145525000Y-106215000I115000J0D01*
G01*
X145755000Y-106215000D01*
G75*
G02*
X145870000Y-106330000I0J-115000D01*
G01*
G37*
G36*
G01*
X146830000Y-106330000D02*
X146830000Y-106620000D01*
G75*
G02*
X146715000Y-106735000I-115000J0D01*
G01*
X146485000Y-106735000D01*
G75*
G02*
X146370000Y-106620000I0J115000D01*
G01*
X146370000Y-106330000D01*
G75*
G02*
X146485000Y-106215000I115000J0D01*
G01*
X146715000Y-106215000D01*
G75*
G02*
X146830000Y-106330000I0J-115000D01*
G01*
G37*
%TD*%
%TO.C,C514*%
G36*
G01*
X147975000Y-110375000D02*
X148265000Y-110375000D01*
G75*
G02*
X148380000Y-110490000I0J-115000D01*
G01*
X148380000Y-110720000D01*
G75*
G02*
X148265000Y-110835000I-115000J0D01*
G01*
X147975000Y-110835000D01*
G75*
G02*
X147860000Y-110720000I0J115000D01*
G01*
X147860000Y-110490000D01*
G75*
G02*
X147975000Y-110375000I115000J0D01*
G01*
G37*
G36*
G01*
X147975000Y-109415000D02*
X148265000Y-109415000D01*
G75*
G02*
X148380000Y-109530000I0J-115000D01*
G01*
X148380000Y-109760000D01*
G75*
G02*
X148265000Y-109875000I-115000J0D01*
G01*
X147975000Y-109875000D01*
G75*
G02*
X147860000Y-109760000I0J115000D01*
G01*
X147860000Y-109530000D01*
G75*
G02*
X147975000Y-109415000I115000J0D01*
G01*
G37*
%TD*%
%TO.C,C513*%
G36*
G01*
X144850000Y-105670000D02*
X144850000Y-105380000D01*
G75*
G02*
X144965000Y-105265000I115000J0D01*
G01*
X145195000Y-105265000D01*
G75*
G02*
X145310000Y-105380000I0J-115000D01*
G01*
X145310000Y-105670000D01*
G75*
G02*
X145195000Y-105785000I-115000J0D01*
G01*
X144965000Y-105785000D01*
G75*
G02*
X144850000Y-105670000I0J115000D01*
G01*
G37*
G36*
G01*
X143890000Y-105670000D02*
X143890000Y-105380000D01*
G75*
G02*
X144005000Y-105265000I115000J0D01*
G01*
X144235000Y-105265000D01*
G75*
G02*
X144350000Y-105380000I0J-115000D01*
G01*
X144350000Y-105670000D01*
G75*
G02*
X144235000Y-105785000I-115000J0D01*
G01*
X144005000Y-105785000D01*
G75*
G02*
X143890000Y-105670000I0J115000D01*
G01*
G37*
%TD*%
%TO.C,C504*%
G36*
G01*
X142390000Y-106180000D02*
X142390000Y-106470000D01*
G75*
G02*
X142275000Y-106585000I-115000J0D01*
G01*
X142045000Y-106585000D01*
G75*
G02*
X141930000Y-106470000I0J115000D01*
G01*
X141930000Y-106180000D01*
G75*
G02*
X142045000Y-106065000I115000J0D01*
G01*
X142275000Y-106065000D01*
G75*
G02*
X142390000Y-106180000I0J-115000D01*
G01*
G37*
G36*
G01*
X143350000Y-106180000D02*
X143350000Y-106470000D01*
G75*
G02*
X143235000Y-106585000I-115000J0D01*
G01*
X143005000Y-106585000D01*
G75*
G02*
X142890000Y-106470000I0J115000D01*
G01*
X142890000Y-106180000D01*
G75*
G02*
X143005000Y-106065000I115000J0D01*
G01*
X143235000Y-106065000D01*
G75*
G02*
X143350000Y-106180000I0J-115000D01*
G01*
G37*
%TD*%
%TO.C,C503*%
G36*
G01*
X147025000Y-111775000D02*
X147315000Y-111775000D01*
G75*
G02*
X147430000Y-111890000I0J-115000D01*
G01*
X147430000Y-112120000D01*
G75*
G02*
X147315000Y-112235000I-115000J0D01*
G01*
X147025000Y-112235000D01*
G75*
G02*
X146910000Y-112120000I0J115000D01*
G01*
X146910000Y-111890000D01*
G75*
G02*
X147025000Y-111775000I115000J0D01*
G01*
G37*
G36*
G01*
X147025000Y-110815000D02*
X147315000Y-110815000D01*
G75*
G02*
X147430000Y-110930000I0J-115000D01*
G01*
X147430000Y-111160000D01*
G75*
G02*
X147315000Y-111275000I-115000J0D01*
G01*
X147025000Y-111275000D01*
G75*
G02*
X146910000Y-111160000I0J115000D01*
G01*
X146910000Y-110930000D01*
G75*
G02*
X147025000Y-110815000I115000J0D01*
G01*
G37*
%TD*%
%TO.C,C502*%
G36*
G01*
X142975000Y-111775000D02*
X143265000Y-111775000D01*
G75*
G02*
X143380000Y-111890000I0J-115000D01*
G01*
X143380000Y-112120000D01*
G75*
G02*
X143265000Y-112235000I-115000J0D01*
G01*
X142975000Y-112235000D01*
G75*
G02*
X142860000Y-112120000I0J115000D01*
G01*
X142860000Y-111890000D01*
G75*
G02*
X142975000Y-111775000I115000J0D01*
G01*
G37*
G36*
G01*
X142975000Y-110815000D02*
X143265000Y-110815000D01*
G75*
G02*
X143380000Y-110930000I0J-115000D01*
G01*
X143380000Y-111160000D01*
G75*
G02*
X143265000Y-111275000I-115000J0D01*
G01*
X142975000Y-111275000D01*
G75*
G02*
X142860000Y-111160000I0J115000D01*
G01*
X142860000Y-110930000D01*
G75*
G02*
X142975000Y-110815000I115000J0D01*
G01*
G37*
%TD*%
%TO.C,C501*%
G36*
G01*
X146470000Y-105380000D02*
X146470000Y-105670000D01*
G75*
G02*
X146355000Y-105785000I-115000J0D01*
G01*
X146125000Y-105785000D01*
G75*
G02*
X146010000Y-105670000I0J115000D01*
G01*
X146010000Y-105380000D01*
G75*
G02*
X146125000Y-105265000I115000J0D01*
G01*
X146355000Y-105265000D01*
G75*
G02*
X146470000Y-105380000I0J-115000D01*
G01*
G37*
G36*
G01*
X147430000Y-105380000D02*
X147430000Y-105670000D01*
G75*
G02*
X147315000Y-105785000I-115000J0D01*
G01*
X147085000Y-105785000D01*
G75*
G02*
X146970000Y-105670000I0J115000D01*
G01*
X146970000Y-105380000D01*
G75*
G02*
X147085000Y-105265000I115000J0D01*
G01*
X147315000Y-105265000D01*
G75*
G02*
X147430000Y-105380000I0J-115000D01*
G01*
G37*
%TD*%
%TO.C,C203*%
G36*
G01*
X135195000Y-134100000D02*
X134905000Y-134100000D01*
G75*
G02*
X134790000Y-133985000I0J115000D01*
G01*
X134790000Y-133755000D01*
G75*
G02*
X134905000Y-133640000I115000J0D01*
G01*
X135195000Y-133640000D01*
G75*
G02*
X135310000Y-133755000I0J-115000D01*
G01*
X135310000Y-133985000D01*
G75*
G02*
X135195000Y-134100000I-115000J0D01*
G01*
G37*
G36*
G01*
X135195000Y-135060000D02*
X134905000Y-135060000D01*
G75*
G02*
X134790000Y-134945000I0J115000D01*
G01*
X134790000Y-134715000D01*
G75*
G02*
X134905000Y-134600000I115000J0D01*
G01*
X135195000Y-134600000D01*
G75*
G02*
X135310000Y-134715000I0J-115000D01*
G01*
X135310000Y-134945000D01*
G75*
G02*
X135195000Y-135060000I-115000J0D01*
G01*
G37*
%TD*%
%TO.C,C206*%
G36*
G01*
X134095000Y-134100000D02*
X133805000Y-134100000D01*
G75*
G02*
X133690000Y-133985000I0J115000D01*
G01*
X133690000Y-133755000D01*
G75*
G02*
X133805000Y-133640000I115000J0D01*
G01*
X134095000Y-133640000D01*
G75*
G02*
X134210000Y-133755000I0J-115000D01*
G01*
X134210000Y-133985000D01*
G75*
G02*
X134095000Y-134100000I-115000J0D01*
G01*
G37*
G36*
G01*
X134095000Y-135060000D02*
X133805000Y-135060000D01*
G75*
G02*
X133690000Y-134945000I0J115000D01*
G01*
X133690000Y-134715000D01*
G75*
G02*
X133805000Y-134600000I115000J0D01*
G01*
X134095000Y-134600000D01*
G75*
G02*
X134210000Y-134715000I0J-115000D01*
G01*
X134210000Y-134945000D01*
G75*
G02*
X134095000Y-135060000I-115000J0D01*
G01*
G37*
%TD*%
%TO.C,C202*%
G36*
G01*
X128288000Y-139831000D02*
X127998000Y-139831000D01*
G75*
G02*
X127883000Y-139716000I0J115000D01*
G01*
X127883000Y-139486000D01*
G75*
G02*
X127998000Y-139371000I115000J0D01*
G01*
X128288000Y-139371000D01*
G75*
G02*
X128403000Y-139486000I0J-115000D01*
G01*
X128403000Y-139716000D01*
G75*
G02*
X128288000Y-139831000I-115000J0D01*
G01*
G37*
G36*
G01*
X128288000Y-140791000D02*
X127998000Y-140791000D01*
G75*
G02*
X127883000Y-140676000I0J115000D01*
G01*
X127883000Y-140446000D01*
G75*
G02*
X127998000Y-140331000I115000J0D01*
G01*
X128288000Y-140331000D01*
G75*
G02*
X128403000Y-140446000I0J-115000D01*
G01*
X128403000Y-140676000D01*
G75*
G02*
X128288000Y-140791000I-115000J0D01*
G01*
G37*
%TD*%
%TO.C,C208*%
G36*
G01*
X154545000Y-134350000D02*
X154255000Y-134350000D01*
G75*
G02*
X154140000Y-134235000I0J115000D01*
G01*
X154140000Y-134005000D01*
G75*
G02*
X154255000Y-133890000I115000J0D01*
G01*
X154545000Y-133890000D01*
G75*
G02*
X154660000Y-134005000I0J-115000D01*
G01*
X154660000Y-134235000D01*
G75*
G02*
X154545000Y-134350000I-115000J0D01*
G01*
G37*
G36*
G01*
X154545000Y-135310000D02*
X154255000Y-135310000D01*
G75*
G02*
X154140000Y-135195000I0J115000D01*
G01*
X154140000Y-134965000D01*
G75*
G02*
X154255000Y-134850000I115000J0D01*
G01*
X154545000Y-134850000D01*
G75*
G02*
X154660000Y-134965000I0J-115000D01*
G01*
X154660000Y-135195000D01*
G75*
G02*
X154545000Y-135310000I-115000J0D01*
G01*
G37*
%TD*%
%TO.C,C204*%
G36*
G01*
X164895000Y-133750000D02*
X164605000Y-133750000D01*
G75*
G02*
X164490000Y-133635000I0J115000D01*
G01*
X164490000Y-133405000D01*
G75*
G02*
X164605000Y-133290000I115000J0D01*
G01*
X164895000Y-133290000D01*
G75*
G02*
X165010000Y-133405000I0J-115000D01*
G01*
X165010000Y-133635000D01*
G75*
G02*
X164895000Y-133750000I-115000J0D01*
G01*
G37*
G36*
G01*
X164895000Y-134710000D02*
X164605000Y-134710000D01*
G75*
G02*
X164490000Y-134595000I0J115000D01*
G01*
X164490000Y-134365000D01*
G75*
G02*
X164605000Y-134250000I115000J0D01*
G01*
X164895000Y-134250000D01*
G75*
G02*
X165010000Y-134365000I0J-115000D01*
G01*
X165010000Y-134595000D01*
G75*
G02*
X164895000Y-134710000I-115000J0D01*
G01*
G37*
%TD*%
%TO.C,C201*%
G36*
G01*
X164340000Y-127195000D02*
X164050000Y-127195000D01*
G75*
G02*
X163935000Y-127080000I0J115000D01*
G01*
X163935000Y-126850000D01*
G75*
G02*
X164050000Y-126735000I115000J0D01*
G01*
X164340000Y-126735000D01*
G75*
G02*
X164455000Y-126850000I0J-115000D01*
G01*
X164455000Y-127080000D01*
G75*
G02*
X164340000Y-127195000I-115000J0D01*
G01*
G37*
G36*
G01*
X164340000Y-128155000D02*
X164050000Y-128155000D01*
G75*
G02*
X163935000Y-128040000I0J115000D01*
G01*
X163935000Y-127810000D01*
G75*
G02*
X164050000Y-127695000I115000J0D01*
G01*
X164340000Y-127695000D01*
G75*
G02*
X164455000Y-127810000I0J-115000D01*
G01*
X164455000Y-128040000D01*
G75*
G02*
X164340000Y-128155000I-115000J0D01*
G01*
G37*
%TD*%
%TO.C,C205*%
G36*
G01*
X155745000Y-134350000D02*
X155455000Y-134350000D01*
G75*
G02*
X155340000Y-134235000I0J115000D01*
G01*
X155340000Y-134005000D01*
G75*
G02*
X155455000Y-133890000I115000J0D01*
G01*
X155745000Y-133890000D01*
G75*
G02*
X155860000Y-134005000I0J-115000D01*
G01*
X155860000Y-134235000D01*
G75*
G02*
X155745000Y-134350000I-115000J0D01*
G01*
G37*
G36*
G01*
X155745000Y-135310000D02*
X155455000Y-135310000D01*
G75*
G02*
X155340000Y-135195000I0J115000D01*
G01*
X155340000Y-134965000D01*
G75*
G02*
X155455000Y-134850000I115000J0D01*
G01*
X155745000Y-134850000D01*
G75*
G02*
X155860000Y-134965000I0J-115000D01*
G01*
X155860000Y-135195000D01*
G75*
G02*
X155745000Y-135310000I-115000J0D01*
G01*
G37*
%TD*%
%TO.C,C207*%
G36*
G01*
X163645000Y-133750000D02*
X163355000Y-133750000D01*
G75*
G02*
X163240000Y-133635000I0J115000D01*
G01*
X163240000Y-133405000D01*
G75*
G02*
X163355000Y-133290000I115000J0D01*
G01*
X163645000Y-133290000D01*
G75*
G02*
X163760000Y-133405000I0J-115000D01*
G01*
X163760000Y-133635000D01*
G75*
G02*
X163645000Y-133750000I-115000J0D01*
G01*
G37*
G36*
G01*
X163645000Y-134710000D02*
X163355000Y-134710000D01*
G75*
G02*
X163240000Y-134595000I0J115000D01*
G01*
X163240000Y-134365000D01*
G75*
G02*
X163355000Y-134250000I115000J0D01*
G01*
X163645000Y-134250000D01*
G75*
G02*
X163760000Y-134365000I0J-115000D01*
G01*
X163760000Y-134595000D01*
G75*
G02*
X163645000Y-134710000I-115000J0D01*
G01*
G37*
%TD*%
%TO.C,C220*%
G36*
G01*
X132250000Y-135605000D02*
X132250000Y-135895000D01*
G75*
G02*
X132135000Y-136010000I-115000J0D01*
G01*
X131905000Y-136010000D01*
G75*
G02*
X131790000Y-135895000I0J115000D01*
G01*
X131790000Y-135605000D01*
G75*
G02*
X131905000Y-135490000I115000J0D01*
G01*
X132135000Y-135490000D01*
G75*
G02*
X132250000Y-135605000I0J-115000D01*
G01*
G37*
G36*
G01*
X133210000Y-135605000D02*
X133210000Y-135895000D01*
G75*
G02*
X133095000Y-136010000I-115000J0D01*
G01*
X132865000Y-136010000D01*
G75*
G02*
X132750000Y-135895000I0J115000D01*
G01*
X132750000Y-135605000D01*
G75*
G02*
X132865000Y-135490000I115000J0D01*
G01*
X133095000Y-135490000D01*
G75*
G02*
X133210000Y-135605000I0J-115000D01*
G01*
G37*
%TD*%
%TO.C,C219*%
G36*
G01*
X137730000Y-135605000D02*
X137730000Y-135895000D01*
G75*
G02*
X137615000Y-136010000I-115000J0D01*
G01*
X137385000Y-136010000D01*
G75*
G02*
X137270000Y-135895000I0J115000D01*
G01*
X137270000Y-135605000D01*
G75*
G02*
X137385000Y-135490000I115000J0D01*
G01*
X137615000Y-135490000D01*
G75*
G02*
X137730000Y-135605000I0J-115000D01*
G01*
G37*
G36*
G01*
X138690000Y-135605000D02*
X138690000Y-135895000D01*
G75*
G02*
X138575000Y-136010000I-115000J0D01*
G01*
X138345000Y-136010000D01*
G75*
G02*
X138230000Y-135895000I0J115000D01*
G01*
X138230000Y-135605000D01*
G75*
G02*
X138345000Y-135490000I115000J0D01*
G01*
X138575000Y-135490000D01*
G75*
G02*
X138690000Y-135605000I0J-115000D01*
G01*
G37*
%TD*%
%TO.C,C218*%
G36*
G01*
X151730000Y-135605000D02*
X151730000Y-135895000D01*
G75*
G02*
X151615000Y-136010000I-115000J0D01*
G01*
X151385000Y-136010000D01*
G75*
G02*
X151270000Y-135895000I0J115000D01*
G01*
X151270000Y-135605000D01*
G75*
G02*
X151385000Y-135490000I115000J0D01*
G01*
X151615000Y-135490000D01*
G75*
G02*
X151730000Y-135605000I0J-115000D01*
G01*
G37*
G36*
G01*
X152690000Y-135605000D02*
X152690000Y-135895000D01*
G75*
G02*
X152575000Y-136010000I-115000J0D01*
G01*
X152345000Y-136010000D01*
G75*
G02*
X152230000Y-135895000I0J115000D01*
G01*
X152230000Y-135605000D01*
G75*
G02*
X152345000Y-135490000I115000J0D01*
G01*
X152575000Y-135490000D01*
G75*
G02*
X152690000Y-135605000I0J-115000D01*
G01*
G37*
%TD*%
%TO.C,C217*%
G36*
G01*
X148250000Y-135895000D02*
X148250000Y-135605000D01*
G75*
G02*
X148365000Y-135490000I115000J0D01*
G01*
X148595000Y-135490000D01*
G75*
G02*
X148710000Y-135605000I0J-115000D01*
G01*
X148710000Y-135895000D01*
G75*
G02*
X148595000Y-136010000I-115000J0D01*
G01*
X148365000Y-136010000D01*
G75*
G02*
X148250000Y-135895000I0J115000D01*
G01*
G37*
G36*
G01*
X147290000Y-135895000D02*
X147290000Y-135605000D01*
G75*
G02*
X147405000Y-135490000I115000J0D01*
G01*
X147635000Y-135490000D01*
G75*
G02*
X147750000Y-135605000I0J-115000D01*
G01*
X147750000Y-135895000D01*
G75*
G02*
X147635000Y-136010000I-115000J0D01*
G01*
X147405000Y-136010000D01*
G75*
G02*
X147290000Y-135895000I0J115000D01*
G01*
G37*
%TD*%
%TO.C,C216*%
G36*
G01*
X165750000Y-135605000D02*
X165750000Y-135895000D01*
G75*
G02*
X165635000Y-136010000I-115000J0D01*
G01*
X165405000Y-136010000D01*
G75*
G02*
X165290000Y-135895000I0J115000D01*
G01*
X165290000Y-135605000D01*
G75*
G02*
X165405000Y-135490000I115000J0D01*
G01*
X165635000Y-135490000D01*
G75*
G02*
X165750000Y-135605000I0J-115000D01*
G01*
G37*
G36*
G01*
X166710000Y-135605000D02*
X166710000Y-135895000D01*
G75*
G02*
X166595000Y-136010000I-115000J0D01*
G01*
X166365000Y-136010000D01*
G75*
G02*
X166250000Y-135895000I0J115000D01*
G01*
X166250000Y-135605000D01*
G75*
G02*
X166365000Y-135490000I115000J0D01*
G01*
X166595000Y-135490000D01*
G75*
G02*
X166710000Y-135605000I0J-115000D01*
G01*
G37*
%TD*%
%TO.C,C215*%
G36*
G01*
X162230000Y-135895000D02*
X162230000Y-135605000D01*
G75*
G02*
X162345000Y-135490000I115000J0D01*
G01*
X162575000Y-135490000D01*
G75*
G02*
X162690000Y-135605000I0J-115000D01*
G01*
X162690000Y-135895000D01*
G75*
G02*
X162575000Y-136010000I-115000J0D01*
G01*
X162345000Y-136010000D01*
G75*
G02*
X162230000Y-135895000I0J115000D01*
G01*
G37*
G36*
G01*
X161270000Y-135895000D02*
X161270000Y-135605000D01*
G75*
G02*
X161385000Y-135490000I115000J0D01*
G01*
X161615000Y-135490000D01*
G75*
G02*
X161730000Y-135605000I0J-115000D01*
G01*
X161730000Y-135895000D01*
G75*
G02*
X161615000Y-136010000I-115000J0D01*
G01*
X161385000Y-136010000D01*
G75*
G02*
X161270000Y-135895000I0J115000D01*
G01*
G37*
%TD*%
%TO.C,C214*%
G36*
G01*
X134250000Y-132445000D02*
X134250000Y-132155000D01*
G75*
G02*
X134365000Y-132040000I115000J0D01*
G01*
X134595000Y-132040000D01*
G75*
G02*
X134710000Y-132155000I0J-115000D01*
G01*
X134710000Y-132445000D01*
G75*
G02*
X134595000Y-132560000I-115000J0D01*
G01*
X134365000Y-132560000D01*
G75*
G02*
X134250000Y-132445000I0J115000D01*
G01*
G37*
G36*
G01*
X133290000Y-132445000D02*
X133290000Y-132155000D01*
G75*
G02*
X133405000Y-132040000I115000J0D01*
G01*
X133635000Y-132040000D01*
G75*
G02*
X133750000Y-132155000I0J-115000D01*
G01*
X133750000Y-132445000D01*
G75*
G02*
X133635000Y-132560000I-115000J0D01*
G01*
X133405000Y-132560000D01*
G75*
G02*
X133290000Y-132445000I0J115000D01*
G01*
G37*
%TD*%
%TO.C,C213*%
G36*
G01*
X137750000Y-132205000D02*
X137750000Y-132495000D01*
G75*
G02*
X137635000Y-132610000I-115000J0D01*
G01*
X137405000Y-132610000D01*
G75*
G02*
X137290000Y-132495000I0J115000D01*
G01*
X137290000Y-132205000D01*
G75*
G02*
X137405000Y-132090000I115000J0D01*
G01*
X137635000Y-132090000D01*
G75*
G02*
X137750000Y-132205000I0J-115000D01*
G01*
G37*
G36*
G01*
X138710000Y-132205000D02*
X138710000Y-132495000D01*
G75*
G02*
X138595000Y-132610000I-115000J0D01*
G01*
X138365000Y-132610000D01*
G75*
G02*
X138250000Y-132495000I0J115000D01*
G01*
X138250000Y-132205000D01*
G75*
G02*
X138365000Y-132090000I115000J0D01*
G01*
X138595000Y-132090000D01*
G75*
G02*
X138710000Y-132205000I0J-115000D01*
G01*
G37*
%TD*%
%TO.C,C212*%
G36*
G01*
X148250000Y-132345000D02*
X148250000Y-132055000D01*
G75*
G02*
X148365000Y-131940000I115000J0D01*
G01*
X148595000Y-131940000D01*
G75*
G02*
X148710000Y-132055000I0J-115000D01*
G01*
X148710000Y-132345000D01*
G75*
G02*
X148595000Y-132460000I-115000J0D01*
G01*
X148365000Y-132460000D01*
G75*
G02*
X148250000Y-132345000I0J115000D01*
G01*
G37*
G36*
G01*
X147290000Y-132345000D02*
X147290000Y-132055000D01*
G75*
G02*
X147405000Y-131940000I115000J0D01*
G01*
X147635000Y-131940000D01*
G75*
G02*
X147750000Y-132055000I0J-115000D01*
G01*
X147750000Y-132345000D01*
G75*
G02*
X147635000Y-132460000I-115000J0D01*
G01*
X147405000Y-132460000D01*
G75*
G02*
X147290000Y-132345000I0J115000D01*
G01*
G37*
%TD*%
%TO.C,C211*%
G36*
G01*
X151750000Y-132255000D02*
X151750000Y-132545000D01*
G75*
G02*
X151635000Y-132660000I-115000J0D01*
G01*
X151405000Y-132660000D01*
G75*
G02*
X151290000Y-132545000I0J115000D01*
G01*
X151290000Y-132255000D01*
G75*
G02*
X151405000Y-132140000I115000J0D01*
G01*
X151635000Y-132140000D01*
G75*
G02*
X151750000Y-132255000I0J-115000D01*
G01*
G37*
G36*
G01*
X152710000Y-132255000D02*
X152710000Y-132545000D01*
G75*
G02*
X152595000Y-132660000I-115000J0D01*
G01*
X152365000Y-132660000D01*
G75*
G02*
X152250000Y-132545000I0J115000D01*
G01*
X152250000Y-132255000D01*
G75*
G02*
X152365000Y-132140000I115000J0D01*
G01*
X152595000Y-132140000D01*
G75*
G02*
X152710000Y-132255000I0J-115000D01*
G01*
G37*
%TD*%
%TO.C,C210*%
G36*
G01*
X162270000Y-132395000D02*
X162270000Y-132105000D01*
G75*
G02*
X162385000Y-131990000I115000J0D01*
G01*
X162615000Y-131990000D01*
G75*
G02*
X162730000Y-132105000I0J-115000D01*
G01*
X162730000Y-132395000D01*
G75*
G02*
X162615000Y-132510000I-115000J0D01*
G01*
X162385000Y-132510000D01*
G75*
G02*
X162270000Y-132395000I0J115000D01*
G01*
G37*
G36*
G01*
X161310000Y-132395000D02*
X161310000Y-132105000D01*
G75*
G02*
X161425000Y-131990000I115000J0D01*
G01*
X161655000Y-131990000D01*
G75*
G02*
X161770000Y-132105000I0J-115000D01*
G01*
X161770000Y-132395000D01*
G75*
G02*
X161655000Y-132510000I-115000J0D01*
G01*
X161425000Y-132510000D01*
G75*
G02*
X161310000Y-132395000I0J115000D01*
G01*
G37*
%TD*%
%TO.C,C209*%
G36*
G01*
X165750000Y-132095000D02*
X165750000Y-132385000D01*
G75*
G02*
X165635000Y-132500000I-115000J0D01*
G01*
X165405000Y-132500000D01*
G75*
G02*
X165290000Y-132385000I0J115000D01*
G01*
X165290000Y-132095000D01*
G75*
G02*
X165405000Y-131980000I115000J0D01*
G01*
X165635000Y-131980000D01*
G75*
G02*
X165750000Y-132095000I0J-115000D01*
G01*
G37*
G36*
G01*
X166710000Y-132095000D02*
X166710000Y-132385000D01*
G75*
G02*
X166595000Y-132500000I-115000J0D01*
G01*
X166365000Y-132500000D01*
G75*
G02*
X166250000Y-132385000I0J115000D01*
G01*
X166250000Y-132095000D01*
G75*
G02*
X166365000Y-131980000I115000J0D01*
G01*
X166595000Y-131980000D01*
G75*
G02*
X166710000Y-132095000I0J-115000D01*
G01*
G37*
%TD*%
M02*
