M48
; DRILL file {KiCad (5.1.8-0-10_14)} date Wednesday, February 17, 2021 at 10:46:02 AM
; FORMAT={-:-/ absolute / inch / decimal}
; #@! TF.CreationDate,2021-02-17T10:46:02+00:00
; #@! TF.GenerationSoftware,Kicad,Pcbnew,(5.1.8-0-10_14)
; #@! TF.FileFunction,Plated,1,4,PTH
FMAT,2
INCH
T1C0.0079
T2C0.0236
T3C0.0394
%
G90
G05
T1
X4.1055Y-3.6805
X4.1055Y-3.7805
X4.1055Y-3.9055
X4.1055Y-4.0055
X4.1055Y-4.1055
X4.1055Y-4.2055
X4.1055Y-4.3055
X4.1055Y-4.4055
X4.1055Y-4.5055
X4.1055Y-4.6055
X4.1055Y-4.7055
X4.1055Y-4.8055
X4.1055Y-4.9055
X4.1055Y-5.0055
X4.1055Y-5.1055
X4.1055Y-5.2055
X4.1055Y-5.3055
X4.1055Y-5.4055
X4.1055Y-5.5055
X4.1055Y-5.6055
X4.124Y-3.4677
X4.124Y-3.5307
X4.124Y-3.5937
X4.1805Y-3.6555
X4.2055Y-5.4055
X4.2055Y-5.5055
X4.2055Y-5.6055
X4.2055Y-5.7055
X4.2313Y-4.6855
X4.2313Y-4.7105
X4.2313Y-4.7355
X4.2563Y-4.6855
X4.2563Y-4.7105
X4.2563Y-4.7355
X4.2805Y-3.6555
X4.2813Y-4.6855
X4.2813Y-4.7105
X4.2813Y-4.7355
X4.2992Y-5.748
X4.3055Y-5.4055
X4.3055Y-5.6055
X4.3063Y-4.6855
X4.3063Y-4.7105
X4.3063Y-4.7355
X4.3307Y-5.7736
X4.3313Y-4.6855
X4.3313Y-4.7105
X4.3313Y-4.7355
X4.3443Y-5.0591
X4.3563Y-4.6855
X4.3563Y-4.7105
X4.3563Y-4.7355
X4.3591Y-4.7608
X4.3797Y-4.9193
X4.3805Y-3.6555
X4.3984Y-5.5364
X4.4055Y-5.6555
X4.4055Y-5.7305
X4.4073Y-5.0669
X4.4152Y-5.1654
X4.4191Y-5.0472
X4.425Y-3.975
X4.425Y-4.025
X4.425Y-4.075
X4.425Y-4.125
X4.425Y-4.175
X4.425Y-4.225
X4.425Y-4.275
X4.425Y-4.325
X4.425Y-4.375
X4.425Y-4.425
X4.425Y-4.475
X4.425Y-4.525
X4.425Y-4.575
X4.425Y-4.625
X4.4255Y-3.9355
X4.4291Y-5.187
X4.4427Y-5.1654
X4.4488Y-5.7736
X4.4545Y-5.0
X4.4587Y-5.187
X4.4655Y-3.9355
X4.4703Y-5.0906
X4.4703Y-5.1142
X4.4703Y-5.1378
X4.4703Y-5.1654
X4.4805Y-3.6555
X4.4805Y-4.7805
X4.4805Y-4.8055
X4.4805Y-4.8305
X4.4805Y-4.8555
X4.4805Y-4.8805
X4.4805Y-4.9055
X4.4805Y-5.6555
X4.4882Y-5.187
X4.4961Y-5.7323
X4.5Y-3.935
X4.5037Y-4.9764
X4.5055Y-4.0055
X4.5055Y-4.1055
X4.5055Y-4.2055
X4.5055Y-4.3055
X4.5055Y-4.4055
X4.5055Y-4.5055
X4.5055Y-4.6055
X4.5055Y-4.7805
X4.5055Y-4.8055
X4.5055Y-4.8305
X4.5055Y-4.8555
X4.5055Y-4.8805
X4.5055Y-4.9055
X4.5305Y-4.7805
X4.5305Y-4.8055
X4.5305Y-4.8305
X4.5305Y-4.8555
X4.5305Y-4.8805
X4.5305Y-4.9055
X4.5333Y-5.1181
X4.5354Y-5.4488
X4.5354Y-5.4738
X4.5354Y-5.4988
X4.5472Y-5.7736
X4.55Y-3.935
X4.5604Y-5.4488
X4.5604Y-5.4738
X4.5604Y-5.4988
X4.5805Y-3.6555
X4.5854Y-5.4488
X4.5854Y-5.4738
X4.5854Y-5.4988
X4.5906Y-5.2205
X4.5906Y-5.2455
X4.5906Y-5.2705
X4.6Y-3.935
X4.6055Y-4.0055
X4.6055Y-4.1055
X4.6055Y-4.2055
X4.6055Y-4.3055
X4.6055Y-4.4055
X4.6055Y-4.5055
X4.6055Y-4.6055
X4.6063Y-4.685
X4.6063Y-4.71
X4.6063Y-4.735
X4.6104Y-5.4488
X4.6104Y-5.4738
X4.6104Y-5.4988
X4.6156Y-5.2205
X4.6156Y-5.2455
X4.6156Y-5.2705
X4.6313Y-4.685
X4.6313Y-4.71
X4.6313Y-4.735
X4.6354Y-5.4488
X4.6354Y-5.4738
X4.6354Y-5.4988
X4.6406Y-5.2205
X4.6406Y-5.2455
X4.6406Y-5.2705
X4.65Y-3.935
X4.6563Y-4.685
X4.6563Y-4.71
X4.6563Y-4.735
X4.6604Y-5.4488
X4.6604Y-5.4738
X4.6604Y-5.4988
X4.6656Y-5.2205
X4.6656Y-5.2455
X4.6656Y-5.2705
X4.6805Y-3.6555
X4.6813Y-4.685
X4.6813Y-4.71
X4.6813Y-4.735
X4.6906Y-5.2205
X4.6906Y-5.2455
X4.6906Y-5.2705
X4.7Y-3.935
X4.7063Y-4.685
X4.7063Y-4.71
X4.7063Y-4.735
X4.7156Y-5.2205
X4.7156Y-5.2455
X4.7156Y-5.2705
X4.7313Y-4.685
X4.7313Y-4.71
X4.7313Y-4.735
X4.7341Y-5.0591
X4.75Y-3.935
X4.7555Y-5.6555
X4.7555Y-5.6805
X4.7555Y-5.7055
X4.7555Y-5.7305
X4.7606Y-4.7648
X4.7695Y-4.9193
X4.7805Y-3.6555
X4.7805Y-5.6555
X4.7805Y-5.6805
X4.7805Y-5.7055
X4.7805Y-5.7305
X4.7931Y-5.0669
X4.8Y-3.935
X4.8031Y-5.2205
X4.8031Y-5.2455
X4.8031Y-5.2705
X4.8049Y-5.1614
X4.8055Y-5.6555
X4.8055Y-5.6805
X4.8055Y-5.7055
X4.8055Y-5.7305
X4.8077Y-4.2642
X4.8077Y-4.2959
X4.8089Y-5.0472
X4.8092Y-4.5866
X4.825Y-4.7
X4.8281Y-5.2205
X4.8281Y-5.2455
X4.8281Y-5.2705
X4.8305Y-5.6555
X4.8305Y-5.6805
X4.8305Y-5.7055
X4.8305Y-5.7305
X4.8325Y-5.1614
X4.8328Y-4.563
X4.8328Y-3.9961
X4.8404Y-5.0
X4.85Y-3.935
X4.8531Y-5.2205
X4.8531Y-5.2455
X4.8531Y-5.2705
X4.8533Y-3.9766
X4.8564Y-4.0197
X4.8564Y-4.5394
X4.8564Y-4.5866
X4.86Y-5.0906
X4.86Y-5.1142
X4.86Y-5.1378
X4.86Y-5.1614
X4.8655Y-4.7805
X4.8655Y-4.8055
X4.8655Y-4.8305
X4.8655Y-4.8555
X4.8655Y-4.8805
X4.8655Y-4.9055
X4.875Y-4.7
X4.8781Y-5.2205
X4.8781Y-5.2455
X4.8781Y-5.2705
X4.88Y-3.9961
X4.88Y-4.0433
X4.88Y-4.5157
X4.88Y-4.563
X4.8805Y-3.6555
X4.8905Y-4.7805
X4.8905Y-4.8055
X4.8905Y-4.8305
X4.8905Y-4.8555
X4.8905Y-4.8805
X4.8905Y-4.9055
X4.8955Y-4.9764
X4.9Y-3.935
X4.9031Y-5.2205
X4.9031Y-5.2455
X4.9031Y-5.2705
X4.9036Y-4.0197
X4.9036Y-4.0669
X4.9036Y-4.4921
X4.9036Y-4.5394
X4.9155Y-4.7805
X4.9155Y-4.8055
X4.9155Y-4.8305
X4.9155Y-4.8555
X4.9155Y-4.8805
X4.9155Y-4.9055
X4.925Y-4.7
X4.927Y-5.122
X4.9273Y-4.0433
X4.9273Y-4.0906
X4.9273Y-4.4685
X4.9273Y-4.5157
X4.9281Y-5.2205
X4.9281Y-5.2455
X4.9281Y-5.2705
X4.9409Y-5.7736
X4.95Y-3.935
X4.9509Y-4.0669
X4.9509Y-4.1142
X4.9509Y-4.4449
X4.9509Y-4.4921
X4.974Y-4.4217
X4.9745Y-4.0906
X4.9745Y-4.1378
X4.9745Y-4.4685
X4.9805Y-3.6555
X4.9805Y-5.6555
X4.9981Y-4.1142
X4.9981Y-4.1614
X4.9981Y-4.3976
X4.9981Y-4.4449
X4.9996Y-4.2642
X4.9996Y-4.2952
X5.0Y-3.935
X5.0Y-5.0
X5.0Y-5.56
X5.0Y-5.748
X5.0055Y-4.7055
X5.0055Y-4.8055
X5.0055Y-4.9055
X5.0217Y-4.2795
X5.0217Y-4.3287
X5.0217Y-4.4213
X5.0218Y-4.1378
X5.0218Y-4.185
X5.0218Y-4.374
X5.0236Y-4.2323
X5.025Y-5.1
X5.025Y-5.47
X5.0394Y-4.3543
X5.0394Y-4.1614
X5.0394Y-4.2047
X5.0394Y-4.2559
X5.0394Y-4.3051
X5.0394Y-4.3917
X5.0394Y-5.7736
X5.045Y-5.56
X5.05Y-3.935
X5.0655Y-3.0055
X5.0663Y-2.9528
X5.0709Y-5.6693
X5.0805Y-3.6555
X5.1Y-3.935
X5.1024Y-5.748
X5.1055Y-4.7055
X5.1055Y-5.0055
X5.1168Y-4.2642
X5.1168Y-4.2959
X5.1183Y-4.5866
X5.12Y-5.54
X5.1378Y-5.7736
X5.1419Y-4.563
X5.1419Y-3.9961
X5.1476Y-5.0591
X5.15Y-3.05
X5.15Y-3.935
X5.1575Y-5.685
X5.1656Y-4.0197
X5.1656Y-4.5394
X5.1656Y-4.5866
X5.1658Y-3.9722
X5.1805Y-3.6555
X5.187Y-5.1772
X5.187Y-5.374
X5.1892Y-3.9961
X5.1892Y-4.0433
X5.1892Y-4.5157
X5.1892Y-4.563
X5.1905Y-2.9055
X5.2Y-3.935
X5.2055Y-3.1055
X5.2055Y-4.7055
X5.2055Y-4.9055
X5.2126Y-5.7323
X5.2128Y-4.0197
X5.2128Y-4.0669
X5.2128Y-4.4921
X5.2128Y-4.5394
X5.2145Y-2.9522
X5.2362Y-5.7736
X5.2364Y-4.0433
X5.2364Y-4.0906
X5.2364Y-4.4685
X5.2364Y-4.5157
X5.2461Y-5.1772
X5.2461Y-5.374
X5.25Y-3.15
X5.25Y-3.935
X5.2555Y-3.3555
X5.26Y-4.0669
X5.26Y-4.1142
X5.26Y-4.4449
X5.26Y-4.4921
X5.2657Y-5.0197
X5.2657Y-5.3445
X5.2756Y-5.2421
X5.2805Y-3.6555
X5.2831Y-4.1373
X5.2832Y-4.4217
X5.2837Y-4.0906
X5.2837Y-4.4685
X5.2854Y-3.5295
X5.2966Y-5.3445
X5.2992Y-5.7402
X5.3Y-3.935
X5.3051Y-5.1772
X5.3051Y-5.374
X5.3055Y-4.1592
X5.3055Y-3.2055
X5.3055Y-3.4555
X5.3055Y-4.7055
X5.3055Y-4.8055
X5.3073Y-4.1142
X5.3073Y-4.3976
X5.3073Y-4.4449
X5.3084Y-4.2648
X5.3087Y-4.2954
X5.3169Y-5.2421
X5.3248Y-5.0197
X5.3268Y-4.2795
X5.3273Y-4.1816
X5.3301Y-4.4226
X5.3308Y-4.1379
X5.3319Y-4.373
X5.3337Y-4.3273
X5.3346Y-5.7736
X5.3405Y-2.9055
X5.344Y-4.2249
X5.3445Y-4.1988
X5.3445Y-4.2539
X5.3445Y-4.3524
X5.3465Y-4.3012
X5.3465Y-4.3937
X5.3504Y-4.5709
X5.3504Y-4.5945
X5.3642Y-5.0197
X5.3658Y-2.9527
X5.3661Y-4.6102
X5.3675Y-3.9414
X5.3805Y-3.6555
X5.3898Y-4.6102
X5.4035Y-5.1772
X5.4035Y-5.374
X5.4055Y-3.2055
X5.4055Y-3.4555
X5.4055Y-4.7055
X5.4102Y-3.9262
X5.4213Y-4.6102
X5.4232Y-5.0197
X5.4299Y-4.0285
X5.4299Y-4.5325
X5.4331Y-5.7736
X5.4449Y-4.6102
X5.4535Y-4.0285
X5.4535Y-4.5325
X5.4542Y-3.943
X5.4606Y-4.5709
X5.4606Y-4.5945
X5.4626Y-5.1772
X5.4626Y-5.374
X5.4755Y-3.2055
X5.4755Y-3.3055
X5.4755Y-3.4055
X5.4811Y-5.0197
X5.485Y-3.9301
X5.4905Y-2.9055
X5.5055Y-5.7305
X5.5162Y-3.9414
X5.5165Y-4.0915
X5.5165Y-4.123
X5.5165Y-4.1545
X5.5165Y-4.186
X5.5165Y-4.2175
X5.5165Y-4.3435
X5.5165Y-4.375
X5.5165Y-4.4065
X5.5165Y-4.438
X5.5165Y-4.4695
X5.5217Y-5.1772
X5.5217Y-5.374
X5.5276Y-3.6535
X5.5276Y-3.6732
X5.5315Y-5.7736
X5.5347Y-2.9451
X5.5413Y-5.0197
X5.548Y-4.06
X5.548Y-4.0915
X5.548Y-4.123
X5.548Y-4.1545
X5.548Y-4.186
X5.548Y-4.2175
X5.548Y-4.3435
X5.548Y-4.375
X5.548Y-4.4065
X5.548Y-4.438
X5.548Y-4.4695
X5.548Y-4.501
X5.5521Y-3.7008
X5.5551Y-3.5079
X5.5589Y-3.8898
X5.5721Y-3.203
X5.5721Y-3.2423
X5.5741Y-2.9451
X5.5768Y-3.9587
X5.5787Y-3.5079
X5.5795Y-4.0915
X5.5795Y-4.123
X5.5795Y-4.438
X5.5795Y-4.4695
X5.5805Y-5.6555
X5.5886Y-3.7008
X5.5895Y-3.8898
X5.5984Y-3.5315
X5.5984Y-3.5551
X5.6011Y-3.3465
X5.6055Y-5.5055
X5.6055Y-5.7305
X5.611Y-4.0915
X5.611Y-4.123
X5.611Y-4.438
X5.611Y-4.4695
X5.6181Y-3.9587
X5.625Y-5.03
X5.6299Y-3.6417
X5.6299Y-5.7736
X5.6336Y-3.9259
X5.6425Y-4.0915
X5.6425Y-4.123
X5.6425Y-4.2175
X5.6425Y-4.249
X5.6425Y-4.2805
X5.6425Y-4.312
X5.6425Y-4.3435
X5.6425Y-4.438
X5.6425Y-4.4695
X5.6555Y-5.6805
X5.6562Y-3.2008
X5.6628Y-3.9414
X5.674Y-4.0915
X5.674Y-4.123
X5.674Y-4.186
X5.674Y-4.2175
X5.674Y-4.249
X5.674Y-4.312
X5.674Y-4.3435
X5.674Y-4.438
X5.674Y-4.4695
X5.685Y-5.7559
X5.6898Y-3.997
X5.6898Y-4.0207
X5.6898Y-4.5404
X5.6898Y-4.564
X5.6937Y-3.9262
X5.6956Y-3.2008
X5.6988Y-5.0197
X5.7055Y-4.186
X5.7055Y-4.249
X5.7055Y-4.312
X5.7055Y-4.3435
X5.7283Y-5.7736
X5.7363Y-3.9416
X5.737Y-4.0915
X5.737Y-4.123
X5.737Y-4.2175
X5.737Y-4.249
X5.737Y-4.312
X5.737Y-4.3435
X5.737Y-4.438
X5.737Y-4.4695
X5.7382Y-5.1772
X5.7382Y-5.374
X5.7555Y-5.7305
X5.7579Y-5.0197
X5.7646Y-3.9262
X5.7685Y-4.0915
X5.7685Y-4.123
X5.7685Y-4.2175
X5.7685Y-4.249
X5.7685Y-4.312
X5.7685Y-4.3435
X5.7685Y-4.4065
X5.7685Y-4.438
X5.7685Y-4.4695
X5.7756Y-3.4921
X5.7804Y-2.9454
X5.7913Y-3.9488
X5.7972Y-5.1772
X5.7972Y-5.374
X5.8Y-4.186
X5.8Y-4.2175
X5.8Y-4.2805
X5.8Y-4.312
X5.8Y-4.3435
X5.8Y-4.438
X5.8Y-4.4695
X5.8098Y-3.6959
X5.8169Y-5.0197
X5.8268Y-5.7736
X5.8307Y-4.7874
X5.8315Y-4.375
X5.8315Y-4.4065
X5.8315Y-4.438
X5.8315Y-4.4695
X5.8531Y-3.7195
X5.8551Y-5.0561
X5.8555Y-3.7555
X5.8555Y-5.7305
X5.8563Y-5.1772
X5.8563Y-5.374
X5.8591Y-3.7923
X5.863Y-4.06
X5.863Y-4.2175
X5.863Y-4.249
X5.863Y-4.312
X5.863Y-4.375
X5.863Y-4.438
X5.863Y-4.4695
X5.863Y-4.501
X5.867Y-2.9467
X5.8748Y-3.6781
X5.876Y-5.0197
X5.8945Y-3.6604
X5.8945Y-4.2175
X5.8945Y-4.249
X5.8945Y-4.312
X5.8945Y-4.375
X5.8945Y-4.4065
X5.8945Y-4.438
X5.8945Y-4.4695
X5.9122Y-3.7608
X5.9154Y-5.0197
X5.9252Y-5.7736
X5.9255Y-3.3055
X5.9378Y-3.7352
X5.9547Y-5.1772
X5.9547Y-5.374
X5.9555Y-3.873
X5.9555Y-3.9006
X5.9555Y-5.6555
X5.9555Y-5.7305
X5.9575Y-3.9341
X5.9575Y-3.9636
X5.9575Y-4.0285
X5.9575Y-4.5325
X5.9605Y-3.7166
X5.9646Y-4.1654
X5.9654Y-4.3909
X5.9724Y-4.5472
X5.9732Y-4.0128
X5.9744Y-5.0197
X5.9757Y-3.1833
X5.9757Y-3.2128
X5.9803Y-4.1496
X5.9831Y-3.6978
X5.9835Y-2.9461
X5.989Y-4.3907
X6.0039Y-4.9606
X6.0055Y-3.6055
X6.0079Y-4.2047
X6.0087Y-4.2805
X6.0112Y-2.9461
X6.0138Y-5.1772
X6.0138Y-5.374
X6.0197Y-3.8701
X6.0197Y-3.8937
X6.0197Y-3.9341
X6.0197Y-3.9616
X6.0205Y-4.3898
X6.0236Y-5.7736
X6.0255Y-3.4055
X6.0323Y-4.2805
X6.0335Y-5.0197
X6.0472Y-4.3898
X6.0531Y-4.9803
X6.0555Y-5.6555
X6.0555Y-5.7305
X6.0669Y-2.8839
X6.0728Y-5.1772
X6.0728Y-5.374
X6.0748Y-4.3898
X6.0787Y-4.2756
X6.0787Y-5.252
X6.0827Y-3.5055
X6.0827Y-3.6055
X6.0827Y-5.3445
X6.0827Y-3.8504
X6.0906Y-4.126
X6.0906Y-4.1654
X6.0906Y-4.2047
X6.0925Y-5.7736
X6.1024Y-4.2756
X6.1024Y-4.4252
X6.1063Y-4.4882
X6.1102Y-3.8504
X6.1143Y-5.5491
X6.122Y-5.3445
X6.126Y-5.252
X6.1327Y-4.2805
X6.1346Y-4.3278
X6.1378Y-3.8504
X6.1378Y-4.2165
X6.1575Y-5.5276
X6.1654Y-3.8504
X6.1654Y-4.3858
X6.1661Y-4.3061
X6.1732Y-5.7559
X6.1839Y-4.3297
X6.189Y-5.4213
X6.2094Y-4.3907
X6.2094Y-4.4144
X6.2094Y-4.438
X6.2094Y-4.4656
X6.2094Y-4.4892
X6.2094Y-4.5128
X6.2205Y-5.7736
X6.2331Y-4.3907
X6.2331Y-4.4144
X6.2331Y-4.438
X6.2331Y-4.4656
X6.2331Y-4.4892
X6.2331Y-4.5128
X6.2555Y-4.1055
X6.2555Y-4.1555
X6.2555Y-4.3055
X6.2555Y-5.6555
X6.2555Y-5.7305
X6.2697Y-4.9803
X6.2756Y-3.9116
X6.2894Y-5.1772
X6.2894Y-5.374
X6.2992Y-2.8829
X6.3055Y-4.5805
X6.3055Y-4.6305
X6.3055Y-4.5443
X6.3091Y-4.9705
X6.3189Y-5.7736
X6.3484Y-5.1772
X6.3484Y-5.374
X6.3555Y-4.1055
X6.3555Y-4.1555
X6.3555Y-4.3055
X6.3555Y-5.6555
X6.3555Y-5.7305
X6.3661Y-4.0276
X6.3681Y-4.9606
X6.3937Y-4.0551
X6.3937Y-3.1102
X6.3984Y-4.3986
X6.4055Y-3.5055
X6.4055Y-3.6055
X6.4055Y-3.7055
X6.4055Y-3.8055
X6.4075Y-4.9508
X6.4075Y-5.1772
X6.4075Y-5.374
X6.4154Y-3.1102
X6.4173Y-5.7736
X6.437Y-5.2264
X6.4457Y-4.9459
X6.4457Y-4.9695
X6.4555Y-4.1555
X6.4555Y-4.3055
X6.4555Y-5.6555
X6.4555Y-5.7305
X6.4567Y-5.3445
X6.4665Y-4.9311
X6.4783Y-3.0443
X6.4839Y-3.413
X6.4862Y-5.2264
X6.4862Y-5.3445
X6.5055Y-3.6055
X6.5055Y-3.7055
X6.5055Y-3.8055
X6.5055Y-4.5555
X6.5055Y-4.6305
X6.5059Y-5.1772
X6.5059Y-5.374
X6.5157Y-5.7736
X6.5197Y-4.2913
X6.5374Y-3.0217
X6.5374Y-3.2096
X6.5374Y-3.2343
X6.5551Y-4.3287
X6.5555Y-5.6805
X6.5555Y-5.7305
X6.5598Y-4.3907
X6.5598Y-4.4144
X6.5598Y-4.438
X6.5598Y-4.4656
X6.5598Y-4.4892
X6.5598Y-4.5128
X6.5638Y-5.0364
X6.5638Y-5.06
X6.565Y-5.1772
X6.565Y-5.374
X6.5835Y-4.3907
X6.5835Y-4.4144
X6.5835Y-4.438
X6.5835Y-4.4656
X6.5835Y-4.4892
X6.5835Y-4.5128
X6.5839Y-3.413
X6.5866Y-4.248
X6.5965Y-3.0443
X6.6055Y-3.6055
X6.6055Y-3.7055
X6.6055Y-3.8055
X6.6142Y-5.7736
X6.6189Y-5.2333
X6.6189Y-5.2963
X6.624Y-5.1772
X6.624Y-5.374
X6.6417Y-3.1112
X6.6437Y-4.9234
X6.6535Y-4.0669
X6.6535Y-4.1181
X6.6535Y-4.1457
X6.6535Y-4.252
X6.6535Y-4.2244
X6.6537Y-4.1969
X6.6543Y-4.1725
X6.6555Y-5.6555
X6.6555Y-5.7305
X6.6614Y-3.1112
X6.6766Y-5.7717
X6.6811Y-5.5315
X6.7055Y-3.6055
X6.7055Y-4.4055
X6.7055Y-4.5055
X6.7291Y-5.2333
X6.7291Y-5.2963
X6.748Y-3.7165
X6.7555Y-5.6555
X6.7555Y-5.7305
X6.7742Y-3.7738
X6.7742Y-3.8033
X6.7742Y-4.0789
X6.7742Y-4.1183
X6.7742Y-3.8427
X6.775Y-5.7717
X6.7992Y-5.4843
X6.7992Y-5.5157
X6.8031Y-3.9803
X6.8031Y-5.5551
X6.8055Y-3.5055
X6.8055Y-4.4055
X6.8055Y-4.7555
X6.8055Y-4.8555
X6.8055Y-5.6555
X6.8071Y-5.0039
X6.8228Y-3.0236
X6.8228Y-3.063
X6.8346Y-5.4843
X6.8423Y-3.9409
X6.8425Y-4.0197
X6.8555Y-5.7305
X6.8824Y-4.1872
X6.9013Y-3.9492
X6.9016Y-4.0197
X6.9021Y-3.7738
X6.9055Y-3.0055
X6.9055Y-3.5055
X6.9055Y-3.6055
X6.9055Y-3.9055
X6.9055Y-4.4055
X6.9055Y-4.5055
X6.9055Y-4.6055
X6.9062Y-5.7679
X6.9213Y-4.0984
X6.9213Y-4.1378
X6.9218Y-4.1872
X6.9409Y-3.9803
X6.9415Y-3.7738
X6.9528Y-4.9291
X6.9547Y-5.0906
X6.9555Y-3.1055
X6.9555Y-5.1305
X6.9555Y-5.1555
X6.9555Y-5.3555
X6.9555Y-5.3805
X6.9555Y-5.6555
X6.9555Y-5.6805
X6.9555Y-5.7055
X6.9555Y-5.7305
X6.9805Y-5.6555
X6.9805Y-5.6805
X6.9805Y-5.7055
X6.9805Y-5.7305
X6.9907Y-3.6656
X6.9921Y-4.9606
X7.0055Y-3.0055
X7.0055Y-3.9055
X7.0055Y-4.0055
X7.0055Y-4.1055
X7.0055Y-5.6555
X7.0055Y-5.6805
X7.0055Y-5.7055
X7.0055Y-5.7305
X7.0202Y-3.6656
X7.0301Y-3.764
X7.0305Y-3.1805
X7.0305Y-5.6555
X7.0305Y-5.6805
X7.0305Y-5.7055
X7.0305Y-5.7305
X7.0498Y-3.6656
X7.0498Y-4.9943
X7.0694Y-3.764
X7.099Y-4.1872
X7.1055Y-3.0055
X7.1055Y-3.1055
X7.1055Y-3.9055
X7.1055Y-4.0055
X7.1055Y-4.1055
X7.1055Y-4.9055
X7.1088Y-3.764
X7.125Y-5.075
X7.125Y-5.375
X7.125Y-5.45
X7.125Y-5.525
X7.1305Y-3.2805
X7.1383Y-4.1872
X7.1555Y-4.3555
X7.1555Y-4.4555
X7.1555Y-4.6055
X7.1679Y-3.764
X7.175Y-5.075
X7.175Y-5.175
X7.175Y-5.25
X7.175Y-5.325
X7.1876Y-3.9805
X7.1876Y-4.0199
X7.1969Y-3.9116
X7.1969Y-3.9508
X7.1978Y-3.8726
X7.2055Y-3.1055
X7.225Y-5.075
X7.2305Y-3.3805
X7.2756Y-5.5748
X7.2855Y-5.0505
X7.2855Y-5.1905
X7.2953Y-4.0295
X7.2992Y-5.5748
X7.2992Y-5.5984
X7.3Y-5.3
X7.3Y-5.375
X7.3031Y-5.7736
X7.3055Y-3.5055
X7.3055Y-3.6055
X7.3055Y-4.5055
X7.3055Y-4.7055
X7.3055Y-5.0055
X7.3055Y-5.0505
X7.3055Y-5.1905
X7.3228Y-5.5748
X7.3228Y-5.5984
X7.3228Y-5.622
X7.3255Y-5.0505
X7.3255Y-5.1905
X7.3268Y-3.7717
X7.3305Y-4.2055
X7.3465Y-5.5748
X7.3465Y-5.5984
X7.3465Y-5.622
X7.3655Y-5.1905
X7.3701Y-5.5748
X7.3701Y-5.5984
X7.3701Y-5.622
X7.375Y-5.075
X7.3805Y-5.3055
X7.3805Y-5.3305
X7.3805Y-5.3555
X7.3855Y-5.1905
X7.3937Y-5.5984
X7.3937Y-5.622
X7.4016Y-5.7736
X7.4055Y-3.1055
X7.4055Y-3.2055
X7.4055Y-4.6055
X7.4055Y-4.8055
X7.4055Y-5.1905
X7.4055Y-5.3055
X7.4055Y-5.3305
X7.4055Y-5.3555
X7.4173Y-5.622
X7.425Y-5.075
X7.4405Y-5.1705
X7.4528Y-3.6181
X7.4631Y-3.9147
X7.4705Y-5.1705
X7.4828Y-3.9147
X7.4946Y-3.6926
X7.4961Y-5.063
X7.5Y-4.35
X7.5Y-5.7736
X7.5005Y-5.5105
X7.5055Y-3.2055
X7.5055Y-3.5055
X7.5055Y-3.6055
X7.5055Y-4.9055
X7.5197Y-5.0394
X7.525Y-5.6
X7.5305Y-5.5105
X7.5555Y-4.7305
X7.5805Y-4.2055
X7.6Y-4.425
X7.6Y-5.25
X7.6005Y-5.7736
X7.6055Y-3.2055
X7.6055Y-3.5055
X7.6055Y-5.0055
X7.6055Y-5.3005
X7.625Y-5.45
X7.625Y-5.5
X7.6255Y-5.3005
X7.6305Y-4.8055
X7.65Y-5.25
X7.6555Y-5.3005
X7.6654Y-3.1354
X7.6693Y-5.0906
X7.675Y-4.35
X7.675Y-5.65
X7.6755Y-5.3005
X7.7055Y-3.2055
X7.7055Y-3.3055
X7.7055Y-3.4055
X7.7055Y-4.9055
X7.7305Y-5.3855
X7.75Y-5.65
X7.7605Y-5.3855
X7.7638Y-5.3205
X7.7874Y-5.3205
X7.825Y-5.55
X7.825Y-5.65
T3
X7.2055Y-3.0354
X7.3055Y-3.0354
X7.5154Y-3.0354
X7.6154Y-3.0354
X7.7055Y-4.5055
X7.7055Y-4.6055
X7.7055Y-4.7055
X7.7055Y-4.8055
X7.8055Y-4.5055
X7.8055Y-4.6055
X7.8055Y-4.7055
X7.8055Y-4.8055
X7.7055Y-3.6055
X7.7055Y-3.7055
X7.7055Y-3.8055
X7.7055Y-3.9055
X7.7055Y-4.0055
X7.7055Y-4.1055
X7.7055Y-4.2055
X7.8055Y-3.6055
X7.8055Y-3.7055
X7.8055Y-3.8055
X7.8055Y-3.9055
X7.8055Y-4.0055
X7.8055Y-4.1055
X7.8055Y-4.2055
T2
G00X6.3575Y-2.937
M15
G01X6.3575Y-2.8858
M16
G05
G00X6.3575Y-3.0817
M15
G01X6.3575Y-3.0423
M16
G05
G00X6.6976Y-2.937
M15
G01X6.6976Y-2.8858
M16
G05
G00X6.6976Y-3.0817
M15
G01X6.6976Y-3.0423
M16
G05
T0
M30
