%TF.GenerationSoftware,KiCad,Pcbnew,(5.1.8-0-10_14)*%
%TF.CreationDate,2021-02-17T10:46:27+00:00*%
%TF.ProjectId,sd2snes_ecp5,73643273-6e65-4735-9f65-6370352e6b69,B*%
%TF.SameCoordinates,Original*%
%TF.FileFunction,Paste,Top*%
%TF.FilePolarity,Positive*%
%FSLAX46Y46*%
G04 Gerber Fmt 4.6, Leading zero omitted, Abs format (unit mm)*
G04 Created by KiCad (PCBNEW (5.1.8-0-10_14)) date 2021-02-17 10:46:27*
%MOMM*%
%LPD*%
G01*
G04 APERTURE LIST*
%ADD10C,0.250000*%
%ADD11C,0.300000*%
G04 APERTURE END LIST*
%TO.C,J301*%
G36*
G01*
X164850000Y-73225000D02*
X164850000Y-74675000D01*
G75*
G02*
X164625000Y-74900000I-225000J0D01*
G01*
X164175000Y-74900000D01*
G75*
G02*
X163950000Y-74675000I0J225000D01*
G01*
X163950000Y-73225000D01*
G75*
G02*
X164175000Y-73000000I225000J0D01*
G01*
X164625000Y-73000000D01*
G75*
G02*
X164850000Y-73225000I0J-225000D01*
G01*
G37*
G36*
G01*
X167650000Y-73225000D02*
X167650000Y-74675000D01*
G75*
G02*
X167425000Y-74900000I-225000J0D01*
G01*
X166975000Y-74900000D01*
G75*
G02*
X166750000Y-74675000I0J225000D01*
G01*
X166750000Y-73225000D01*
G75*
G02*
X166975000Y-73000000I225000J0D01*
G01*
X167425000Y-73000000D01*
G75*
G02*
X167650000Y-73225000I0J-225000D01*
G01*
G37*
G36*
G01*
X162910000Y-77805000D02*
X162910000Y-78495000D01*
G75*
G02*
X162805000Y-78600000I-105000J0D01*
G01*
X162595000Y-78600000D01*
G75*
G02*
X162490000Y-78495000I0J105000D01*
G01*
X162490000Y-77805000D01*
G75*
G02*
X162595000Y-77700000I105000J0D01*
G01*
X162805000Y-77700000D01*
G75*
G02*
X162910000Y-77805000I0J-105000D01*
G01*
G37*
G36*
G01*
X163660000Y-77805000D02*
X163660000Y-78495000D01*
G75*
G02*
X163555000Y-78600000I-105000J0D01*
G01*
X163345000Y-78600000D01*
G75*
G02*
X163240000Y-78495000I0J105000D01*
G01*
X163240000Y-77805000D01*
G75*
G02*
X163345000Y-77700000I105000J0D01*
G01*
X163555000Y-77700000D01*
G75*
G02*
X163660000Y-77805000I0J-105000D01*
G01*
G37*
G36*
G01*
X168360000Y-77805000D02*
X168360000Y-78495000D01*
G75*
G02*
X168255000Y-78600000I-105000J0D01*
G01*
X168045000Y-78600000D01*
G75*
G02*
X167940000Y-78495000I0J105000D01*
G01*
X167940000Y-77805000D01*
G75*
G02*
X168045000Y-77700000I105000J0D01*
G01*
X168255000Y-77700000D01*
G75*
G02*
X168360000Y-77805000I0J-105000D01*
G01*
G37*
G36*
G01*
X169110000Y-77805000D02*
X169110000Y-78495000D01*
G75*
G02*
X169005000Y-78600000I-105000J0D01*
G01*
X168795000Y-78600000D01*
G75*
G02*
X168690000Y-78495000I0J105000D01*
G01*
X168690000Y-77805000D01*
G75*
G02*
X168795000Y-77700000I105000J0D01*
G01*
X169005000Y-77700000D01*
G75*
G02*
X169110000Y-77805000I0J-105000D01*
G01*
G37*
G36*
G01*
X169110000Y-77805000D02*
X169110000Y-78495000D01*
G75*
G02*
X169005000Y-78600000I-105000J0D01*
G01*
X168795000Y-78600000D01*
G75*
G02*
X168690000Y-78495000I0J105000D01*
G01*
X168690000Y-77805000D01*
G75*
G02*
X168795000Y-77700000I105000J0D01*
G01*
X169005000Y-77700000D01*
G75*
G02*
X169110000Y-77805000I0J-105000D01*
G01*
G37*
G36*
G01*
X168360000Y-77805000D02*
X168360000Y-78495000D01*
G75*
G02*
X168255000Y-78600000I-105000J0D01*
G01*
X168045000Y-78600000D01*
G75*
G02*
X167940000Y-78495000I0J105000D01*
G01*
X167940000Y-77805000D01*
G75*
G02*
X168045000Y-77700000I105000J0D01*
G01*
X168255000Y-77700000D01*
G75*
G02*
X168360000Y-77805000I0J-105000D01*
G01*
G37*
G36*
G01*
X163660000Y-77805000D02*
X163660000Y-78495000D01*
G75*
G02*
X163555000Y-78600000I-105000J0D01*
G01*
X163345000Y-78600000D01*
G75*
G02*
X163240000Y-78495000I0J105000D01*
G01*
X163240000Y-77805000D01*
G75*
G02*
X163345000Y-77700000I105000J0D01*
G01*
X163555000Y-77700000D01*
G75*
G02*
X163660000Y-77805000I0J-105000D01*
G01*
G37*
G36*
G01*
X162910000Y-77805000D02*
X162910000Y-78495000D01*
G75*
G02*
X162805000Y-78600000I-105000J0D01*
G01*
X162595000Y-78600000D01*
G75*
G02*
X162490000Y-78495000I0J105000D01*
G01*
X162490000Y-77805000D01*
G75*
G02*
X162595000Y-77700000I105000J0D01*
G01*
X162805000Y-77700000D01*
G75*
G02*
X162910000Y-77805000I0J-105000D01*
G01*
G37*
G36*
G01*
X167135000Y-77762900D02*
X167135000Y-78537100D01*
G75*
G02*
X167072100Y-78600000I-62900J0D01*
G01*
X167027900Y-78600000D01*
G75*
G02*
X166965000Y-78537100I0J62900D01*
G01*
X166965000Y-77762900D01*
G75*
G02*
X167027900Y-77700000I62900J0D01*
G01*
X167072100Y-77700000D01*
G75*
G02*
X167135000Y-77762900I0J-62900D01*
G01*
G37*
G36*
G01*
X167635000Y-77762900D02*
X167635000Y-78537100D01*
G75*
G02*
X167572100Y-78600000I-62900J0D01*
G01*
X167527900Y-78600000D01*
G75*
G02*
X167465000Y-78537100I0J62900D01*
G01*
X167465000Y-77762900D01*
G75*
G02*
X167527900Y-77700000I62900J0D01*
G01*
X167572100Y-77700000D01*
G75*
G02*
X167635000Y-77762900I0J-62900D01*
G01*
G37*
G36*
G01*
X166635000Y-77762900D02*
X166635000Y-78537100D01*
G75*
G02*
X166572100Y-78600000I-62900J0D01*
G01*
X166527900Y-78600000D01*
G75*
G02*
X166465000Y-78537100I0J62900D01*
G01*
X166465000Y-77762900D01*
G75*
G02*
X166527900Y-77700000I62900J0D01*
G01*
X166572100Y-77700000D01*
G75*
G02*
X166635000Y-77762900I0J-62900D01*
G01*
G37*
G36*
G01*
X165135000Y-77762900D02*
X165135000Y-78537100D01*
G75*
G02*
X165072100Y-78600000I-62900J0D01*
G01*
X165027900Y-78600000D01*
G75*
G02*
X164965000Y-78537100I0J62900D01*
G01*
X164965000Y-77762900D01*
G75*
G02*
X165027900Y-77700000I62900J0D01*
G01*
X165072100Y-77700000D01*
G75*
G02*
X165135000Y-77762900I0J-62900D01*
G01*
G37*
G36*
G01*
X165635000Y-77762900D02*
X165635000Y-78537100D01*
G75*
G02*
X165572100Y-78600000I-62900J0D01*
G01*
X165527900Y-78600000D01*
G75*
G02*
X165465000Y-78537100I0J62900D01*
G01*
X165465000Y-77762900D01*
G75*
G02*
X165527900Y-77700000I62900J0D01*
G01*
X165572100Y-77700000D01*
G75*
G02*
X165635000Y-77762900I0J-62900D01*
G01*
G37*
G36*
G01*
X164135000Y-77762900D02*
X164135000Y-78537100D01*
G75*
G02*
X164072100Y-78600000I-62900J0D01*
G01*
X164027900Y-78600000D01*
G75*
G02*
X163965000Y-78537100I0J62900D01*
G01*
X163965000Y-77762900D01*
G75*
G02*
X164027900Y-77700000I62900J0D01*
G01*
X164072100Y-77700000D01*
G75*
G02*
X164135000Y-77762900I0J-62900D01*
G01*
G37*
G36*
G01*
X164635000Y-77762900D02*
X164635000Y-78537100D01*
G75*
G02*
X164572100Y-78600000I-62900J0D01*
G01*
X164527900Y-78600000D01*
G75*
G02*
X164465000Y-78537100I0J62900D01*
G01*
X164465000Y-77762900D01*
G75*
G02*
X164527900Y-77700000I62900J0D01*
G01*
X164572100Y-77700000D01*
G75*
G02*
X164635000Y-77762900I0J-62900D01*
G01*
G37*
G36*
G01*
X166135000Y-77762900D02*
X166135000Y-78537100D01*
G75*
G02*
X166072100Y-78600000I-62900J0D01*
G01*
X166027900Y-78600000D01*
G75*
G02*
X165965000Y-78537100I0J62900D01*
G01*
X165965000Y-77762900D01*
G75*
G02*
X166027900Y-77700000I62900J0D01*
G01*
X166072100Y-77700000D01*
G75*
G02*
X166135000Y-77762900I0J-62900D01*
G01*
G37*
%TD*%
%TO.C,X302*%
G36*
G01*
X187439000Y-97905000D02*
X188689000Y-97905000D01*
G75*
G02*
X188914000Y-98130000I0J-225000D01*
G01*
X188914000Y-98580000D01*
G75*
G02*
X188689000Y-98805000I-225000J0D01*
G01*
X187439000Y-98805000D01*
G75*
G02*
X187214000Y-98580000I0J225000D01*
G01*
X187214000Y-98130000D01*
G75*
G02*
X187439000Y-97905000I225000J0D01*
G01*
G37*
G36*
G01*
X187439000Y-100405000D02*
X188689000Y-100405000D01*
G75*
G02*
X188914000Y-100630000I0J-225000D01*
G01*
X188914000Y-101080000D01*
G75*
G02*
X188689000Y-101305000I-225000J0D01*
G01*
X187439000Y-101305000D01*
G75*
G02*
X187214000Y-101080000I0J225000D01*
G01*
X187214000Y-100630000D01*
G75*
G02*
X187439000Y-100405000I225000J0D01*
G01*
G37*
%TD*%
%TO.C,X301*%
G36*
G01*
X188639000Y-92950000D02*
X189189000Y-92950000D01*
G75*
G02*
X189464000Y-93225000I0J-275000D01*
G01*
X189464000Y-93975000D01*
G75*
G02*
X189189000Y-94250000I-275000J0D01*
G01*
X188639000Y-94250000D01*
G75*
G02*
X188364000Y-93975000I0J275000D01*
G01*
X188364000Y-93225000D01*
G75*
G02*
X188639000Y-92950000I275000J0D01*
G01*
G37*
G36*
G01*
X188639000Y-95150000D02*
X189189000Y-95150000D01*
G75*
G02*
X189464000Y-95425000I0J-275000D01*
G01*
X189464000Y-96175000D01*
G75*
G02*
X189189000Y-96450000I-275000J0D01*
G01*
X188639000Y-96450000D01*
G75*
G02*
X188364000Y-96175000I0J275000D01*
G01*
X188364000Y-95425000D01*
G75*
G02*
X188639000Y-95150000I275000J0D01*
G01*
G37*
G36*
G01*
X186939000Y-95150000D02*
X187489000Y-95150000D01*
G75*
G02*
X187764000Y-95425000I0J-275000D01*
G01*
X187764000Y-96175000D01*
G75*
G02*
X187489000Y-96450000I-275000J0D01*
G01*
X186939000Y-96450000D01*
G75*
G02*
X186664000Y-96175000I0J275000D01*
G01*
X186664000Y-95425000D01*
G75*
G02*
X186939000Y-95150000I275000J0D01*
G01*
G37*
G36*
G01*
X186939000Y-92950000D02*
X187489000Y-92950000D01*
G75*
G02*
X187764000Y-93225000I0J-275000D01*
G01*
X187764000Y-93975000D01*
G75*
G02*
X187489000Y-94250000I-275000J0D01*
G01*
X186939000Y-94250000D01*
G75*
G02*
X186664000Y-93975000I0J275000D01*
G01*
X186664000Y-93225000D01*
G75*
G02*
X186939000Y-92950000I275000J0D01*
G01*
G37*
%TD*%
%TO.C,U404*%
G36*
G01*
X194800000Y-135140000D02*
X194830000Y-135140000D01*
G75*
G02*
X194890000Y-135200000I0J-60000D01*
G01*
X194890000Y-136080000D01*
G75*
G02*
X194830000Y-136140000I-60000J0D01*
G01*
X194800000Y-136140000D01*
G75*
G02*
X194740000Y-136080000I0J60000D01*
G01*
X194740000Y-135200000D01*
G75*
G02*
X194800000Y-135140000I60000J0D01*
G01*
G37*
G36*
G01*
X194300000Y-135140000D02*
X194330000Y-135140000D01*
G75*
G02*
X194390000Y-135200000I0J-60000D01*
G01*
X194390000Y-136080000D01*
G75*
G02*
X194330000Y-136140000I-60000J0D01*
G01*
X194300000Y-136140000D01*
G75*
G02*
X194240000Y-136080000I0J60000D01*
G01*
X194240000Y-135200000D01*
G75*
G02*
X194300000Y-135140000I60000J0D01*
G01*
G37*
G36*
G01*
X193800000Y-135140000D02*
X193830000Y-135140000D01*
G75*
G02*
X193890000Y-135200000I0J-60000D01*
G01*
X193890000Y-136080000D01*
G75*
G02*
X193830000Y-136140000I-60000J0D01*
G01*
X193800000Y-136140000D01*
G75*
G02*
X193740000Y-136080000I0J60000D01*
G01*
X193740000Y-135200000D01*
G75*
G02*
X193800000Y-135140000I60000J0D01*
G01*
G37*
G36*
G01*
X193300000Y-135140000D02*
X193330000Y-135140000D01*
G75*
G02*
X193390000Y-135200000I0J-60000D01*
G01*
X193390000Y-136080000D01*
G75*
G02*
X193330000Y-136140000I-60000J0D01*
G01*
X193300000Y-136140000D01*
G75*
G02*
X193240000Y-136080000I0J60000D01*
G01*
X193240000Y-135200000D01*
G75*
G02*
X193300000Y-135140000I60000J0D01*
G01*
G37*
G36*
G01*
X192800000Y-135140000D02*
X192830000Y-135140000D01*
G75*
G02*
X192890000Y-135200000I0J-60000D01*
G01*
X192890000Y-136080000D01*
G75*
G02*
X192830000Y-136140000I-60000J0D01*
G01*
X192800000Y-136140000D01*
G75*
G02*
X192740000Y-136080000I0J60000D01*
G01*
X192740000Y-135200000D01*
G75*
G02*
X192800000Y-135140000I60000J0D01*
G01*
G37*
G36*
G01*
X192800000Y-130840000D02*
X192830000Y-130840000D01*
G75*
G02*
X192890000Y-130900000I0J-60000D01*
G01*
X192890000Y-131780000D01*
G75*
G02*
X192830000Y-131840000I-60000J0D01*
G01*
X192800000Y-131840000D01*
G75*
G02*
X192740000Y-131780000I0J60000D01*
G01*
X192740000Y-130900000D01*
G75*
G02*
X192800000Y-130840000I60000J0D01*
G01*
G37*
G36*
G01*
X193300000Y-130840000D02*
X193330000Y-130840000D01*
G75*
G02*
X193390000Y-130900000I0J-60000D01*
G01*
X193390000Y-131780000D01*
G75*
G02*
X193330000Y-131840000I-60000J0D01*
G01*
X193300000Y-131840000D01*
G75*
G02*
X193240000Y-131780000I0J60000D01*
G01*
X193240000Y-130900000D01*
G75*
G02*
X193300000Y-130840000I60000J0D01*
G01*
G37*
G36*
G01*
X193800000Y-130840000D02*
X193830000Y-130840000D01*
G75*
G02*
X193890000Y-130900000I0J-60000D01*
G01*
X193890000Y-131780000D01*
G75*
G02*
X193830000Y-131840000I-60000J0D01*
G01*
X193800000Y-131840000D01*
G75*
G02*
X193740000Y-131780000I0J60000D01*
G01*
X193740000Y-130900000D01*
G75*
G02*
X193800000Y-130840000I60000J0D01*
G01*
G37*
G36*
G01*
X194300000Y-130840000D02*
X194330000Y-130840000D01*
G75*
G02*
X194390000Y-130900000I0J-60000D01*
G01*
X194390000Y-131780000D01*
G75*
G02*
X194330000Y-131840000I-60000J0D01*
G01*
X194300000Y-131840000D01*
G75*
G02*
X194240000Y-131780000I0J60000D01*
G01*
X194240000Y-130900000D01*
G75*
G02*
X194300000Y-130840000I60000J0D01*
G01*
G37*
G36*
G01*
X194800000Y-130840000D02*
X194830000Y-130840000D01*
G75*
G02*
X194890000Y-130900000I0J-60000D01*
G01*
X194890000Y-131780000D01*
G75*
G02*
X194830000Y-131840000I-60000J0D01*
G01*
X194800000Y-131840000D01*
G75*
G02*
X194740000Y-131780000I0J60000D01*
G01*
X194740000Y-130900000D01*
G75*
G02*
X194800000Y-130840000I60000J0D01*
G01*
G37*
%TD*%
%TO.C,U403*%
G36*
G01*
X163910000Y-113487500D02*
X163910000Y-113762500D01*
G75*
G02*
X163772500Y-113900000I-137500J0D01*
G01*
X163087500Y-113900000D01*
G75*
G02*
X162950000Y-113762500I0J137500D01*
G01*
X162950000Y-113487500D01*
G75*
G02*
X163087500Y-113350000I137500J0D01*
G01*
X163772500Y-113350000D01*
G75*
G02*
X163910000Y-113487500I0J-137500D01*
G01*
G37*
G36*
G01*
X163910000Y-112537500D02*
X163910000Y-112812500D01*
G75*
G02*
X163772500Y-112950000I-137500J0D01*
G01*
X163087500Y-112950000D01*
G75*
G02*
X162950000Y-112812500I0J137500D01*
G01*
X162950000Y-112537500D01*
G75*
G02*
X163087500Y-112400000I137500J0D01*
G01*
X163772500Y-112400000D01*
G75*
G02*
X163910000Y-112537500I0J-137500D01*
G01*
G37*
G36*
G01*
X163910000Y-111587500D02*
X163910000Y-111862500D01*
G75*
G02*
X163772500Y-112000000I-137500J0D01*
G01*
X163087500Y-112000000D01*
G75*
G02*
X162950000Y-111862500I0J137500D01*
G01*
X162950000Y-111587500D01*
G75*
G02*
X163087500Y-111450000I137500J0D01*
G01*
X163772500Y-111450000D01*
G75*
G02*
X163910000Y-111587500I0J-137500D01*
G01*
G37*
G36*
G01*
X161710000Y-111587500D02*
X161710000Y-111862500D01*
G75*
G02*
X161572500Y-112000000I-137500J0D01*
G01*
X160887500Y-112000000D01*
G75*
G02*
X160750000Y-111862500I0J137500D01*
G01*
X160750000Y-111587500D01*
G75*
G02*
X160887500Y-111450000I137500J0D01*
G01*
X161572500Y-111450000D01*
G75*
G02*
X161710000Y-111587500I0J-137500D01*
G01*
G37*
G36*
G01*
X161710000Y-113487500D02*
X161710000Y-113762500D01*
G75*
G02*
X161572500Y-113900000I-137500J0D01*
G01*
X160887500Y-113900000D01*
G75*
G02*
X160750000Y-113762500I0J137500D01*
G01*
X160750000Y-113487500D01*
G75*
G02*
X160887500Y-113350000I137500J0D01*
G01*
X161572500Y-113350000D01*
G75*
G02*
X161710000Y-113487500I0J-137500D01*
G01*
G37*
%TD*%
%TO.C,U402*%
G36*
G01*
X122757500Y-125520000D02*
X123032500Y-125520000D01*
G75*
G02*
X123170000Y-125657500I0J-137500D01*
G01*
X123170000Y-126342500D01*
G75*
G02*
X123032500Y-126480000I-137500J0D01*
G01*
X122757500Y-126480000D01*
G75*
G02*
X122620000Y-126342500I0J137500D01*
G01*
X122620000Y-125657500D01*
G75*
G02*
X122757500Y-125520000I137500J0D01*
G01*
G37*
G36*
G01*
X121807500Y-125520000D02*
X122082500Y-125520000D01*
G75*
G02*
X122220000Y-125657500I0J-137500D01*
G01*
X122220000Y-126342500D01*
G75*
G02*
X122082500Y-126480000I-137500J0D01*
G01*
X121807500Y-126480000D01*
G75*
G02*
X121670000Y-126342500I0J137500D01*
G01*
X121670000Y-125657500D01*
G75*
G02*
X121807500Y-125520000I137500J0D01*
G01*
G37*
G36*
G01*
X120857500Y-125520000D02*
X121132500Y-125520000D01*
G75*
G02*
X121270000Y-125657500I0J-137500D01*
G01*
X121270000Y-126342500D01*
G75*
G02*
X121132500Y-126480000I-137500J0D01*
G01*
X120857500Y-126480000D01*
G75*
G02*
X120720000Y-126342500I0J137500D01*
G01*
X120720000Y-125657500D01*
G75*
G02*
X120857500Y-125520000I137500J0D01*
G01*
G37*
G36*
G01*
X120857500Y-127720000D02*
X121132500Y-127720000D01*
G75*
G02*
X121270000Y-127857500I0J-137500D01*
G01*
X121270000Y-128542500D01*
G75*
G02*
X121132500Y-128680000I-137500J0D01*
G01*
X120857500Y-128680000D01*
G75*
G02*
X120720000Y-128542500I0J137500D01*
G01*
X120720000Y-127857500D01*
G75*
G02*
X120857500Y-127720000I137500J0D01*
G01*
G37*
G36*
G01*
X122757500Y-127720000D02*
X123032500Y-127720000D01*
G75*
G02*
X123170000Y-127857500I0J-137500D01*
G01*
X123170000Y-128542500D01*
G75*
G02*
X123032500Y-128680000I-137500J0D01*
G01*
X122757500Y-128680000D01*
G75*
G02*
X122620000Y-128542500I0J137500D01*
G01*
X122620000Y-127857500D01*
G75*
G02*
X122757500Y-127720000I137500J0D01*
G01*
G37*
%TD*%
%TO.C,U401*%
G36*
G01*
X112857500Y-125520000D02*
X113132500Y-125520000D01*
G75*
G02*
X113270000Y-125657500I0J-137500D01*
G01*
X113270000Y-126342500D01*
G75*
G02*
X113132500Y-126480000I-137500J0D01*
G01*
X112857500Y-126480000D01*
G75*
G02*
X112720000Y-126342500I0J137500D01*
G01*
X112720000Y-125657500D01*
G75*
G02*
X112857500Y-125520000I137500J0D01*
G01*
G37*
G36*
G01*
X111907500Y-125520000D02*
X112182500Y-125520000D01*
G75*
G02*
X112320000Y-125657500I0J-137500D01*
G01*
X112320000Y-126342500D01*
G75*
G02*
X112182500Y-126480000I-137500J0D01*
G01*
X111907500Y-126480000D01*
G75*
G02*
X111770000Y-126342500I0J137500D01*
G01*
X111770000Y-125657500D01*
G75*
G02*
X111907500Y-125520000I137500J0D01*
G01*
G37*
G36*
G01*
X110957500Y-125520000D02*
X111232500Y-125520000D01*
G75*
G02*
X111370000Y-125657500I0J-137500D01*
G01*
X111370000Y-126342500D01*
G75*
G02*
X111232500Y-126480000I-137500J0D01*
G01*
X110957500Y-126480000D01*
G75*
G02*
X110820000Y-126342500I0J137500D01*
G01*
X110820000Y-125657500D01*
G75*
G02*
X110957500Y-125520000I137500J0D01*
G01*
G37*
G36*
G01*
X110957500Y-127720000D02*
X111232500Y-127720000D01*
G75*
G02*
X111370000Y-127857500I0J-137500D01*
G01*
X111370000Y-128542500D01*
G75*
G02*
X111232500Y-128680000I-137500J0D01*
G01*
X110957500Y-128680000D01*
G75*
G02*
X110820000Y-128542500I0J137500D01*
G01*
X110820000Y-127857500D01*
G75*
G02*
X110957500Y-127720000I137500J0D01*
G01*
G37*
G36*
G01*
X112857500Y-127720000D02*
X113132500Y-127720000D01*
G75*
G02*
X113270000Y-127857500I0J-137500D01*
G01*
X113270000Y-128542500D01*
G75*
G02*
X113132500Y-128680000I-137500J0D01*
G01*
X112857500Y-128680000D01*
G75*
G02*
X112720000Y-128542500I0J137500D01*
G01*
X112720000Y-127857500D01*
G75*
G02*
X112857500Y-127720000I137500J0D01*
G01*
G37*
%TD*%
%TO.C,U302*%
G36*
G01*
X166187500Y-81230000D02*
X165912500Y-81230000D01*
G75*
G02*
X165775000Y-81092500I0J137500D01*
G01*
X165775000Y-80407500D01*
G75*
G02*
X165912500Y-80270000I137500J0D01*
G01*
X166187500Y-80270000D01*
G75*
G02*
X166325000Y-80407500I0J-137500D01*
G01*
X166325000Y-81092500D01*
G75*
G02*
X166187500Y-81230000I-137500J0D01*
G01*
G37*
G36*
G01*
X165237500Y-81230000D02*
X164962500Y-81230000D01*
G75*
G02*
X164825000Y-81092500I0J137500D01*
G01*
X164825000Y-80407500D01*
G75*
G02*
X164962500Y-80270000I137500J0D01*
G01*
X165237500Y-80270000D01*
G75*
G02*
X165375000Y-80407500I0J-137500D01*
G01*
X165375000Y-81092500D01*
G75*
G02*
X165237500Y-81230000I-137500J0D01*
G01*
G37*
G36*
G01*
X167137500Y-81230000D02*
X166862500Y-81230000D01*
G75*
G02*
X166725000Y-81092500I0J137500D01*
G01*
X166725000Y-80407500D01*
G75*
G02*
X166862500Y-80270000I137500J0D01*
G01*
X167137500Y-80270000D01*
G75*
G02*
X167275000Y-80407500I0J-137500D01*
G01*
X167275000Y-81092500D01*
G75*
G02*
X167137500Y-81230000I-137500J0D01*
G01*
G37*
G36*
G01*
X167137500Y-83430000D02*
X166862500Y-83430000D01*
G75*
G02*
X166725000Y-83292500I0J137500D01*
G01*
X166725000Y-82607500D01*
G75*
G02*
X166862500Y-82470000I137500J0D01*
G01*
X167137500Y-82470000D01*
G75*
G02*
X167275000Y-82607500I0J-137500D01*
G01*
X167275000Y-83292500D01*
G75*
G02*
X167137500Y-83430000I-137500J0D01*
G01*
G37*
G36*
G01*
X166187500Y-83430000D02*
X165912500Y-83430000D01*
G75*
G02*
X165775000Y-83292500I0J137500D01*
G01*
X165775000Y-82607500D01*
G75*
G02*
X165912500Y-82470000I137500J0D01*
G01*
X166187500Y-82470000D01*
G75*
G02*
X166325000Y-82607500I0J-137500D01*
G01*
X166325000Y-83292500D01*
G75*
G02*
X166187500Y-83430000I-137500J0D01*
G01*
G37*
G36*
G01*
X165237500Y-83430000D02*
X164962500Y-83430000D01*
G75*
G02*
X164825000Y-83292500I0J137500D01*
G01*
X164825000Y-82607500D01*
G75*
G02*
X164962500Y-82470000I137500J0D01*
G01*
X165237500Y-82470000D01*
G75*
G02*
X165375000Y-82607500I0J-137500D01*
G01*
X165375000Y-83292500D01*
G75*
G02*
X165237500Y-83430000I-137500J0D01*
G01*
G37*
%TD*%
%TO.C,RA212*%
G36*
G01*
X160791360Y-127550000D02*
X160708640Y-127550000D01*
G75*
G02*
X160640000Y-127481360I0J68640D01*
G01*
X160640000Y-127218640D01*
G75*
G02*
X160708640Y-127150000I68640J0D01*
G01*
X160791360Y-127150000D01*
G75*
G02*
X160860000Y-127218640I0J-68640D01*
G01*
X160860000Y-127481360D01*
G75*
G02*
X160791360Y-127550000I-68640J0D01*
G01*
G37*
G36*
G01*
X160291360Y-127550000D02*
X160208640Y-127550000D01*
G75*
G02*
X160140000Y-127481360I0J68640D01*
G01*
X160140000Y-127218640D01*
G75*
G02*
X160208640Y-127150000I68640J0D01*
G01*
X160291360Y-127150000D01*
G75*
G02*
X160360000Y-127218640I0J-68640D01*
G01*
X160360000Y-127481360D01*
G75*
G02*
X160291360Y-127550000I-68640J0D01*
G01*
G37*
G36*
G01*
X159291360Y-127550000D02*
X159208640Y-127550000D01*
G75*
G02*
X159140000Y-127481360I0J68640D01*
G01*
X159140000Y-127218640D01*
G75*
G02*
X159208640Y-127150000I68640J0D01*
G01*
X159291360Y-127150000D01*
G75*
G02*
X159360000Y-127218640I0J-68640D01*
G01*
X159360000Y-127481360D01*
G75*
G02*
X159291360Y-127550000I-68640J0D01*
G01*
G37*
G36*
G01*
X159791360Y-127550000D02*
X159708640Y-127550000D01*
G75*
G02*
X159640000Y-127481360I0J68640D01*
G01*
X159640000Y-127218640D01*
G75*
G02*
X159708640Y-127150000I68640J0D01*
G01*
X159791360Y-127150000D01*
G75*
G02*
X159860000Y-127218640I0J-68640D01*
G01*
X159860000Y-127481360D01*
G75*
G02*
X159791360Y-127550000I-68640J0D01*
G01*
G37*
G36*
G01*
X160791360Y-128550000D02*
X160708640Y-128550000D01*
G75*
G02*
X160640000Y-128481360I0J68640D01*
G01*
X160640000Y-128218640D01*
G75*
G02*
X160708640Y-128150000I68640J0D01*
G01*
X160791360Y-128150000D01*
G75*
G02*
X160860000Y-128218640I0J-68640D01*
G01*
X160860000Y-128481360D01*
G75*
G02*
X160791360Y-128550000I-68640J0D01*
G01*
G37*
G36*
G01*
X159791360Y-128550000D02*
X159708640Y-128550000D01*
G75*
G02*
X159640000Y-128481360I0J68640D01*
G01*
X159640000Y-128218640D01*
G75*
G02*
X159708640Y-128150000I68640J0D01*
G01*
X159791360Y-128150000D01*
G75*
G02*
X159860000Y-128218640I0J-68640D01*
G01*
X159860000Y-128481360D01*
G75*
G02*
X159791360Y-128550000I-68640J0D01*
G01*
G37*
G36*
G01*
X160291360Y-128550000D02*
X160208640Y-128550000D01*
G75*
G02*
X160140000Y-128481360I0J68640D01*
G01*
X160140000Y-128218640D01*
G75*
G02*
X160208640Y-128150000I68640J0D01*
G01*
X160291360Y-128150000D01*
G75*
G02*
X160360000Y-128218640I0J-68640D01*
G01*
X160360000Y-128481360D01*
G75*
G02*
X160291360Y-128550000I-68640J0D01*
G01*
G37*
G36*
G01*
X159291360Y-128550000D02*
X159208640Y-128550000D01*
G75*
G02*
X159140000Y-128481360I0J68640D01*
G01*
X159140000Y-128218640D01*
G75*
G02*
X159208640Y-128150000I68640J0D01*
G01*
X159291360Y-128150000D01*
G75*
G02*
X159360000Y-128218640I0J-68640D01*
G01*
X159360000Y-128481360D01*
G75*
G02*
X159291360Y-128550000I-68640J0D01*
G01*
G37*
%TD*%
%TO.C,RA211*%
G36*
G01*
X163291360Y-127550000D02*
X163208640Y-127550000D01*
G75*
G02*
X163140000Y-127481360I0J68640D01*
G01*
X163140000Y-127218640D01*
G75*
G02*
X163208640Y-127150000I68640J0D01*
G01*
X163291360Y-127150000D01*
G75*
G02*
X163360000Y-127218640I0J-68640D01*
G01*
X163360000Y-127481360D01*
G75*
G02*
X163291360Y-127550000I-68640J0D01*
G01*
G37*
G36*
G01*
X162791360Y-127550000D02*
X162708640Y-127550000D01*
G75*
G02*
X162640000Y-127481360I0J68640D01*
G01*
X162640000Y-127218640D01*
G75*
G02*
X162708640Y-127150000I68640J0D01*
G01*
X162791360Y-127150000D01*
G75*
G02*
X162860000Y-127218640I0J-68640D01*
G01*
X162860000Y-127481360D01*
G75*
G02*
X162791360Y-127550000I-68640J0D01*
G01*
G37*
G36*
G01*
X161791360Y-127550000D02*
X161708640Y-127550000D01*
G75*
G02*
X161640000Y-127481360I0J68640D01*
G01*
X161640000Y-127218640D01*
G75*
G02*
X161708640Y-127150000I68640J0D01*
G01*
X161791360Y-127150000D01*
G75*
G02*
X161860000Y-127218640I0J-68640D01*
G01*
X161860000Y-127481360D01*
G75*
G02*
X161791360Y-127550000I-68640J0D01*
G01*
G37*
G36*
G01*
X162291360Y-127550000D02*
X162208640Y-127550000D01*
G75*
G02*
X162140000Y-127481360I0J68640D01*
G01*
X162140000Y-127218640D01*
G75*
G02*
X162208640Y-127150000I68640J0D01*
G01*
X162291360Y-127150000D01*
G75*
G02*
X162360000Y-127218640I0J-68640D01*
G01*
X162360000Y-127481360D01*
G75*
G02*
X162291360Y-127550000I-68640J0D01*
G01*
G37*
G36*
G01*
X163291360Y-128550000D02*
X163208640Y-128550000D01*
G75*
G02*
X163140000Y-128481360I0J68640D01*
G01*
X163140000Y-128218640D01*
G75*
G02*
X163208640Y-128150000I68640J0D01*
G01*
X163291360Y-128150000D01*
G75*
G02*
X163360000Y-128218640I0J-68640D01*
G01*
X163360000Y-128481360D01*
G75*
G02*
X163291360Y-128550000I-68640J0D01*
G01*
G37*
G36*
G01*
X162291360Y-128550000D02*
X162208640Y-128550000D01*
G75*
G02*
X162140000Y-128481360I0J68640D01*
G01*
X162140000Y-128218640D01*
G75*
G02*
X162208640Y-128150000I68640J0D01*
G01*
X162291360Y-128150000D01*
G75*
G02*
X162360000Y-128218640I0J-68640D01*
G01*
X162360000Y-128481360D01*
G75*
G02*
X162291360Y-128550000I-68640J0D01*
G01*
G37*
G36*
G01*
X162791360Y-128550000D02*
X162708640Y-128550000D01*
G75*
G02*
X162640000Y-128481360I0J68640D01*
G01*
X162640000Y-128218640D01*
G75*
G02*
X162708640Y-128150000I68640J0D01*
G01*
X162791360Y-128150000D01*
G75*
G02*
X162860000Y-128218640I0J-68640D01*
G01*
X162860000Y-128481360D01*
G75*
G02*
X162791360Y-128550000I-68640J0D01*
G01*
G37*
G36*
G01*
X161791360Y-128550000D02*
X161708640Y-128550000D01*
G75*
G02*
X161640000Y-128481360I0J68640D01*
G01*
X161640000Y-128218640D01*
G75*
G02*
X161708640Y-128150000I68640J0D01*
G01*
X161791360Y-128150000D01*
G75*
G02*
X161860000Y-128218640I0J-68640D01*
G01*
X161860000Y-128481360D01*
G75*
G02*
X161791360Y-128550000I-68640J0D01*
G01*
G37*
%TD*%
%TO.C,RA210*%
G36*
G01*
X152291360Y-140200000D02*
X152208640Y-140200000D01*
G75*
G02*
X152140000Y-140131360I0J68640D01*
G01*
X152140000Y-139868640D01*
G75*
G02*
X152208640Y-139800000I68640J0D01*
G01*
X152291360Y-139800000D01*
G75*
G02*
X152360000Y-139868640I0J-68640D01*
G01*
X152360000Y-140131360D01*
G75*
G02*
X152291360Y-140200000I-68640J0D01*
G01*
G37*
G36*
G01*
X151791360Y-140200000D02*
X151708640Y-140200000D01*
G75*
G02*
X151640000Y-140131360I0J68640D01*
G01*
X151640000Y-139868640D01*
G75*
G02*
X151708640Y-139800000I68640J0D01*
G01*
X151791360Y-139800000D01*
G75*
G02*
X151860000Y-139868640I0J-68640D01*
G01*
X151860000Y-140131360D01*
G75*
G02*
X151791360Y-140200000I-68640J0D01*
G01*
G37*
G36*
G01*
X150791360Y-140200000D02*
X150708640Y-140200000D01*
G75*
G02*
X150640000Y-140131360I0J68640D01*
G01*
X150640000Y-139868640D01*
G75*
G02*
X150708640Y-139800000I68640J0D01*
G01*
X150791360Y-139800000D01*
G75*
G02*
X150860000Y-139868640I0J-68640D01*
G01*
X150860000Y-140131360D01*
G75*
G02*
X150791360Y-140200000I-68640J0D01*
G01*
G37*
G36*
G01*
X151291360Y-140200000D02*
X151208640Y-140200000D01*
G75*
G02*
X151140000Y-140131360I0J68640D01*
G01*
X151140000Y-139868640D01*
G75*
G02*
X151208640Y-139800000I68640J0D01*
G01*
X151291360Y-139800000D01*
G75*
G02*
X151360000Y-139868640I0J-68640D01*
G01*
X151360000Y-140131360D01*
G75*
G02*
X151291360Y-140200000I-68640J0D01*
G01*
G37*
G36*
G01*
X152291360Y-141200000D02*
X152208640Y-141200000D01*
G75*
G02*
X152140000Y-141131360I0J68640D01*
G01*
X152140000Y-140868640D01*
G75*
G02*
X152208640Y-140800000I68640J0D01*
G01*
X152291360Y-140800000D01*
G75*
G02*
X152360000Y-140868640I0J-68640D01*
G01*
X152360000Y-141131360D01*
G75*
G02*
X152291360Y-141200000I-68640J0D01*
G01*
G37*
G36*
G01*
X151291360Y-141200000D02*
X151208640Y-141200000D01*
G75*
G02*
X151140000Y-141131360I0J68640D01*
G01*
X151140000Y-140868640D01*
G75*
G02*
X151208640Y-140800000I68640J0D01*
G01*
X151291360Y-140800000D01*
G75*
G02*
X151360000Y-140868640I0J-68640D01*
G01*
X151360000Y-141131360D01*
G75*
G02*
X151291360Y-141200000I-68640J0D01*
G01*
G37*
G36*
G01*
X151791360Y-141200000D02*
X151708640Y-141200000D01*
G75*
G02*
X151640000Y-141131360I0J68640D01*
G01*
X151640000Y-140868640D01*
G75*
G02*
X151708640Y-140800000I68640J0D01*
G01*
X151791360Y-140800000D01*
G75*
G02*
X151860000Y-140868640I0J-68640D01*
G01*
X151860000Y-141131360D01*
G75*
G02*
X151791360Y-141200000I-68640J0D01*
G01*
G37*
G36*
G01*
X150791360Y-141200000D02*
X150708640Y-141200000D01*
G75*
G02*
X150640000Y-141131360I0J68640D01*
G01*
X150640000Y-140868640D01*
G75*
G02*
X150708640Y-140800000I68640J0D01*
G01*
X150791360Y-140800000D01*
G75*
G02*
X150860000Y-140868640I0J-68640D01*
G01*
X150860000Y-141131360D01*
G75*
G02*
X150791360Y-141200000I-68640J0D01*
G01*
G37*
%TD*%
%TO.C,RA209*%
G36*
G01*
X146791360Y-140200000D02*
X146708640Y-140200000D01*
G75*
G02*
X146640000Y-140131360I0J68640D01*
G01*
X146640000Y-139868640D01*
G75*
G02*
X146708640Y-139800000I68640J0D01*
G01*
X146791360Y-139800000D01*
G75*
G02*
X146860000Y-139868640I0J-68640D01*
G01*
X146860000Y-140131360D01*
G75*
G02*
X146791360Y-140200000I-68640J0D01*
G01*
G37*
G36*
G01*
X146291360Y-140200000D02*
X146208640Y-140200000D01*
G75*
G02*
X146140000Y-140131360I0J68640D01*
G01*
X146140000Y-139868640D01*
G75*
G02*
X146208640Y-139800000I68640J0D01*
G01*
X146291360Y-139800000D01*
G75*
G02*
X146360000Y-139868640I0J-68640D01*
G01*
X146360000Y-140131360D01*
G75*
G02*
X146291360Y-140200000I-68640J0D01*
G01*
G37*
G36*
G01*
X145291360Y-140200000D02*
X145208640Y-140200000D01*
G75*
G02*
X145140000Y-140131360I0J68640D01*
G01*
X145140000Y-139868640D01*
G75*
G02*
X145208640Y-139800000I68640J0D01*
G01*
X145291360Y-139800000D01*
G75*
G02*
X145360000Y-139868640I0J-68640D01*
G01*
X145360000Y-140131360D01*
G75*
G02*
X145291360Y-140200000I-68640J0D01*
G01*
G37*
G36*
G01*
X145791360Y-140200000D02*
X145708640Y-140200000D01*
G75*
G02*
X145640000Y-140131360I0J68640D01*
G01*
X145640000Y-139868640D01*
G75*
G02*
X145708640Y-139800000I68640J0D01*
G01*
X145791360Y-139800000D01*
G75*
G02*
X145860000Y-139868640I0J-68640D01*
G01*
X145860000Y-140131360D01*
G75*
G02*
X145791360Y-140200000I-68640J0D01*
G01*
G37*
G36*
G01*
X146791360Y-141200000D02*
X146708640Y-141200000D01*
G75*
G02*
X146640000Y-141131360I0J68640D01*
G01*
X146640000Y-140868640D01*
G75*
G02*
X146708640Y-140800000I68640J0D01*
G01*
X146791360Y-140800000D01*
G75*
G02*
X146860000Y-140868640I0J-68640D01*
G01*
X146860000Y-141131360D01*
G75*
G02*
X146791360Y-141200000I-68640J0D01*
G01*
G37*
G36*
G01*
X145791360Y-141200000D02*
X145708640Y-141200000D01*
G75*
G02*
X145640000Y-141131360I0J68640D01*
G01*
X145640000Y-140868640D01*
G75*
G02*
X145708640Y-140800000I68640J0D01*
G01*
X145791360Y-140800000D01*
G75*
G02*
X145860000Y-140868640I0J-68640D01*
G01*
X145860000Y-141131360D01*
G75*
G02*
X145791360Y-141200000I-68640J0D01*
G01*
G37*
G36*
G01*
X146291360Y-141200000D02*
X146208640Y-141200000D01*
G75*
G02*
X146140000Y-141131360I0J68640D01*
G01*
X146140000Y-140868640D01*
G75*
G02*
X146208640Y-140800000I68640J0D01*
G01*
X146291360Y-140800000D01*
G75*
G02*
X146360000Y-140868640I0J-68640D01*
G01*
X146360000Y-141131360D01*
G75*
G02*
X146291360Y-141200000I-68640J0D01*
G01*
G37*
G36*
G01*
X145291360Y-141200000D02*
X145208640Y-141200000D01*
G75*
G02*
X145140000Y-141131360I0J68640D01*
G01*
X145140000Y-140868640D01*
G75*
G02*
X145208640Y-140800000I68640J0D01*
G01*
X145291360Y-140800000D01*
G75*
G02*
X145360000Y-140868640I0J-68640D01*
G01*
X145360000Y-141131360D01*
G75*
G02*
X145291360Y-141200000I-68640J0D01*
G01*
G37*
%TD*%
%TO.C,RA208*%
G36*
G01*
X166291360Y-140200000D02*
X166208640Y-140200000D01*
G75*
G02*
X166140000Y-140131360I0J68640D01*
G01*
X166140000Y-139868640D01*
G75*
G02*
X166208640Y-139800000I68640J0D01*
G01*
X166291360Y-139800000D01*
G75*
G02*
X166360000Y-139868640I0J-68640D01*
G01*
X166360000Y-140131360D01*
G75*
G02*
X166291360Y-140200000I-68640J0D01*
G01*
G37*
G36*
G01*
X165791360Y-140200000D02*
X165708640Y-140200000D01*
G75*
G02*
X165640000Y-140131360I0J68640D01*
G01*
X165640000Y-139868640D01*
G75*
G02*
X165708640Y-139800000I68640J0D01*
G01*
X165791360Y-139800000D01*
G75*
G02*
X165860000Y-139868640I0J-68640D01*
G01*
X165860000Y-140131360D01*
G75*
G02*
X165791360Y-140200000I-68640J0D01*
G01*
G37*
G36*
G01*
X164791360Y-140200000D02*
X164708640Y-140200000D01*
G75*
G02*
X164640000Y-140131360I0J68640D01*
G01*
X164640000Y-139868640D01*
G75*
G02*
X164708640Y-139800000I68640J0D01*
G01*
X164791360Y-139800000D01*
G75*
G02*
X164860000Y-139868640I0J-68640D01*
G01*
X164860000Y-140131360D01*
G75*
G02*
X164791360Y-140200000I-68640J0D01*
G01*
G37*
G36*
G01*
X165291360Y-140200000D02*
X165208640Y-140200000D01*
G75*
G02*
X165140000Y-140131360I0J68640D01*
G01*
X165140000Y-139868640D01*
G75*
G02*
X165208640Y-139800000I68640J0D01*
G01*
X165291360Y-139800000D01*
G75*
G02*
X165360000Y-139868640I0J-68640D01*
G01*
X165360000Y-140131360D01*
G75*
G02*
X165291360Y-140200000I-68640J0D01*
G01*
G37*
G36*
G01*
X166291360Y-141200000D02*
X166208640Y-141200000D01*
G75*
G02*
X166140000Y-141131360I0J68640D01*
G01*
X166140000Y-140868640D01*
G75*
G02*
X166208640Y-140800000I68640J0D01*
G01*
X166291360Y-140800000D01*
G75*
G02*
X166360000Y-140868640I0J-68640D01*
G01*
X166360000Y-141131360D01*
G75*
G02*
X166291360Y-141200000I-68640J0D01*
G01*
G37*
G36*
G01*
X165291360Y-141200000D02*
X165208640Y-141200000D01*
G75*
G02*
X165140000Y-141131360I0J68640D01*
G01*
X165140000Y-140868640D01*
G75*
G02*
X165208640Y-140800000I68640J0D01*
G01*
X165291360Y-140800000D01*
G75*
G02*
X165360000Y-140868640I0J-68640D01*
G01*
X165360000Y-141131360D01*
G75*
G02*
X165291360Y-141200000I-68640J0D01*
G01*
G37*
G36*
G01*
X165791360Y-141200000D02*
X165708640Y-141200000D01*
G75*
G02*
X165640000Y-141131360I0J68640D01*
G01*
X165640000Y-140868640D01*
G75*
G02*
X165708640Y-140800000I68640J0D01*
G01*
X165791360Y-140800000D01*
G75*
G02*
X165860000Y-140868640I0J-68640D01*
G01*
X165860000Y-141131360D01*
G75*
G02*
X165791360Y-141200000I-68640J0D01*
G01*
G37*
G36*
G01*
X164791360Y-141200000D02*
X164708640Y-141200000D01*
G75*
G02*
X164640000Y-141131360I0J68640D01*
G01*
X164640000Y-140868640D01*
G75*
G02*
X164708640Y-140800000I68640J0D01*
G01*
X164791360Y-140800000D01*
G75*
G02*
X164860000Y-140868640I0J-68640D01*
G01*
X164860000Y-141131360D01*
G75*
G02*
X164791360Y-141200000I-68640J0D01*
G01*
G37*
%TD*%
%TO.C,RA207*%
G36*
G01*
X138291360Y-140200000D02*
X138208640Y-140200000D01*
G75*
G02*
X138140000Y-140131360I0J68640D01*
G01*
X138140000Y-139868640D01*
G75*
G02*
X138208640Y-139800000I68640J0D01*
G01*
X138291360Y-139800000D01*
G75*
G02*
X138360000Y-139868640I0J-68640D01*
G01*
X138360000Y-140131360D01*
G75*
G02*
X138291360Y-140200000I-68640J0D01*
G01*
G37*
G36*
G01*
X137791360Y-140200000D02*
X137708640Y-140200000D01*
G75*
G02*
X137640000Y-140131360I0J68640D01*
G01*
X137640000Y-139868640D01*
G75*
G02*
X137708640Y-139800000I68640J0D01*
G01*
X137791360Y-139800000D01*
G75*
G02*
X137860000Y-139868640I0J-68640D01*
G01*
X137860000Y-140131360D01*
G75*
G02*
X137791360Y-140200000I-68640J0D01*
G01*
G37*
G36*
G01*
X136791360Y-140200000D02*
X136708640Y-140200000D01*
G75*
G02*
X136640000Y-140131360I0J68640D01*
G01*
X136640000Y-139868640D01*
G75*
G02*
X136708640Y-139800000I68640J0D01*
G01*
X136791360Y-139800000D01*
G75*
G02*
X136860000Y-139868640I0J-68640D01*
G01*
X136860000Y-140131360D01*
G75*
G02*
X136791360Y-140200000I-68640J0D01*
G01*
G37*
G36*
G01*
X137291360Y-140200000D02*
X137208640Y-140200000D01*
G75*
G02*
X137140000Y-140131360I0J68640D01*
G01*
X137140000Y-139868640D01*
G75*
G02*
X137208640Y-139800000I68640J0D01*
G01*
X137291360Y-139800000D01*
G75*
G02*
X137360000Y-139868640I0J-68640D01*
G01*
X137360000Y-140131360D01*
G75*
G02*
X137291360Y-140200000I-68640J0D01*
G01*
G37*
G36*
G01*
X138291360Y-141200000D02*
X138208640Y-141200000D01*
G75*
G02*
X138140000Y-141131360I0J68640D01*
G01*
X138140000Y-140868640D01*
G75*
G02*
X138208640Y-140800000I68640J0D01*
G01*
X138291360Y-140800000D01*
G75*
G02*
X138360000Y-140868640I0J-68640D01*
G01*
X138360000Y-141131360D01*
G75*
G02*
X138291360Y-141200000I-68640J0D01*
G01*
G37*
G36*
G01*
X137291360Y-141200000D02*
X137208640Y-141200000D01*
G75*
G02*
X137140000Y-141131360I0J68640D01*
G01*
X137140000Y-140868640D01*
G75*
G02*
X137208640Y-140800000I68640J0D01*
G01*
X137291360Y-140800000D01*
G75*
G02*
X137360000Y-140868640I0J-68640D01*
G01*
X137360000Y-141131360D01*
G75*
G02*
X137291360Y-141200000I-68640J0D01*
G01*
G37*
G36*
G01*
X137791360Y-141200000D02*
X137708640Y-141200000D01*
G75*
G02*
X137640000Y-141131360I0J68640D01*
G01*
X137640000Y-140868640D01*
G75*
G02*
X137708640Y-140800000I68640J0D01*
G01*
X137791360Y-140800000D01*
G75*
G02*
X137860000Y-140868640I0J-68640D01*
G01*
X137860000Y-141131360D01*
G75*
G02*
X137791360Y-141200000I-68640J0D01*
G01*
G37*
G36*
G01*
X136791360Y-141200000D02*
X136708640Y-141200000D01*
G75*
G02*
X136640000Y-141131360I0J68640D01*
G01*
X136640000Y-140868640D01*
G75*
G02*
X136708640Y-140800000I68640J0D01*
G01*
X136791360Y-140800000D01*
G75*
G02*
X136860000Y-140868640I0J-68640D01*
G01*
X136860000Y-141131360D01*
G75*
G02*
X136791360Y-141200000I-68640J0D01*
G01*
G37*
%TD*%
%TO.C,RA206*%
G36*
G01*
X132791360Y-140200000D02*
X132708640Y-140200000D01*
G75*
G02*
X132640000Y-140131360I0J68640D01*
G01*
X132640000Y-139868640D01*
G75*
G02*
X132708640Y-139800000I68640J0D01*
G01*
X132791360Y-139800000D01*
G75*
G02*
X132860000Y-139868640I0J-68640D01*
G01*
X132860000Y-140131360D01*
G75*
G02*
X132791360Y-140200000I-68640J0D01*
G01*
G37*
G36*
G01*
X132291360Y-140200000D02*
X132208640Y-140200000D01*
G75*
G02*
X132140000Y-140131360I0J68640D01*
G01*
X132140000Y-139868640D01*
G75*
G02*
X132208640Y-139800000I68640J0D01*
G01*
X132291360Y-139800000D01*
G75*
G02*
X132360000Y-139868640I0J-68640D01*
G01*
X132360000Y-140131360D01*
G75*
G02*
X132291360Y-140200000I-68640J0D01*
G01*
G37*
G36*
G01*
X131291360Y-140200000D02*
X131208640Y-140200000D01*
G75*
G02*
X131140000Y-140131360I0J68640D01*
G01*
X131140000Y-139868640D01*
G75*
G02*
X131208640Y-139800000I68640J0D01*
G01*
X131291360Y-139800000D01*
G75*
G02*
X131360000Y-139868640I0J-68640D01*
G01*
X131360000Y-140131360D01*
G75*
G02*
X131291360Y-140200000I-68640J0D01*
G01*
G37*
G36*
G01*
X131791360Y-140200000D02*
X131708640Y-140200000D01*
G75*
G02*
X131640000Y-140131360I0J68640D01*
G01*
X131640000Y-139868640D01*
G75*
G02*
X131708640Y-139800000I68640J0D01*
G01*
X131791360Y-139800000D01*
G75*
G02*
X131860000Y-139868640I0J-68640D01*
G01*
X131860000Y-140131360D01*
G75*
G02*
X131791360Y-140200000I-68640J0D01*
G01*
G37*
G36*
G01*
X132791360Y-141200000D02*
X132708640Y-141200000D01*
G75*
G02*
X132640000Y-141131360I0J68640D01*
G01*
X132640000Y-140868640D01*
G75*
G02*
X132708640Y-140800000I68640J0D01*
G01*
X132791360Y-140800000D01*
G75*
G02*
X132860000Y-140868640I0J-68640D01*
G01*
X132860000Y-141131360D01*
G75*
G02*
X132791360Y-141200000I-68640J0D01*
G01*
G37*
G36*
G01*
X131791360Y-141200000D02*
X131708640Y-141200000D01*
G75*
G02*
X131640000Y-141131360I0J68640D01*
G01*
X131640000Y-140868640D01*
G75*
G02*
X131708640Y-140800000I68640J0D01*
G01*
X131791360Y-140800000D01*
G75*
G02*
X131860000Y-140868640I0J-68640D01*
G01*
X131860000Y-141131360D01*
G75*
G02*
X131791360Y-141200000I-68640J0D01*
G01*
G37*
G36*
G01*
X132291360Y-141200000D02*
X132208640Y-141200000D01*
G75*
G02*
X132140000Y-141131360I0J68640D01*
G01*
X132140000Y-140868640D01*
G75*
G02*
X132208640Y-140800000I68640J0D01*
G01*
X132291360Y-140800000D01*
G75*
G02*
X132360000Y-140868640I0J-68640D01*
G01*
X132360000Y-141131360D01*
G75*
G02*
X132291360Y-141200000I-68640J0D01*
G01*
G37*
G36*
G01*
X131291360Y-141200000D02*
X131208640Y-141200000D01*
G75*
G02*
X131140000Y-141131360I0J68640D01*
G01*
X131140000Y-140868640D01*
G75*
G02*
X131208640Y-140800000I68640J0D01*
G01*
X131291360Y-140800000D01*
G75*
G02*
X131360000Y-140868640I0J-68640D01*
G01*
X131360000Y-141131360D01*
G75*
G02*
X131291360Y-141200000I-68640J0D01*
G01*
G37*
%TD*%
%TO.C,RA205*%
G36*
G01*
X140791360Y-140200000D02*
X140708640Y-140200000D01*
G75*
G02*
X140640000Y-140131360I0J68640D01*
G01*
X140640000Y-139868640D01*
G75*
G02*
X140708640Y-139800000I68640J0D01*
G01*
X140791360Y-139800000D01*
G75*
G02*
X140860000Y-139868640I0J-68640D01*
G01*
X140860000Y-140131360D01*
G75*
G02*
X140791360Y-140200000I-68640J0D01*
G01*
G37*
G36*
G01*
X140291360Y-140200000D02*
X140208640Y-140200000D01*
G75*
G02*
X140140000Y-140131360I0J68640D01*
G01*
X140140000Y-139868640D01*
G75*
G02*
X140208640Y-139800000I68640J0D01*
G01*
X140291360Y-139800000D01*
G75*
G02*
X140360000Y-139868640I0J-68640D01*
G01*
X140360000Y-140131360D01*
G75*
G02*
X140291360Y-140200000I-68640J0D01*
G01*
G37*
G36*
G01*
X139291360Y-140200000D02*
X139208640Y-140200000D01*
G75*
G02*
X139140000Y-140131360I0J68640D01*
G01*
X139140000Y-139868640D01*
G75*
G02*
X139208640Y-139800000I68640J0D01*
G01*
X139291360Y-139800000D01*
G75*
G02*
X139360000Y-139868640I0J-68640D01*
G01*
X139360000Y-140131360D01*
G75*
G02*
X139291360Y-140200000I-68640J0D01*
G01*
G37*
G36*
G01*
X139791360Y-140200000D02*
X139708640Y-140200000D01*
G75*
G02*
X139640000Y-140131360I0J68640D01*
G01*
X139640000Y-139868640D01*
G75*
G02*
X139708640Y-139800000I68640J0D01*
G01*
X139791360Y-139800000D01*
G75*
G02*
X139860000Y-139868640I0J-68640D01*
G01*
X139860000Y-140131360D01*
G75*
G02*
X139791360Y-140200000I-68640J0D01*
G01*
G37*
G36*
G01*
X140791360Y-141200000D02*
X140708640Y-141200000D01*
G75*
G02*
X140640000Y-141131360I0J68640D01*
G01*
X140640000Y-140868640D01*
G75*
G02*
X140708640Y-140800000I68640J0D01*
G01*
X140791360Y-140800000D01*
G75*
G02*
X140860000Y-140868640I0J-68640D01*
G01*
X140860000Y-141131360D01*
G75*
G02*
X140791360Y-141200000I-68640J0D01*
G01*
G37*
G36*
G01*
X139791360Y-141200000D02*
X139708640Y-141200000D01*
G75*
G02*
X139640000Y-141131360I0J68640D01*
G01*
X139640000Y-140868640D01*
G75*
G02*
X139708640Y-140800000I68640J0D01*
G01*
X139791360Y-140800000D01*
G75*
G02*
X139860000Y-140868640I0J-68640D01*
G01*
X139860000Y-141131360D01*
G75*
G02*
X139791360Y-141200000I-68640J0D01*
G01*
G37*
G36*
G01*
X140291360Y-141200000D02*
X140208640Y-141200000D01*
G75*
G02*
X140140000Y-141131360I0J68640D01*
G01*
X140140000Y-140868640D01*
G75*
G02*
X140208640Y-140800000I68640J0D01*
G01*
X140291360Y-140800000D01*
G75*
G02*
X140360000Y-140868640I0J-68640D01*
G01*
X140360000Y-141131360D01*
G75*
G02*
X140291360Y-141200000I-68640J0D01*
G01*
G37*
G36*
G01*
X139291360Y-141200000D02*
X139208640Y-141200000D01*
G75*
G02*
X139140000Y-141131360I0J68640D01*
G01*
X139140000Y-140868640D01*
G75*
G02*
X139208640Y-140800000I68640J0D01*
G01*
X139291360Y-140800000D01*
G75*
G02*
X139360000Y-140868640I0J-68640D01*
G01*
X139360000Y-141131360D01*
G75*
G02*
X139291360Y-141200000I-68640J0D01*
G01*
G37*
%TD*%
%TO.C,RA204*%
G36*
G01*
X135291360Y-140200000D02*
X135208640Y-140200000D01*
G75*
G02*
X135140000Y-140131360I0J68640D01*
G01*
X135140000Y-139868640D01*
G75*
G02*
X135208640Y-139800000I68640J0D01*
G01*
X135291360Y-139800000D01*
G75*
G02*
X135360000Y-139868640I0J-68640D01*
G01*
X135360000Y-140131360D01*
G75*
G02*
X135291360Y-140200000I-68640J0D01*
G01*
G37*
G36*
G01*
X134791360Y-140200000D02*
X134708640Y-140200000D01*
G75*
G02*
X134640000Y-140131360I0J68640D01*
G01*
X134640000Y-139868640D01*
G75*
G02*
X134708640Y-139800000I68640J0D01*
G01*
X134791360Y-139800000D01*
G75*
G02*
X134860000Y-139868640I0J-68640D01*
G01*
X134860000Y-140131360D01*
G75*
G02*
X134791360Y-140200000I-68640J0D01*
G01*
G37*
G36*
G01*
X133791360Y-140200000D02*
X133708640Y-140200000D01*
G75*
G02*
X133640000Y-140131360I0J68640D01*
G01*
X133640000Y-139868640D01*
G75*
G02*
X133708640Y-139800000I68640J0D01*
G01*
X133791360Y-139800000D01*
G75*
G02*
X133860000Y-139868640I0J-68640D01*
G01*
X133860000Y-140131360D01*
G75*
G02*
X133791360Y-140200000I-68640J0D01*
G01*
G37*
G36*
G01*
X134291360Y-140200000D02*
X134208640Y-140200000D01*
G75*
G02*
X134140000Y-140131360I0J68640D01*
G01*
X134140000Y-139868640D01*
G75*
G02*
X134208640Y-139800000I68640J0D01*
G01*
X134291360Y-139800000D01*
G75*
G02*
X134360000Y-139868640I0J-68640D01*
G01*
X134360000Y-140131360D01*
G75*
G02*
X134291360Y-140200000I-68640J0D01*
G01*
G37*
G36*
G01*
X135291360Y-141200000D02*
X135208640Y-141200000D01*
G75*
G02*
X135140000Y-141131360I0J68640D01*
G01*
X135140000Y-140868640D01*
G75*
G02*
X135208640Y-140800000I68640J0D01*
G01*
X135291360Y-140800000D01*
G75*
G02*
X135360000Y-140868640I0J-68640D01*
G01*
X135360000Y-141131360D01*
G75*
G02*
X135291360Y-141200000I-68640J0D01*
G01*
G37*
G36*
G01*
X134291360Y-141200000D02*
X134208640Y-141200000D01*
G75*
G02*
X134140000Y-141131360I0J68640D01*
G01*
X134140000Y-140868640D01*
G75*
G02*
X134208640Y-140800000I68640J0D01*
G01*
X134291360Y-140800000D01*
G75*
G02*
X134360000Y-140868640I0J-68640D01*
G01*
X134360000Y-141131360D01*
G75*
G02*
X134291360Y-141200000I-68640J0D01*
G01*
G37*
G36*
G01*
X134791360Y-141200000D02*
X134708640Y-141200000D01*
G75*
G02*
X134640000Y-141131360I0J68640D01*
G01*
X134640000Y-140868640D01*
G75*
G02*
X134708640Y-140800000I68640J0D01*
G01*
X134791360Y-140800000D01*
G75*
G02*
X134860000Y-140868640I0J-68640D01*
G01*
X134860000Y-141131360D01*
G75*
G02*
X134791360Y-141200000I-68640J0D01*
G01*
G37*
G36*
G01*
X133791360Y-141200000D02*
X133708640Y-141200000D01*
G75*
G02*
X133640000Y-141131360I0J68640D01*
G01*
X133640000Y-140868640D01*
G75*
G02*
X133708640Y-140800000I68640J0D01*
G01*
X133791360Y-140800000D01*
G75*
G02*
X133860000Y-140868640I0J-68640D01*
G01*
X133860000Y-141131360D01*
G75*
G02*
X133791360Y-141200000I-68640J0D01*
G01*
G37*
%TD*%
%TO.C,RA203*%
G36*
G01*
X154791360Y-140200000D02*
X154708640Y-140200000D01*
G75*
G02*
X154640000Y-140131360I0J68640D01*
G01*
X154640000Y-139868640D01*
G75*
G02*
X154708640Y-139800000I68640J0D01*
G01*
X154791360Y-139800000D01*
G75*
G02*
X154860000Y-139868640I0J-68640D01*
G01*
X154860000Y-140131360D01*
G75*
G02*
X154791360Y-140200000I-68640J0D01*
G01*
G37*
G36*
G01*
X154291360Y-140200000D02*
X154208640Y-140200000D01*
G75*
G02*
X154140000Y-140131360I0J68640D01*
G01*
X154140000Y-139868640D01*
G75*
G02*
X154208640Y-139800000I68640J0D01*
G01*
X154291360Y-139800000D01*
G75*
G02*
X154360000Y-139868640I0J-68640D01*
G01*
X154360000Y-140131360D01*
G75*
G02*
X154291360Y-140200000I-68640J0D01*
G01*
G37*
G36*
G01*
X153291360Y-140200000D02*
X153208640Y-140200000D01*
G75*
G02*
X153140000Y-140131360I0J68640D01*
G01*
X153140000Y-139868640D01*
G75*
G02*
X153208640Y-139800000I68640J0D01*
G01*
X153291360Y-139800000D01*
G75*
G02*
X153360000Y-139868640I0J-68640D01*
G01*
X153360000Y-140131360D01*
G75*
G02*
X153291360Y-140200000I-68640J0D01*
G01*
G37*
G36*
G01*
X153791360Y-140200000D02*
X153708640Y-140200000D01*
G75*
G02*
X153640000Y-140131360I0J68640D01*
G01*
X153640000Y-139868640D01*
G75*
G02*
X153708640Y-139800000I68640J0D01*
G01*
X153791360Y-139800000D01*
G75*
G02*
X153860000Y-139868640I0J-68640D01*
G01*
X153860000Y-140131360D01*
G75*
G02*
X153791360Y-140200000I-68640J0D01*
G01*
G37*
G36*
G01*
X154791360Y-141200000D02*
X154708640Y-141200000D01*
G75*
G02*
X154640000Y-141131360I0J68640D01*
G01*
X154640000Y-140868640D01*
G75*
G02*
X154708640Y-140800000I68640J0D01*
G01*
X154791360Y-140800000D01*
G75*
G02*
X154860000Y-140868640I0J-68640D01*
G01*
X154860000Y-141131360D01*
G75*
G02*
X154791360Y-141200000I-68640J0D01*
G01*
G37*
G36*
G01*
X153791360Y-141200000D02*
X153708640Y-141200000D01*
G75*
G02*
X153640000Y-141131360I0J68640D01*
G01*
X153640000Y-140868640D01*
G75*
G02*
X153708640Y-140800000I68640J0D01*
G01*
X153791360Y-140800000D01*
G75*
G02*
X153860000Y-140868640I0J-68640D01*
G01*
X153860000Y-141131360D01*
G75*
G02*
X153791360Y-141200000I-68640J0D01*
G01*
G37*
G36*
G01*
X154291360Y-141200000D02*
X154208640Y-141200000D01*
G75*
G02*
X154140000Y-141131360I0J68640D01*
G01*
X154140000Y-140868640D01*
G75*
G02*
X154208640Y-140800000I68640J0D01*
G01*
X154291360Y-140800000D01*
G75*
G02*
X154360000Y-140868640I0J-68640D01*
G01*
X154360000Y-141131360D01*
G75*
G02*
X154291360Y-141200000I-68640J0D01*
G01*
G37*
G36*
G01*
X153291360Y-141200000D02*
X153208640Y-141200000D01*
G75*
G02*
X153140000Y-141131360I0J68640D01*
G01*
X153140000Y-140868640D01*
G75*
G02*
X153208640Y-140800000I68640J0D01*
G01*
X153291360Y-140800000D01*
G75*
G02*
X153360000Y-140868640I0J-68640D01*
G01*
X153360000Y-141131360D01*
G75*
G02*
X153291360Y-141200000I-68640J0D01*
G01*
G37*
%TD*%
%TO.C,RA202*%
G36*
G01*
X149291360Y-140200000D02*
X149208640Y-140200000D01*
G75*
G02*
X149140000Y-140131360I0J68640D01*
G01*
X149140000Y-139868640D01*
G75*
G02*
X149208640Y-139800000I68640J0D01*
G01*
X149291360Y-139800000D01*
G75*
G02*
X149360000Y-139868640I0J-68640D01*
G01*
X149360000Y-140131360D01*
G75*
G02*
X149291360Y-140200000I-68640J0D01*
G01*
G37*
G36*
G01*
X148791360Y-140200000D02*
X148708640Y-140200000D01*
G75*
G02*
X148640000Y-140131360I0J68640D01*
G01*
X148640000Y-139868640D01*
G75*
G02*
X148708640Y-139800000I68640J0D01*
G01*
X148791360Y-139800000D01*
G75*
G02*
X148860000Y-139868640I0J-68640D01*
G01*
X148860000Y-140131360D01*
G75*
G02*
X148791360Y-140200000I-68640J0D01*
G01*
G37*
G36*
G01*
X147791360Y-140200000D02*
X147708640Y-140200000D01*
G75*
G02*
X147640000Y-140131360I0J68640D01*
G01*
X147640000Y-139868640D01*
G75*
G02*
X147708640Y-139800000I68640J0D01*
G01*
X147791360Y-139800000D01*
G75*
G02*
X147860000Y-139868640I0J-68640D01*
G01*
X147860000Y-140131360D01*
G75*
G02*
X147791360Y-140200000I-68640J0D01*
G01*
G37*
G36*
G01*
X148291360Y-140200000D02*
X148208640Y-140200000D01*
G75*
G02*
X148140000Y-140131360I0J68640D01*
G01*
X148140000Y-139868640D01*
G75*
G02*
X148208640Y-139800000I68640J0D01*
G01*
X148291360Y-139800000D01*
G75*
G02*
X148360000Y-139868640I0J-68640D01*
G01*
X148360000Y-140131360D01*
G75*
G02*
X148291360Y-140200000I-68640J0D01*
G01*
G37*
G36*
G01*
X149291360Y-141200000D02*
X149208640Y-141200000D01*
G75*
G02*
X149140000Y-141131360I0J68640D01*
G01*
X149140000Y-140868640D01*
G75*
G02*
X149208640Y-140800000I68640J0D01*
G01*
X149291360Y-140800000D01*
G75*
G02*
X149360000Y-140868640I0J-68640D01*
G01*
X149360000Y-141131360D01*
G75*
G02*
X149291360Y-141200000I-68640J0D01*
G01*
G37*
G36*
G01*
X148291360Y-141200000D02*
X148208640Y-141200000D01*
G75*
G02*
X148140000Y-141131360I0J68640D01*
G01*
X148140000Y-140868640D01*
G75*
G02*
X148208640Y-140800000I68640J0D01*
G01*
X148291360Y-140800000D01*
G75*
G02*
X148360000Y-140868640I0J-68640D01*
G01*
X148360000Y-141131360D01*
G75*
G02*
X148291360Y-141200000I-68640J0D01*
G01*
G37*
G36*
G01*
X148791360Y-141200000D02*
X148708640Y-141200000D01*
G75*
G02*
X148640000Y-141131360I0J68640D01*
G01*
X148640000Y-140868640D01*
G75*
G02*
X148708640Y-140800000I68640J0D01*
G01*
X148791360Y-140800000D01*
G75*
G02*
X148860000Y-140868640I0J-68640D01*
G01*
X148860000Y-141131360D01*
G75*
G02*
X148791360Y-141200000I-68640J0D01*
G01*
G37*
G36*
G01*
X147791360Y-141200000D02*
X147708640Y-141200000D01*
G75*
G02*
X147640000Y-141131360I0J68640D01*
G01*
X147640000Y-140868640D01*
G75*
G02*
X147708640Y-140800000I68640J0D01*
G01*
X147791360Y-140800000D01*
G75*
G02*
X147860000Y-140868640I0J-68640D01*
G01*
X147860000Y-141131360D01*
G75*
G02*
X147791360Y-141200000I-68640J0D01*
G01*
G37*
%TD*%
%TO.C,RA201*%
G36*
G01*
X168791360Y-140200000D02*
X168708640Y-140200000D01*
G75*
G02*
X168640000Y-140131360I0J68640D01*
G01*
X168640000Y-139868640D01*
G75*
G02*
X168708640Y-139800000I68640J0D01*
G01*
X168791360Y-139800000D01*
G75*
G02*
X168860000Y-139868640I0J-68640D01*
G01*
X168860000Y-140131360D01*
G75*
G02*
X168791360Y-140200000I-68640J0D01*
G01*
G37*
G36*
G01*
X168291360Y-140200000D02*
X168208640Y-140200000D01*
G75*
G02*
X168140000Y-140131360I0J68640D01*
G01*
X168140000Y-139868640D01*
G75*
G02*
X168208640Y-139800000I68640J0D01*
G01*
X168291360Y-139800000D01*
G75*
G02*
X168360000Y-139868640I0J-68640D01*
G01*
X168360000Y-140131360D01*
G75*
G02*
X168291360Y-140200000I-68640J0D01*
G01*
G37*
G36*
G01*
X167291360Y-140200000D02*
X167208640Y-140200000D01*
G75*
G02*
X167140000Y-140131360I0J68640D01*
G01*
X167140000Y-139868640D01*
G75*
G02*
X167208640Y-139800000I68640J0D01*
G01*
X167291360Y-139800000D01*
G75*
G02*
X167360000Y-139868640I0J-68640D01*
G01*
X167360000Y-140131360D01*
G75*
G02*
X167291360Y-140200000I-68640J0D01*
G01*
G37*
G36*
G01*
X167791360Y-140200000D02*
X167708640Y-140200000D01*
G75*
G02*
X167640000Y-140131360I0J68640D01*
G01*
X167640000Y-139868640D01*
G75*
G02*
X167708640Y-139800000I68640J0D01*
G01*
X167791360Y-139800000D01*
G75*
G02*
X167860000Y-139868640I0J-68640D01*
G01*
X167860000Y-140131360D01*
G75*
G02*
X167791360Y-140200000I-68640J0D01*
G01*
G37*
G36*
G01*
X168791360Y-141200000D02*
X168708640Y-141200000D01*
G75*
G02*
X168640000Y-141131360I0J68640D01*
G01*
X168640000Y-140868640D01*
G75*
G02*
X168708640Y-140800000I68640J0D01*
G01*
X168791360Y-140800000D01*
G75*
G02*
X168860000Y-140868640I0J-68640D01*
G01*
X168860000Y-141131360D01*
G75*
G02*
X168791360Y-141200000I-68640J0D01*
G01*
G37*
G36*
G01*
X167791360Y-141200000D02*
X167708640Y-141200000D01*
G75*
G02*
X167640000Y-141131360I0J68640D01*
G01*
X167640000Y-140868640D01*
G75*
G02*
X167708640Y-140800000I68640J0D01*
G01*
X167791360Y-140800000D01*
G75*
G02*
X167860000Y-140868640I0J-68640D01*
G01*
X167860000Y-141131360D01*
G75*
G02*
X167791360Y-141200000I-68640J0D01*
G01*
G37*
G36*
G01*
X168291360Y-141200000D02*
X168208640Y-141200000D01*
G75*
G02*
X168140000Y-141131360I0J68640D01*
G01*
X168140000Y-140868640D01*
G75*
G02*
X168208640Y-140800000I68640J0D01*
G01*
X168291360Y-140800000D01*
G75*
G02*
X168360000Y-140868640I0J-68640D01*
G01*
X168360000Y-141131360D01*
G75*
G02*
X168291360Y-141200000I-68640J0D01*
G01*
G37*
G36*
G01*
X167291360Y-141200000D02*
X167208640Y-141200000D01*
G75*
G02*
X167140000Y-141131360I0J68640D01*
G01*
X167140000Y-140868640D01*
G75*
G02*
X167208640Y-140800000I68640J0D01*
G01*
X167291360Y-140800000D01*
G75*
G02*
X167360000Y-140868640I0J-68640D01*
G01*
X167360000Y-141131360D01*
G75*
G02*
X167291360Y-141200000I-68640J0D01*
G01*
G37*
%TD*%
%TO.C,Q401*%
G36*
G01*
X115900000Y-135625000D02*
X115900000Y-135975000D01*
G75*
G02*
X115725000Y-136150000I-175000J0D01*
G01*
X115275000Y-136150000D01*
G75*
G02*
X115100000Y-135975000I0J175000D01*
G01*
X115100000Y-135625000D01*
G75*
G02*
X115275000Y-135450000I175000J0D01*
G01*
X115725000Y-135450000D01*
G75*
G02*
X115900000Y-135625000I0J-175000D01*
G01*
G37*
G36*
G01*
X117900000Y-134675000D02*
X117900000Y-135025000D01*
G75*
G02*
X117725000Y-135200000I-175000J0D01*
G01*
X117275000Y-135200000D01*
G75*
G02*
X117100000Y-135025000I0J175000D01*
G01*
X117100000Y-134675000D01*
G75*
G02*
X117275000Y-134500000I175000J0D01*
G01*
X117725000Y-134500000D01*
G75*
G02*
X117900000Y-134675000I0J-175000D01*
G01*
G37*
G36*
G01*
X117900000Y-136575000D02*
X117900000Y-136925000D01*
G75*
G02*
X117725000Y-137100000I-175000J0D01*
G01*
X117275000Y-137100000D01*
G75*
G02*
X117100000Y-136925000I0J175000D01*
G01*
X117100000Y-136575000D01*
G75*
G02*
X117275000Y-136400000I175000J0D01*
G01*
X117725000Y-136400000D01*
G75*
G02*
X117900000Y-136575000I0J-175000D01*
G01*
G37*
%TD*%
%TO.C,J302*%
G36*
G01*
X141573000Y-83740000D02*
X141573000Y-84920000D01*
G75*
G02*
X141438000Y-85055000I-135000J0D01*
G01*
X140808000Y-85055000D01*
G75*
G02*
X140673000Y-84920000I0J135000D01*
G01*
X140673000Y-83740000D01*
G75*
G02*
X140808000Y-83605000I135000J0D01*
G01*
X141438000Y-83605000D01*
G75*
G02*
X141573000Y-83740000I0J-135000D01*
G01*
G37*
G36*
G01*
X141773000Y-73095000D02*
X141773000Y-74215000D01*
G75*
G02*
X141633000Y-74355000I-140000J0D01*
G01*
X140513000Y-74355000D01*
G75*
G02*
X140373000Y-74215000I0J140000D01*
G01*
X140373000Y-73095000D01*
G75*
G02*
X140513000Y-72955000I140000J0D01*
G01*
X141633000Y-72955000D01*
G75*
G02*
X141773000Y-73095000I0J-140000D01*
G01*
G37*
G36*
G01*
X143823000Y-72855000D02*
X143823000Y-74205000D01*
G75*
G02*
X143673000Y-74355000I-150000J0D01*
G01*
X143373000Y-74355000D01*
G75*
G02*
X143223000Y-74205000I0J150000D01*
G01*
X143223000Y-72855000D01*
G75*
G02*
X143373000Y-72705000I150000J0D01*
G01*
X143673000Y-72705000D01*
G75*
G02*
X143823000Y-72855000I0J-150000D01*
G01*
G37*
G36*
G01*
X144923000Y-72855000D02*
X144923000Y-74205000D01*
G75*
G02*
X144773000Y-74355000I-150000J0D01*
G01*
X144473000Y-74355000D01*
G75*
G02*
X144323000Y-74205000I0J150000D01*
G01*
X144323000Y-72855000D01*
G75*
G02*
X144473000Y-72705000I150000J0D01*
G01*
X144773000Y-72705000D01*
G75*
G02*
X144923000Y-72855000I0J-150000D01*
G01*
G37*
G36*
G01*
X146023000Y-72855000D02*
X146023000Y-74205000D01*
G75*
G02*
X145873000Y-74355000I-150000J0D01*
G01*
X145573000Y-74355000D01*
G75*
G02*
X145423000Y-74205000I0J150000D01*
G01*
X145423000Y-72855000D01*
G75*
G02*
X145573000Y-72705000I150000J0D01*
G01*
X145873000Y-72705000D01*
G75*
G02*
X146023000Y-72855000I0J-150000D01*
G01*
G37*
G36*
G01*
X147123000Y-72855000D02*
X147123000Y-74205000D01*
G75*
G02*
X146973000Y-74355000I-150000J0D01*
G01*
X146673000Y-74355000D01*
G75*
G02*
X146523000Y-74205000I0J150000D01*
G01*
X146523000Y-72855000D01*
G75*
G02*
X146673000Y-72705000I150000J0D01*
G01*
X146973000Y-72705000D01*
G75*
G02*
X147123000Y-72855000I0J-150000D01*
G01*
G37*
G36*
G01*
X148223000Y-72855000D02*
X148223000Y-74205000D01*
G75*
G02*
X148073000Y-74355000I-150000J0D01*
G01*
X147773000Y-74355000D01*
G75*
G02*
X147623000Y-74205000I0J150000D01*
G01*
X147623000Y-72855000D01*
G75*
G02*
X147773000Y-72705000I150000J0D01*
G01*
X148073000Y-72705000D01*
G75*
G02*
X148223000Y-72855000I0J-150000D01*
G01*
G37*
G36*
G01*
X149323000Y-72855000D02*
X149323000Y-74205000D01*
G75*
G02*
X149173000Y-74355000I-150000J0D01*
G01*
X148873000Y-74355000D01*
G75*
G02*
X148723000Y-74205000I0J150000D01*
G01*
X148723000Y-72855000D01*
G75*
G02*
X148873000Y-72705000I150000J0D01*
G01*
X149173000Y-72705000D01*
G75*
G02*
X149323000Y-72855000I0J-150000D01*
G01*
G37*
G36*
G01*
X150423000Y-72855000D02*
X150423000Y-74205000D01*
G75*
G02*
X150273000Y-74355000I-150000J0D01*
G01*
X149973000Y-74355000D01*
G75*
G02*
X149823000Y-74205000I0J150000D01*
G01*
X149823000Y-72855000D01*
G75*
G02*
X149973000Y-72705000I150000J0D01*
G01*
X150273000Y-72705000D01*
G75*
G02*
X150423000Y-72855000I0J-150000D01*
G01*
G37*
G36*
G01*
X141073000Y-81386600D02*
X141073000Y-82423400D01*
G75*
G02*
X140941400Y-82555000I-131600J0D01*
G01*
X140504600Y-82555000D01*
G75*
G02*
X140373000Y-82423400I0J131600D01*
G01*
X140373000Y-81386600D01*
G75*
G02*
X140504600Y-81255000I131600J0D01*
G01*
X140941400Y-81255000D01*
G75*
G02*
X141073000Y-81386600I0J-131600D01*
G01*
G37*
G36*
G01*
X153023000Y-82440000D02*
X153023000Y-83070000D01*
G75*
G02*
X152888000Y-83205000I-135000J0D01*
G01*
X151808000Y-83205000D01*
G75*
G02*
X151673000Y-83070000I0J135000D01*
G01*
X151673000Y-82440000D01*
G75*
G02*
X151808000Y-82305000I135000J0D01*
G01*
X152888000Y-82305000D01*
G75*
G02*
X153023000Y-82440000I0J-135000D01*
G01*
G37*
G36*
G01*
X153023000Y-80686600D02*
X153023000Y-81823400D01*
G75*
G02*
X152891400Y-81955000I-131600J0D01*
G01*
X152454600Y-81955000D01*
G75*
G02*
X152323000Y-81823400I0J131600D01*
G01*
X152323000Y-80686600D01*
G75*
G02*
X152454600Y-80555000I131600J0D01*
G01*
X152891400Y-80555000D01*
G75*
G02*
X153023000Y-80686600I0J-131600D01*
G01*
G37*
G36*
G01*
X153023000Y-73093000D02*
X153023000Y-74217000D01*
G75*
G02*
X152885000Y-74355000I-138000J0D01*
G01*
X151961000Y-74355000D01*
G75*
G02*
X151823000Y-74217000I0J138000D01*
G01*
X151823000Y-73093000D01*
G75*
G02*
X151961000Y-72955000I138000J0D01*
G01*
X152885000Y-72955000D01*
G75*
G02*
X153023000Y-73093000I0J-138000D01*
G01*
G37*
G36*
G01*
X151523000Y-72855000D02*
X151523000Y-74205000D01*
G75*
G02*
X151373000Y-74355000I-150000J0D01*
G01*
X151073000Y-74355000D01*
G75*
G02*
X150923000Y-74205000I0J150000D01*
G01*
X150923000Y-72855000D01*
G75*
G02*
X151073000Y-72705000I150000J0D01*
G01*
X151373000Y-72705000D01*
G75*
G02*
X151523000Y-72855000I0J-150000D01*
G01*
G37*
%TD*%
%TO.C,FB202*%
G36*
G01*
X160825000Y-140200000D02*
X160675000Y-140200000D01*
G75*
G02*
X160600000Y-140125000I0J75000D01*
G01*
X160600000Y-139875000D01*
G75*
G02*
X160675000Y-139800000I75000J0D01*
G01*
X160825000Y-139800000D01*
G75*
G02*
X160900000Y-139875000I0J-75000D01*
G01*
X160900000Y-140125000D01*
G75*
G02*
X160825000Y-140200000I-75000J0D01*
G01*
G37*
G36*
G01*
X160283400Y-140200000D02*
X160216600Y-140200000D01*
G75*
G02*
X160150000Y-140133400I0J66600D01*
G01*
X160150000Y-139866600D01*
G75*
G02*
X160216600Y-139800000I66600J0D01*
G01*
X160283400Y-139800000D01*
G75*
G02*
X160350000Y-139866600I0J-66600D01*
G01*
X160350000Y-140133400D01*
G75*
G02*
X160283400Y-140200000I-66600J0D01*
G01*
G37*
G36*
G01*
X159325000Y-140200000D02*
X159175000Y-140200000D01*
G75*
G02*
X159100000Y-140125000I0J75000D01*
G01*
X159100000Y-139875000D01*
G75*
G02*
X159175000Y-139800000I75000J0D01*
G01*
X159325000Y-139800000D01*
G75*
G02*
X159400000Y-139875000I0J-75000D01*
G01*
X159400000Y-140125000D01*
G75*
G02*
X159325000Y-140200000I-75000J0D01*
G01*
G37*
G36*
G01*
X159783400Y-140200000D02*
X159716600Y-140200000D01*
G75*
G02*
X159650000Y-140133400I0J66600D01*
G01*
X159650000Y-139866600D01*
G75*
G02*
X159716600Y-139800000I66600J0D01*
G01*
X159783400Y-139800000D01*
G75*
G02*
X159850000Y-139866600I0J-66600D01*
G01*
X159850000Y-140133400D01*
G75*
G02*
X159783400Y-140200000I-66600J0D01*
G01*
G37*
G36*
G01*
X160825000Y-141200000D02*
X160675000Y-141200000D01*
G75*
G02*
X160600000Y-141125000I0J75000D01*
G01*
X160600000Y-140875000D01*
G75*
G02*
X160675000Y-140800000I75000J0D01*
G01*
X160825000Y-140800000D01*
G75*
G02*
X160900000Y-140875000I0J-75000D01*
G01*
X160900000Y-141125000D01*
G75*
G02*
X160825000Y-141200000I-75000J0D01*
G01*
G37*
G36*
G01*
X159783400Y-141200000D02*
X159716600Y-141200000D01*
G75*
G02*
X159650000Y-141133400I0J66600D01*
G01*
X159650000Y-140866600D01*
G75*
G02*
X159716600Y-140800000I66600J0D01*
G01*
X159783400Y-140800000D01*
G75*
G02*
X159850000Y-140866600I0J-66600D01*
G01*
X159850000Y-141133400D01*
G75*
G02*
X159783400Y-141200000I-66600J0D01*
G01*
G37*
G36*
G01*
X160283400Y-141200000D02*
X160216600Y-141200000D01*
G75*
G02*
X160150000Y-141133400I0J66600D01*
G01*
X160150000Y-140866600D01*
G75*
G02*
X160216600Y-140800000I66600J0D01*
G01*
X160283400Y-140800000D01*
G75*
G02*
X160350000Y-140866600I0J-66600D01*
G01*
X160350000Y-141133400D01*
G75*
G02*
X160283400Y-141200000I-66600J0D01*
G01*
G37*
G36*
G01*
X159325000Y-141200000D02*
X159175000Y-141200000D01*
G75*
G02*
X159100000Y-141125000I0J75000D01*
G01*
X159100000Y-140875000D01*
G75*
G02*
X159175000Y-140800000I75000J0D01*
G01*
X159325000Y-140800000D01*
G75*
G02*
X159400000Y-140875000I0J-75000D01*
G01*
X159400000Y-141125000D01*
G75*
G02*
X159325000Y-141200000I-75000J0D01*
G01*
G37*
%TD*%
%TO.C,FB201*%
G36*
G01*
X163325000Y-140200000D02*
X163175000Y-140200000D01*
G75*
G02*
X163100000Y-140125000I0J75000D01*
G01*
X163100000Y-139875000D01*
G75*
G02*
X163175000Y-139800000I75000J0D01*
G01*
X163325000Y-139800000D01*
G75*
G02*
X163400000Y-139875000I0J-75000D01*
G01*
X163400000Y-140125000D01*
G75*
G02*
X163325000Y-140200000I-75000J0D01*
G01*
G37*
G36*
G01*
X162783400Y-140200000D02*
X162716600Y-140200000D01*
G75*
G02*
X162650000Y-140133400I0J66600D01*
G01*
X162650000Y-139866600D01*
G75*
G02*
X162716600Y-139800000I66600J0D01*
G01*
X162783400Y-139800000D01*
G75*
G02*
X162850000Y-139866600I0J-66600D01*
G01*
X162850000Y-140133400D01*
G75*
G02*
X162783400Y-140200000I-66600J0D01*
G01*
G37*
G36*
G01*
X161825000Y-140200000D02*
X161675000Y-140200000D01*
G75*
G02*
X161600000Y-140125000I0J75000D01*
G01*
X161600000Y-139875000D01*
G75*
G02*
X161675000Y-139800000I75000J0D01*
G01*
X161825000Y-139800000D01*
G75*
G02*
X161900000Y-139875000I0J-75000D01*
G01*
X161900000Y-140125000D01*
G75*
G02*
X161825000Y-140200000I-75000J0D01*
G01*
G37*
G36*
G01*
X162283400Y-140200000D02*
X162216600Y-140200000D01*
G75*
G02*
X162150000Y-140133400I0J66600D01*
G01*
X162150000Y-139866600D01*
G75*
G02*
X162216600Y-139800000I66600J0D01*
G01*
X162283400Y-139800000D01*
G75*
G02*
X162350000Y-139866600I0J-66600D01*
G01*
X162350000Y-140133400D01*
G75*
G02*
X162283400Y-140200000I-66600J0D01*
G01*
G37*
G36*
G01*
X163325000Y-141200000D02*
X163175000Y-141200000D01*
G75*
G02*
X163100000Y-141125000I0J75000D01*
G01*
X163100000Y-140875000D01*
G75*
G02*
X163175000Y-140800000I75000J0D01*
G01*
X163325000Y-140800000D01*
G75*
G02*
X163400000Y-140875000I0J-75000D01*
G01*
X163400000Y-141125000D01*
G75*
G02*
X163325000Y-141200000I-75000J0D01*
G01*
G37*
G36*
G01*
X162283400Y-141200000D02*
X162216600Y-141200000D01*
G75*
G02*
X162150000Y-141133400I0J66600D01*
G01*
X162150000Y-140866600D01*
G75*
G02*
X162216600Y-140800000I66600J0D01*
G01*
X162283400Y-140800000D01*
G75*
G02*
X162350000Y-140866600I0J-66600D01*
G01*
X162350000Y-141133400D01*
G75*
G02*
X162283400Y-141200000I-66600J0D01*
G01*
G37*
G36*
G01*
X162783400Y-141200000D02*
X162716600Y-141200000D01*
G75*
G02*
X162650000Y-141133400I0J66600D01*
G01*
X162650000Y-140866600D01*
G75*
G02*
X162716600Y-140800000I66600J0D01*
G01*
X162783400Y-140800000D01*
G75*
G02*
X162850000Y-140866600I0J-66600D01*
G01*
X162850000Y-141133400D01*
G75*
G02*
X162783400Y-141200000I-66600J0D01*
G01*
G37*
G36*
G01*
X161825000Y-141200000D02*
X161675000Y-141200000D01*
G75*
G02*
X161600000Y-141125000I0J75000D01*
G01*
X161600000Y-140875000D01*
G75*
G02*
X161675000Y-140800000I75000J0D01*
G01*
X161825000Y-140800000D01*
G75*
G02*
X161900000Y-140875000I0J-75000D01*
G01*
X161900000Y-141125000D01*
G75*
G02*
X161825000Y-141200000I-75000J0D01*
G01*
G37*
%TD*%
%TO.C,BT401*%
G36*
G01*
X131015000Y-91207500D02*
X131015000Y-88092500D01*
G75*
G02*
X131207500Y-87900000I192500J0D01*
G01*
X133322500Y-87900000D01*
G75*
G02*
X133515000Y-88092500I0J-192500D01*
G01*
X133515000Y-91207500D01*
G75*
G02*
X133322500Y-91400000I-192500J0D01*
G01*
X131207500Y-91400000D01*
G75*
G02*
X131015000Y-91207500I0J192500D01*
G01*
G37*
G36*
G01*
X101715000Y-91207500D02*
X101715000Y-88092500D01*
G75*
G02*
X101907500Y-87900000I192500J0D01*
G01*
X104022500Y-87900000D01*
G75*
G02*
X104215000Y-88092500I0J-192500D01*
G01*
X104215000Y-91207500D01*
G75*
G02*
X104022500Y-91400000I-192500J0D01*
G01*
X101907500Y-91400000D01*
G75*
G02*
X101715000Y-91207500I0J192500D01*
G01*
G37*
%TD*%
%TO.C,R507*%
G36*
G01*
X158830000Y-76285000D02*
X158510000Y-76285000D01*
G75*
G02*
X158400000Y-76175000I0J110000D01*
G01*
X158400000Y-75955000D01*
G75*
G02*
X158510000Y-75845000I110000J0D01*
G01*
X158830000Y-75845000D01*
G75*
G02*
X158940000Y-75955000I0J-110000D01*
G01*
X158940000Y-76175000D01*
G75*
G02*
X158830000Y-76285000I-110000J0D01*
G01*
G37*
G36*
G01*
X158830000Y-77305000D02*
X158510000Y-77305000D01*
G75*
G02*
X158400000Y-77195000I0J110000D01*
G01*
X158400000Y-76975000D01*
G75*
G02*
X158510000Y-76865000I110000J0D01*
G01*
X158830000Y-76865000D01*
G75*
G02*
X158940000Y-76975000I0J-110000D01*
G01*
X158940000Y-77195000D01*
G75*
G02*
X158830000Y-77305000I-110000J0D01*
G01*
G37*
%TD*%
%TO.C,R506*%
G36*
G01*
X157780000Y-76285000D02*
X157460000Y-76285000D01*
G75*
G02*
X157350000Y-76175000I0J110000D01*
G01*
X157350000Y-75955000D01*
G75*
G02*
X157460000Y-75845000I110000J0D01*
G01*
X157780000Y-75845000D01*
G75*
G02*
X157890000Y-75955000I0J-110000D01*
G01*
X157890000Y-76175000D01*
G75*
G02*
X157780000Y-76285000I-110000J0D01*
G01*
G37*
G36*
G01*
X157780000Y-77305000D02*
X157460000Y-77305000D01*
G75*
G02*
X157350000Y-77195000I0J110000D01*
G01*
X157350000Y-76975000D01*
G75*
G02*
X157460000Y-76865000I110000J0D01*
G01*
X157780000Y-76865000D01*
G75*
G02*
X157890000Y-76975000I0J-110000D01*
G01*
X157890000Y-77195000D01*
G75*
G02*
X157780000Y-77305000I-110000J0D01*
G01*
G37*
%TD*%
%TO.C,D504*%
G36*
G01*
X159088750Y-74425000D02*
X159551250Y-74425000D01*
G75*
G02*
X159745000Y-74618750I0J-193750D01*
G01*
X159745000Y-75006250D01*
G75*
G02*
X159551250Y-75200000I-193750J0D01*
G01*
X159088750Y-75200000D01*
G75*
G02*
X158895000Y-75006250I0J193750D01*
G01*
X158895000Y-74618750D01*
G75*
G02*
X159088750Y-74425000I193750J0D01*
G01*
G37*
G36*
G01*
X159088750Y-72850000D02*
X159551250Y-72850000D01*
G75*
G02*
X159745000Y-73043750I0J-193750D01*
G01*
X159745000Y-73431250D01*
G75*
G02*
X159551250Y-73625000I-193750J0D01*
G01*
X159088750Y-73625000D01*
G75*
G02*
X158895000Y-73431250I0J193750D01*
G01*
X158895000Y-73043750D01*
G75*
G02*
X159088750Y-72850000I193750J0D01*
G01*
G37*
%TD*%
%TO.C,D503*%
G36*
G01*
X157588750Y-74425000D02*
X158051250Y-74425000D01*
G75*
G02*
X158245000Y-74618750I0J-193750D01*
G01*
X158245000Y-75006250D01*
G75*
G02*
X158051250Y-75200000I-193750J0D01*
G01*
X157588750Y-75200000D01*
G75*
G02*
X157395000Y-75006250I0J193750D01*
G01*
X157395000Y-74618750D01*
G75*
G02*
X157588750Y-74425000I193750J0D01*
G01*
G37*
G36*
G01*
X157588750Y-72850000D02*
X158051250Y-72850000D01*
G75*
G02*
X158245000Y-73043750I0J-193750D01*
G01*
X158245000Y-73431250D01*
G75*
G02*
X158051250Y-73625000I-193750J0D01*
G01*
X157588750Y-73625000D01*
G75*
G02*
X157395000Y-73431250I0J193750D01*
G01*
X157395000Y-73043750D01*
G75*
G02*
X157588750Y-72850000I193750J0D01*
G01*
G37*
%TD*%
%TO.C,L403*%
G36*
G01*
X119570000Y-125200000D02*
X117930000Y-125200000D01*
G75*
G02*
X117700000Y-124970000I0J230000D01*
G01*
X117700000Y-124280000D01*
G75*
G02*
X117930000Y-124050000I230000J0D01*
G01*
X119570000Y-124050000D01*
G75*
G02*
X119800000Y-124280000I0J-230000D01*
G01*
X119800000Y-124970000D01*
G75*
G02*
X119570000Y-125200000I-230000J0D01*
G01*
G37*
G36*
G01*
X119570000Y-127350000D02*
X117930000Y-127350000D01*
G75*
G02*
X117700000Y-127120000I0J230000D01*
G01*
X117700000Y-126430000D01*
G75*
G02*
X117930000Y-126200000I230000J0D01*
G01*
X119570000Y-126200000D01*
G75*
G02*
X119800000Y-126430000I0J-230000D01*
G01*
X119800000Y-127120000D01*
G75*
G02*
X119570000Y-127350000I-230000J0D01*
G01*
G37*
%TD*%
%TO.C,L402*%
G36*
G01*
X109670000Y-125200000D02*
X108030000Y-125200000D01*
G75*
G02*
X107800000Y-124970000I0J230000D01*
G01*
X107800000Y-124280000D01*
G75*
G02*
X108030000Y-124050000I230000J0D01*
G01*
X109670000Y-124050000D01*
G75*
G02*
X109900000Y-124280000I0J-230000D01*
G01*
X109900000Y-124970000D01*
G75*
G02*
X109670000Y-125200000I-230000J0D01*
G01*
G37*
G36*
G01*
X109670000Y-127350000D02*
X108030000Y-127350000D01*
G75*
G02*
X107800000Y-127120000I0J230000D01*
G01*
X107800000Y-126430000D01*
G75*
G02*
X108030000Y-126200000I230000J0D01*
G01*
X109670000Y-126200000D01*
G75*
G02*
X109900000Y-126430000I0J-230000D01*
G01*
X109900000Y-127120000D01*
G75*
G02*
X109670000Y-127350000I-230000J0D01*
G01*
G37*
%TD*%
%TO.C,D501*%
G36*
G01*
X154588750Y-74425000D02*
X155051250Y-74425000D01*
G75*
G02*
X155245000Y-74618750I0J-193750D01*
G01*
X155245000Y-75006250D01*
G75*
G02*
X155051250Y-75200000I-193750J0D01*
G01*
X154588750Y-75200000D01*
G75*
G02*
X154395000Y-75006250I0J193750D01*
G01*
X154395000Y-74618750D01*
G75*
G02*
X154588750Y-74425000I193750J0D01*
G01*
G37*
G36*
G01*
X154588750Y-72850000D02*
X155051250Y-72850000D01*
G75*
G02*
X155245000Y-73043750I0J-193750D01*
G01*
X155245000Y-73431250D01*
G75*
G02*
X155051250Y-73625000I-193750J0D01*
G01*
X154588750Y-73625000D01*
G75*
G02*
X154395000Y-73431250I0J193750D01*
G01*
X154395000Y-73043750D01*
G75*
G02*
X154588750Y-72850000I193750J0D01*
G01*
G37*
%TD*%
%TO.C,FB301*%
G36*
G01*
X170800000Y-80531250D02*
X170800000Y-80068750D01*
G75*
G02*
X170993750Y-79875000I193750J0D01*
G01*
X171381250Y-79875000D01*
G75*
G02*
X171575000Y-80068750I0J-193750D01*
G01*
X171575000Y-80531250D01*
G75*
G02*
X171381250Y-80725000I-193750J0D01*
G01*
X170993750Y-80725000D01*
G75*
G02*
X170800000Y-80531250I0J193750D01*
G01*
G37*
G36*
G01*
X169225000Y-80531250D02*
X169225000Y-80068750D01*
G75*
G02*
X169418750Y-79875000I193750J0D01*
G01*
X169806250Y-79875000D01*
G75*
G02*
X170000000Y-80068750I0J-193750D01*
G01*
X170000000Y-80531250D01*
G75*
G02*
X169806250Y-80725000I-193750J0D01*
G01*
X169418750Y-80725000D01*
G75*
G02*
X169225000Y-80531250I0J193750D01*
G01*
G37*
%TD*%
%TO.C,R502*%
G36*
G01*
X156730000Y-76285000D02*
X156410000Y-76285000D01*
G75*
G02*
X156300000Y-76175000I0J110000D01*
G01*
X156300000Y-75955000D01*
G75*
G02*
X156410000Y-75845000I110000J0D01*
G01*
X156730000Y-75845000D01*
G75*
G02*
X156840000Y-75955000I0J-110000D01*
G01*
X156840000Y-76175000D01*
G75*
G02*
X156730000Y-76285000I-110000J0D01*
G01*
G37*
G36*
G01*
X156730000Y-77305000D02*
X156410000Y-77305000D01*
G75*
G02*
X156300000Y-77195000I0J110000D01*
G01*
X156300000Y-76975000D01*
G75*
G02*
X156410000Y-76865000I110000J0D01*
G01*
X156730000Y-76865000D01*
G75*
G02*
X156840000Y-76975000I0J-110000D01*
G01*
X156840000Y-77195000D01*
G75*
G02*
X156730000Y-77305000I-110000J0D01*
G01*
G37*
%TD*%
%TO.C,R501*%
G36*
G01*
X155680000Y-76285000D02*
X155360000Y-76285000D01*
G75*
G02*
X155250000Y-76175000I0J110000D01*
G01*
X155250000Y-75955000D01*
G75*
G02*
X155360000Y-75845000I110000J0D01*
G01*
X155680000Y-75845000D01*
G75*
G02*
X155790000Y-75955000I0J-110000D01*
G01*
X155790000Y-76175000D01*
G75*
G02*
X155680000Y-76285000I-110000J0D01*
G01*
G37*
G36*
G01*
X155680000Y-77305000D02*
X155360000Y-77305000D01*
G75*
G02*
X155250000Y-77195000I0J110000D01*
G01*
X155250000Y-76975000D01*
G75*
G02*
X155360000Y-76865000I110000J0D01*
G01*
X155680000Y-76865000D01*
G75*
G02*
X155790000Y-76975000I0J-110000D01*
G01*
X155790000Y-77195000D01*
G75*
G02*
X155680000Y-77305000I-110000J0D01*
G01*
G37*
%TD*%
%TO.C,D502*%
G36*
G01*
X156088750Y-74425000D02*
X156551250Y-74425000D01*
G75*
G02*
X156745000Y-74618750I0J-193750D01*
G01*
X156745000Y-75006250D01*
G75*
G02*
X156551250Y-75200000I-193750J0D01*
G01*
X156088750Y-75200000D01*
G75*
G02*
X155895000Y-75006250I0J193750D01*
G01*
X155895000Y-74618750D01*
G75*
G02*
X156088750Y-74425000I193750J0D01*
G01*
G37*
G36*
G01*
X156088750Y-72850000D02*
X156551250Y-72850000D01*
G75*
G02*
X156745000Y-73043750I0J-193750D01*
G01*
X156745000Y-73431250D01*
G75*
G02*
X156551250Y-73625000I-193750J0D01*
G01*
X156088750Y-73625000D01*
G75*
G02*
X155895000Y-73431250I0J193750D01*
G01*
X155895000Y-73043750D01*
G75*
G02*
X156088750Y-72850000I193750J0D01*
G01*
G37*
%TD*%
%TO.C,U201*%
G36*
G01*
X158300000Y-130975000D02*
X158200000Y-130975000D01*
G75*
G02*
X158150000Y-130925000I0J50000D01*
G01*
X158150000Y-129650000D01*
G75*
G02*
X158200000Y-129600000I50000J0D01*
G01*
X158300000Y-129600000D01*
G75*
G02*
X158350000Y-129650000I0J-50000D01*
G01*
X158350000Y-130925000D01*
G75*
G02*
X158300000Y-130975000I-50000J0D01*
G01*
G37*
G36*
G01*
X158800000Y-130975000D02*
X158700000Y-130975000D01*
G75*
G02*
X158650000Y-130925000I0J50000D01*
G01*
X158650000Y-129650000D01*
G75*
G02*
X158700000Y-129600000I50000J0D01*
G01*
X158800000Y-129600000D01*
G75*
G02*
X158850000Y-129650000I0J-50000D01*
G01*
X158850000Y-130925000D01*
G75*
G02*
X158800000Y-130975000I-50000J0D01*
G01*
G37*
G36*
G01*
X159300000Y-130975000D02*
X159200000Y-130975000D01*
G75*
G02*
X159150000Y-130925000I0J50000D01*
G01*
X159150000Y-129650000D01*
G75*
G02*
X159200000Y-129600000I50000J0D01*
G01*
X159300000Y-129600000D01*
G75*
G02*
X159350000Y-129650000I0J-50000D01*
G01*
X159350000Y-130925000D01*
G75*
G02*
X159300000Y-130975000I-50000J0D01*
G01*
G37*
G36*
G01*
X159800000Y-130975000D02*
X159700000Y-130975000D01*
G75*
G02*
X159650000Y-130925000I0J50000D01*
G01*
X159650000Y-129650000D01*
G75*
G02*
X159700000Y-129600000I50000J0D01*
G01*
X159800000Y-129600000D01*
G75*
G02*
X159850000Y-129650000I0J-50000D01*
G01*
X159850000Y-130925000D01*
G75*
G02*
X159800000Y-130975000I-50000J0D01*
G01*
G37*
G36*
G01*
X160300000Y-130975000D02*
X160200000Y-130975000D01*
G75*
G02*
X160150000Y-130925000I0J50000D01*
G01*
X160150000Y-129650000D01*
G75*
G02*
X160200000Y-129600000I50000J0D01*
G01*
X160300000Y-129600000D01*
G75*
G02*
X160350000Y-129650000I0J-50000D01*
G01*
X160350000Y-130925000D01*
G75*
G02*
X160300000Y-130975000I-50000J0D01*
G01*
G37*
G36*
G01*
X160800000Y-130975000D02*
X160700000Y-130975000D01*
G75*
G02*
X160650000Y-130925000I0J50000D01*
G01*
X160650000Y-129650000D01*
G75*
G02*
X160700000Y-129600000I50000J0D01*
G01*
X160800000Y-129600000D01*
G75*
G02*
X160850000Y-129650000I0J-50000D01*
G01*
X160850000Y-130925000D01*
G75*
G02*
X160800000Y-130975000I-50000J0D01*
G01*
G37*
G36*
G01*
X161300000Y-130975000D02*
X161200000Y-130975000D01*
G75*
G02*
X161150000Y-130925000I0J50000D01*
G01*
X161150000Y-129650000D01*
G75*
G02*
X161200000Y-129600000I50000J0D01*
G01*
X161300000Y-129600000D01*
G75*
G02*
X161350000Y-129650000I0J-50000D01*
G01*
X161350000Y-130925000D01*
G75*
G02*
X161300000Y-130975000I-50000J0D01*
G01*
G37*
G36*
G01*
X161800000Y-130975000D02*
X161700000Y-130975000D01*
G75*
G02*
X161650000Y-130925000I0J50000D01*
G01*
X161650000Y-129650000D01*
G75*
G02*
X161700000Y-129600000I50000J0D01*
G01*
X161800000Y-129600000D01*
G75*
G02*
X161850000Y-129650000I0J-50000D01*
G01*
X161850000Y-130925000D01*
G75*
G02*
X161800000Y-130975000I-50000J0D01*
G01*
G37*
G36*
G01*
X162300000Y-130975000D02*
X162200000Y-130975000D01*
G75*
G02*
X162150000Y-130925000I0J50000D01*
G01*
X162150000Y-129650000D01*
G75*
G02*
X162200000Y-129600000I50000J0D01*
G01*
X162300000Y-129600000D01*
G75*
G02*
X162350000Y-129650000I0J-50000D01*
G01*
X162350000Y-130925000D01*
G75*
G02*
X162300000Y-130975000I-50000J0D01*
G01*
G37*
G36*
G01*
X162800000Y-130975000D02*
X162700000Y-130975000D01*
G75*
G02*
X162650000Y-130925000I0J50000D01*
G01*
X162650000Y-129650000D01*
G75*
G02*
X162700000Y-129600000I50000J0D01*
G01*
X162800000Y-129600000D01*
G75*
G02*
X162850000Y-129650000I0J-50000D01*
G01*
X162850000Y-130925000D01*
G75*
G02*
X162800000Y-130975000I-50000J0D01*
G01*
G37*
G36*
G01*
X163300000Y-130975000D02*
X163200000Y-130975000D01*
G75*
G02*
X163150000Y-130925000I0J50000D01*
G01*
X163150000Y-129650000D01*
G75*
G02*
X163200000Y-129600000I50000J0D01*
G01*
X163300000Y-129600000D01*
G75*
G02*
X163350000Y-129650000I0J-50000D01*
G01*
X163350000Y-130925000D01*
G75*
G02*
X163300000Y-130975000I-50000J0D01*
G01*
G37*
G36*
G01*
X163800000Y-130975000D02*
X163700000Y-130975000D01*
G75*
G02*
X163650000Y-130925000I0J50000D01*
G01*
X163650000Y-129650000D01*
G75*
G02*
X163700000Y-129600000I50000J0D01*
G01*
X163800000Y-129600000D01*
G75*
G02*
X163850000Y-129650000I0J-50000D01*
G01*
X163850000Y-130925000D01*
G75*
G02*
X163800000Y-130975000I-50000J0D01*
G01*
G37*
G36*
G01*
X164300000Y-130975000D02*
X164200000Y-130975000D01*
G75*
G02*
X164150000Y-130925000I0J50000D01*
G01*
X164150000Y-129650000D01*
G75*
G02*
X164200000Y-129600000I50000J0D01*
G01*
X164300000Y-129600000D01*
G75*
G02*
X164350000Y-129650000I0J-50000D01*
G01*
X164350000Y-130925000D01*
G75*
G02*
X164300000Y-130975000I-50000J0D01*
G01*
G37*
G36*
G01*
X164800000Y-130975000D02*
X164700000Y-130975000D01*
G75*
G02*
X164650000Y-130925000I0J50000D01*
G01*
X164650000Y-129650000D01*
G75*
G02*
X164700000Y-129600000I50000J0D01*
G01*
X164800000Y-129600000D01*
G75*
G02*
X164850000Y-129650000I0J-50000D01*
G01*
X164850000Y-130925000D01*
G75*
G02*
X164800000Y-130975000I-50000J0D01*
G01*
G37*
G36*
G01*
X165300000Y-130975000D02*
X165200000Y-130975000D01*
G75*
G02*
X165150000Y-130925000I0J50000D01*
G01*
X165150000Y-129650000D01*
G75*
G02*
X165200000Y-129600000I50000J0D01*
G01*
X165300000Y-129600000D01*
G75*
G02*
X165350000Y-129650000I0J-50000D01*
G01*
X165350000Y-130925000D01*
G75*
G02*
X165300000Y-130975000I-50000J0D01*
G01*
G37*
G36*
G01*
X165800000Y-130975000D02*
X165700000Y-130975000D01*
G75*
G02*
X165650000Y-130925000I0J50000D01*
G01*
X165650000Y-129650000D01*
G75*
G02*
X165700000Y-129600000I50000J0D01*
G01*
X165800000Y-129600000D01*
G75*
G02*
X165850000Y-129650000I0J-50000D01*
G01*
X165850000Y-130925000D01*
G75*
G02*
X165800000Y-130975000I-50000J0D01*
G01*
G37*
G36*
G01*
X166300000Y-130975000D02*
X166200000Y-130975000D01*
G75*
G02*
X166150000Y-130925000I0J50000D01*
G01*
X166150000Y-129650000D01*
G75*
G02*
X166200000Y-129600000I50000J0D01*
G01*
X166300000Y-129600000D01*
G75*
G02*
X166350000Y-129650000I0J-50000D01*
G01*
X166350000Y-130925000D01*
G75*
G02*
X166300000Y-130975000I-50000J0D01*
G01*
G37*
G36*
G01*
X166800000Y-130975000D02*
X166700000Y-130975000D01*
G75*
G02*
X166650000Y-130925000I0J50000D01*
G01*
X166650000Y-129650000D01*
G75*
G02*
X166700000Y-129600000I50000J0D01*
G01*
X166800000Y-129600000D01*
G75*
G02*
X166850000Y-129650000I0J-50000D01*
G01*
X166850000Y-130925000D01*
G75*
G02*
X166800000Y-130975000I-50000J0D01*
G01*
G37*
G36*
G01*
X167300000Y-130975000D02*
X167200000Y-130975000D01*
G75*
G02*
X167150000Y-130925000I0J50000D01*
G01*
X167150000Y-129650000D01*
G75*
G02*
X167200000Y-129600000I50000J0D01*
G01*
X167300000Y-129600000D01*
G75*
G02*
X167350000Y-129650000I0J-50000D01*
G01*
X167350000Y-130925000D01*
G75*
G02*
X167300000Y-130975000I-50000J0D01*
G01*
G37*
G36*
G01*
X167800000Y-130975000D02*
X167700000Y-130975000D01*
G75*
G02*
X167650000Y-130925000I0J50000D01*
G01*
X167650000Y-129650000D01*
G75*
G02*
X167700000Y-129600000I50000J0D01*
G01*
X167800000Y-129600000D01*
G75*
G02*
X167850000Y-129650000I0J-50000D01*
G01*
X167850000Y-130925000D01*
G75*
G02*
X167800000Y-130975000I-50000J0D01*
G01*
G37*
G36*
G01*
X168300000Y-130975000D02*
X168200000Y-130975000D01*
G75*
G02*
X168150000Y-130925000I0J50000D01*
G01*
X168150000Y-129650000D01*
G75*
G02*
X168200000Y-129600000I50000J0D01*
G01*
X168300000Y-129600000D01*
G75*
G02*
X168350000Y-129650000I0J-50000D01*
G01*
X168350000Y-130925000D01*
G75*
G02*
X168300000Y-130975000I-50000J0D01*
G01*
G37*
G36*
G01*
X168800000Y-130975000D02*
X168700000Y-130975000D01*
G75*
G02*
X168650000Y-130925000I0J50000D01*
G01*
X168650000Y-129650000D01*
G75*
G02*
X168700000Y-129600000I50000J0D01*
G01*
X168800000Y-129600000D01*
G75*
G02*
X168850000Y-129650000I0J-50000D01*
G01*
X168850000Y-130925000D01*
G75*
G02*
X168800000Y-130975000I-50000J0D01*
G01*
G37*
G36*
G01*
X169300000Y-130975000D02*
X169200000Y-130975000D01*
G75*
G02*
X169150000Y-130925000I0J50000D01*
G01*
X169150000Y-129650000D01*
G75*
G02*
X169200000Y-129600000I50000J0D01*
G01*
X169300000Y-129600000D01*
G75*
G02*
X169350000Y-129650000I0J-50000D01*
G01*
X169350000Y-130925000D01*
G75*
G02*
X169300000Y-130975000I-50000J0D01*
G01*
G37*
G36*
G01*
X169800000Y-130975000D02*
X169700000Y-130975000D01*
G75*
G02*
X169650000Y-130925000I0J50000D01*
G01*
X169650000Y-129650000D01*
G75*
G02*
X169700000Y-129600000I50000J0D01*
G01*
X169800000Y-129600000D01*
G75*
G02*
X169850000Y-129650000I0J-50000D01*
G01*
X169850000Y-130925000D01*
G75*
G02*
X169800000Y-130975000I-50000J0D01*
G01*
G37*
G36*
G01*
X169800000Y-138400000D02*
X169700000Y-138400000D01*
G75*
G02*
X169650000Y-138350000I0J50000D01*
G01*
X169650000Y-137075000D01*
G75*
G02*
X169700000Y-137025000I50000J0D01*
G01*
X169800000Y-137025000D01*
G75*
G02*
X169850000Y-137075000I0J-50000D01*
G01*
X169850000Y-138350000D01*
G75*
G02*
X169800000Y-138400000I-50000J0D01*
G01*
G37*
G36*
G01*
X169300000Y-138400000D02*
X169200000Y-138400000D01*
G75*
G02*
X169150000Y-138350000I0J50000D01*
G01*
X169150000Y-137075000D01*
G75*
G02*
X169200000Y-137025000I50000J0D01*
G01*
X169300000Y-137025000D01*
G75*
G02*
X169350000Y-137075000I0J-50000D01*
G01*
X169350000Y-138350000D01*
G75*
G02*
X169300000Y-138400000I-50000J0D01*
G01*
G37*
G36*
G01*
X168800000Y-138400000D02*
X168700000Y-138400000D01*
G75*
G02*
X168650000Y-138350000I0J50000D01*
G01*
X168650000Y-137075000D01*
G75*
G02*
X168700000Y-137025000I50000J0D01*
G01*
X168800000Y-137025000D01*
G75*
G02*
X168850000Y-137075000I0J-50000D01*
G01*
X168850000Y-138350000D01*
G75*
G02*
X168800000Y-138400000I-50000J0D01*
G01*
G37*
G36*
G01*
X168300000Y-138400000D02*
X168200000Y-138400000D01*
G75*
G02*
X168150000Y-138350000I0J50000D01*
G01*
X168150000Y-137075000D01*
G75*
G02*
X168200000Y-137025000I50000J0D01*
G01*
X168300000Y-137025000D01*
G75*
G02*
X168350000Y-137075000I0J-50000D01*
G01*
X168350000Y-138350000D01*
G75*
G02*
X168300000Y-138400000I-50000J0D01*
G01*
G37*
G36*
G01*
X167800000Y-138400000D02*
X167700000Y-138400000D01*
G75*
G02*
X167650000Y-138350000I0J50000D01*
G01*
X167650000Y-137075000D01*
G75*
G02*
X167700000Y-137025000I50000J0D01*
G01*
X167800000Y-137025000D01*
G75*
G02*
X167850000Y-137075000I0J-50000D01*
G01*
X167850000Y-138350000D01*
G75*
G02*
X167800000Y-138400000I-50000J0D01*
G01*
G37*
G36*
G01*
X167300000Y-138400000D02*
X167200000Y-138400000D01*
G75*
G02*
X167150000Y-138350000I0J50000D01*
G01*
X167150000Y-137075000D01*
G75*
G02*
X167200000Y-137025000I50000J0D01*
G01*
X167300000Y-137025000D01*
G75*
G02*
X167350000Y-137075000I0J-50000D01*
G01*
X167350000Y-138350000D01*
G75*
G02*
X167300000Y-138400000I-50000J0D01*
G01*
G37*
G36*
G01*
X166800000Y-138400000D02*
X166700000Y-138400000D01*
G75*
G02*
X166650000Y-138350000I0J50000D01*
G01*
X166650000Y-137075000D01*
G75*
G02*
X166700000Y-137025000I50000J0D01*
G01*
X166800000Y-137025000D01*
G75*
G02*
X166850000Y-137075000I0J-50000D01*
G01*
X166850000Y-138350000D01*
G75*
G02*
X166800000Y-138400000I-50000J0D01*
G01*
G37*
G36*
G01*
X166300000Y-138400000D02*
X166200000Y-138400000D01*
G75*
G02*
X166150000Y-138350000I0J50000D01*
G01*
X166150000Y-137075000D01*
G75*
G02*
X166200000Y-137025000I50000J0D01*
G01*
X166300000Y-137025000D01*
G75*
G02*
X166350000Y-137075000I0J-50000D01*
G01*
X166350000Y-138350000D01*
G75*
G02*
X166300000Y-138400000I-50000J0D01*
G01*
G37*
G36*
G01*
X165800000Y-138400000D02*
X165700000Y-138400000D01*
G75*
G02*
X165650000Y-138350000I0J50000D01*
G01*
X165650000Y-137075000D01*
G75*
G02*
X165700000Y-137025000I50000J0D01*
G01*
X165800000Y-137025000D01*
G75*
G02*
X165850000Y-137075000I0J-50000D01*
G01*
X165850000Y-138350000D01*
G75*
G02*
X165800000Y-138400000I-50000J0D01*
G01*
G37*
G36*
G01*
X165300000Y-138400000D02*
X165200000Y-138400000D01*
G75*
G02*
X165150000Y-138350000I0J50000D01*
G01*
X165150000Y-137075000D01*
G75*
G02*
X165200000Y-137025000I50000J0D01*
G01*
X165300000Y-137025000D01*
G75*
G02*
X165350000Y-137075000I0J-50000D01*
G01*
X165350000Y-138350000D01*
G75*
G02*
X165300000Y-138400000I-50000J0D01*
G01*
G37*
G36*
G01*
X164800000Y-138400000D02*
X164700000Y-138400000D01*
G75*
G02*
X164650000Y-138350000I0J50000D01*
G01*
X164650000Y-137075000D01*
G75*
G02*
X164700000Y-137025000I50000J0D01*
G01*
X164800000Y-137025000D01*
G75*
G02*
X164850000Y-137075000I0J-50000D01*
G01*
X164850000Y-138350000D01*
G75*
G02*
X164800000Y-138400000I-50000J0D01*
G01*
G37*
G36*
G01*
X164300000Y-138400000D02*
X164200000Y-138400000D01*
G75*
G02*
X164150000Y-138350000I0J50000D01*
G01*
X164150000Y-137075000D01*
G75*
G02*
X164200000Y-137025000I50000J0D01*
G01*
X164300000Y-137025000D01*
G75*
G02*
X164350000Y-137075000I0J-50000D01*
G01*
X164350000Y-138350000D01*
G75*
G02*
X164300000Y-138400000I-50000J0D01*
G01*
G37*
G36*
G01*
X163800000Y-138400000D02*
X163700000Y-138400000D01*
G75*
G02*
X163650000Y-138350000I0J50000D01*
G01*
X163650000Y-137075000D01*
G75*
G02*
X163700000Y-137025000I50000J0D01*
G01*
X163800000Y-137025000D01*
G75*
G02*
X163850000Y-137075000I0J-50000D01*
G01*
X163850000Y-138350000D01*
G75*
G02*
X163800000Y-138400000I-50000J0D01*
G01*
G37*
G36*
G01*
X163300000Y-138400000D02*
X163200000Y-138400000D01*
G75*
G02*
X163150000Y-138350000I0J50000D01*
G01*
X163150000Y-137075000D01*
G75*
G02*
X163200000Y-137025000I50000J0D01*
G01*
X163300000Y-137025000D01*
G75*
G02*
X163350000Y-137075000I0J-50000D01*
G01*
X163350000Y-138350000D01*
G75*
G02*
X163300000Y-138400000I-50000J0D01*
G01*
G37*
G36*
G01*
X162800000Y-138400000D02*
X162700000Y-138400000D01*
G75*
G02*
X162650000Y-138350000I0J50000D01*
G01*
X162650000Y-137075000D01*
G75*
G02*
X162700000Y-137025000I50000J0D01*
G01*
X162800000Y-137025000D01*
G75*
G02*
X162850000Y-137075000I0J-50000D01*
G01*
X162850000Y-138350000D01*
G75*
G02*
X162800000Y-138400000I-50000J0D01*
G01*
G37*
G36*
G01*
X162300000Y-138400000D02*
X162200000Y-138400000D01*
G75*
G02*
X162150000Y-138350000I0J50000D01*
G01*
X162150000Y-137075000D01*
G75*
G02*
X162200000Y-137025000I50000J0D01*
G01*
X162300000Y-137025000D01*
G75*
G02*
X162350000Y-137075000I0J-50000D01*
G01*
X162350000Y-138350000D01*
G75*
G02*
X162300000Y-138400000I-50000J0D01*
G01*
G37*
G36*
G01*
X161800000Y-138400000D02*
X161700000Y-138400000D01*
G75*
G02*
X161650000Y-138350000I0J50000D01*
G01*
X161650000Y-137075000D01*
G75*
G02*
X161700000Y-137025000I50000J0D01*
G01*
X161800000Y-137025000D01*
G75*
G02*
X161850000Y-137075000I0J-50000D01*
G01*
X161850000Y-138350000D01*
G75*
G02*
X161800000Y-138400000I-50000J0D01*
G01*
G37*
G36*
G01*
X161300000Y-138400000D02*
X161200000Y-138400000D01*
G75*
G02*
X161150000Y-138350000I0J50000D01*
G01*
X161150000Y-137075000D01*
G75*
G02*
X161200000Y-137025000I50000J0D01*
G01*
X161300000Y-137025000D01*
G75*
G02*
X161350000Y-137075000I0J-50000D01*
G01*
X161350000Y-138350000D01*
G75*
G02*
X161300000Y-138400000I-50000J0D01*
G01*
G37*
G36*
G01*
X160800000Y-138400000D02*
X160700000Y-138400000D01*
G75*
G02*
X160650000Y-138350000I0J50000D01*
G01*
X160650000Y-137075000D01*
G75*
G02*
X160700000Y-137025000I50000J0D01*
G01*
X160800000Y-137025000D01*
G75*
G02*
X160850000Y-137075000I0J-50000D01*
G01*
X160850000Y-138350000D01*
G75*
G02*
X160800000Y-138400000I-50000J0D01*
G01*
G37*
G36*
G01*
X160300000Y-138400000D02*
X160200000Y-138400000D01*
G75*
G02*
X160150000Y-138350000I0J50000D01*
G01*
X160150000Y-137075000D01*
G75*
G02*
X160200000Y-137025000I50000J0D01*
G01*
X160300000Y-137025000D01*
G75*
G02*
X160350000Y-137075000I0J-50000D01*
G01*
X160350000Y-138350000D01*
G75*
G02*
X160300000Y-138400000I-50000J0D01*
G01*
G37*
G36*
G01*
X159800000Y-138400000D02*
X159700000Y-138400000D01*
G75*
G02*
X159650000Y-138350000I0J50000D01*
G01*
X159650000Y-137075000D01*
G75*
G02*
X159700000Y-137025000I50000J0D01*
G01*
X159800000Y-137025000D01*
G75*
G02*
X159850000Y-137075000I0J-50000D01*
G01*
X159850000Y-138350000D01*
G75*
G02*
X159800000Y-138400000I-50000J0D01*
G01*
G37*
G36*
G01*
X159300000Y-138400000D02*
X159200000Y-138400000D01*
G75*
G02*
X159150000Y-138350000I0J50000D01*
G01*
X159150000Y-137075000D01*
G75*
G02*
X159200000Y-137025000I50000J0D01*
G01*
X159300000Y-137025000D01*
G75*
G02*
X159350000Y-137075000I0J-50000D01*
G01*
X159350000Y-138350000D01*
G75*
G02*
X159300000Y-138400000I-50000J0D01*
G01*
G37*
G36*
G01*
X158800000Y-138400000D02*
X158700000Y-138400000D01*
G75*
G02*
X158650000Y-138350000I0J50000D01*
G01*
X158650000Y-137075000D01*
G75*
G02*
X158700000Y-137025000I50000J0D01*
G01*
X158800000Y-137025000D01*
G75*
G02*
X158850000Y-137075000I0J-50000D01*
G01*
X158850000Y-138350000D01*
G75*
G02*
X158800000Y-138400000I-50000J0D01*
G01*
G37*
G36*
G01*
X158300000Y-138400000D02*
X158200000Y-138400000D01*
G75*
G02*
X158150000Y-138350000I0J50000D01*
G01*
X158150000Y-137075000D01*
G75*
G02*
X158200000Y-137025000I50000J0D01*
G01*
X158300000Y-137025000D01*
G75*
G02*
X158350000Y-137075000I0J-50000D01*
G01*
X158350000Y-138350000D01*
G75*
G02*
X158300000Y-138400000I-50000J0D01*
G01*
G37*
%TD*%
%TO.C,U301*%
G36*
G01*
X184689000Y-105817500D02*
X184689000Y-105892500D01*
G75*
G02*
X184651500Y-105930000I-37500J0D01*
G01*
X183351500Y-105930000D01*
G75*
G02*
X183314000Y-105892500I0J37500D01*
G01*
X183314000Y-105817500D01*
G75*
G02*
X183351500Y-105780000I37500J0D01*
G01*
X184651500Y-105780000D01*
G75*
G02*
X184689000Y-105817500I0J-37500D01*
G01*
G37*
G36*
G01*
X184689000Y-105317500D02*
X184689000Y-105392500D01*
G75*
G02*
X184651500Y-105430000I-37500J0D01*
G01*
X183351500Y-105430000D01*
G75*
G02*
X183314000Y-105392500I0J37500D01*
G01*
X183314000Y-105317500D01*
G75*
G02*
X183351500Y-105280000I37500J0D01*
G01*
X184651500Y-105280000D01*
G75*
G02*
X184689000Y-105317500I0J-37500D01*
G01*
G37*
G36*
G01*
X184689000Y-104817500D02*
X184689000Y-104892500D01*
G75*
G02*
X184651500Y-104930000I-37500J0D01*
G01*
X183351500Y-104930000D01*
G75*
G02*
X183314000Y-104892500I0J37500D01*
G01*
X183314000Y-104817500D01*
G75*
G02*
X183351500Y-104780000I37500J0D01*
G01*
X184651500Y-104780000D01*
G75*
G02*
X184689000Y-104817500I0J-37500D01*
G01*
G37*
G36*
G01*
X184689000Y-104317500D02*
X184689000Y-104392500D01*
G75*
G02*
X184651500Y-104430000I-37500J0D01*
G01*
X183351500Y-104430000D01*
G75*
G02*
X183314000Y-104392500I0J37500D01*
G01*
X183314000Y-104317500D01*
G75*
G02*
X183351500Y-104280000I37500J0D01*
G01*
X184651500Y-104280000D01*
G75*
G02*
X184689000Y-104317500I0J-37500D01*
G01*
G37*
G36*
G01*
X184689000Y-103817500D02*
X184689000Y-103892500D01*
G75*
G02*
X184651500Y-103930000I-37500J0D01*
G01*
X183351500Y-103930000D01*
G75*
G02*
X183314000Y-103892500I0J37500D01*
G01*
X183314000Y-103817500D01*
G75*
G02*
X183351500Y-103780000I37500J0D01*
G01*
X184651500Y-103780000D01*
G75*
G02*
X184689000Y-103817500I0J-37500D01*
G01*
G37*
G36*
G01*
X184689000Y-103317500D02*
X184689000Y-103392500D01*
G75*
G02*
X184651500Y-103430000I-37500J0D01*
G01*
X183351500Y-103430000D01*
G75*
G02*
X183314000Y-103392500I0J37500D01*
G01*
X183314000Y-103317500D01*
G75*
G02*
X183351500Y-103280000I37500J0D01*
G01*
X184651500Y-103280000D01*
G75*
G02*
X184689000Y-103317500I0J-37500D01*
G01*
G37*
G36*
G01*
X184689000Y-102817500D02*
X184689000Y-102892500D01*
G75*
G02*
X184651500Y-102930000I-37500J0D01*
G01*
X183351500Y-102930000D01*
G75*
G02*
X183314000Y-102892500I0J37500D01*
G01*
X183314000Y-102817500D01*
G75*
G02*
X183351500Y-102780000I37500J0D01*
G01*
X184651500Y-102780000D01*
G75*
G02*
X184689000Y-102817500I0J-37500D01*
G01*
G37*
G36*
G01*
X184689000Y-102317500D02*
X184689000Y-102392500D01*
G75*
G02*
X184651500Y-102430000I-37500J0D01*
G01*
X183351500Y-102430000D01*
G75*
G02*
X183314000Y-102392500I0J37500D01*
G01*
X183314000Y-102317500D01*
G75*
G02*
X183351500Y-102280000I37500J0D01*
G01*
X184651500Y-102280000D01*
G75*
G02*
X184689000Y-102317500I0J-37500D01*
G01*
G37*
G36*
G01*
X184689000Y-101817500D02*
X184689000Y-101892500D01*
G75*
G02*
X184651500Y-101930000I-37500J0D01*
G01*
X183351500Y-101930000D01*
G75*
G02*
X183314000Y-101892500I0J37500D01*
G01*
X183314000Y-101817500D01*
G75*
G02*
X183351500Y-101780000I37500J0D01*
G01*
X184651500Y-101780000D01*
G75*
G02*
X184689000Y-101817500I0J-37500D01*
G01*
G37*
G36*
G01*
X184689000Y-101317500D02*
X184689000Y-101392500D01*
G75*
G02*
X184651500Y-101430000I-37500J0D01*
G01*
X183351500Y-101430000D01*
G75*
G02*
X183314000Y-101392500I0J37500D01*
G01*
X183314000Y-101317500D01*
G75*
G02*
X183351500Y-101280000I37500J0D01*
G01*
X184651500Y-101280000D01*
G75*
G02*
X184689000Y-101317500I0J-37500D01*
G01*
G37*
G36*
G01*
X184689000Y-100817500D02*
X184689000Y-100892500D01*
G75*
G02*
X184651500Y-100930000I-37500J0D01*
G01*
X183351500Y-100930000D01*
G75*
G02*
X183314000Y-100892500I0J37500D01*
G01*
X183314000Y-100817500D01*
G75*
G02*
X183351500Y-100780000I37500J0D01*
G01*
X184651500Y-100780000D01*
G75*
G02*
X184689000Y-100817500I0J-37500D01*
G01*
G37*
G36*
G01*
X184689000Y-100317500D02*
X184689000Y-100392500D01*
G75*
G02*
X184651500Y-100430000I-37500J0D01*
G01*
X183351500Y-100430000D01*
G75*
G02*
X183314000Y-100392500I0J37500D01*
G01*
X183314000Y-100317500D01*
G75*
G02*
X183351500Y-100280000I37500J0D01*
G01*
X184651500Y-100280000D01*
G75*
G02*
X184689000Y-100317500I0J-37500D01*
G01*
G37*
G36*
G01*
X184689000Y-99817500D02*
X184689000Y-99892500D01*
G75*
G02*
X184651500Y-99930000I-37500J0D01*
G01*
X183351500Y-99930000D01*
G75*
G02*
X183314000Y-99892500I0J37500D01*
G01*
X183314000Y-99817500D01*
G75*
G02*
X183351500Y-99780000I37500J0D01*
G01*
X184651500Y-99780000D01*
G75*
G02*
X184689000Y-99817500I0J-37500D01*
G01*
G37*
G36*
G01*
X184689000Y-99317500D02*
X184689000Y-99392500D01*
G75*
G02*
X184651500Y-99430000I-37500J0D01*
G01*
X183351500Y-99430000D01*
G75*
G02*
X183314000Y-99392500I0J37500D01*
G01*
X183314000Y-99317500D01*
G75*
G02*
X183351500Y-99280000I37500J0D01*
G01*
X184651500Y-99280000D01*
G75*
G02*
X184689000Y-99317500I0J-37500D01*
G01*
G37*
G36*
G01*
X184689000Y-98817500D02*
X184689000Y-98892500D01*
G75*
G02*
X184651500Y-98930000I-37500J0D01*
G01*
X183351500Y-98930000D01*
G75*
G02*
X183314000Y-98892500I0J37500D01*
G01*
X183314000Y-98817500D01*
G75*
G02*
X183351500Y-98780000I37500J0D01*
G01*
X184651500Y-98780000D01*
G75*
G02*
X184689000Y-98817500I0J-37500D01*
G01*
G37*
G36*
G01*
X184689000Y-98317500D02*
X184689000Y-98392500D01*
G75*
G02*
X184651500Y-98430000I-37500J0D01*
G01*
X183351500Y-98430000D01*
G75*
G02*
X183314000Y-98392500I0J37500D01*
G01*
X183314000Y-98317500D01*
G75*
G02*
X183351500Y-98280000I37500J0D01*
G01*
X184651500Y-98280000D01*
G75*
G02*
X184689000Y-98317500I0J-37500D01*
G01*
G37*
G36*
G01*
X184689000Y-97817500D02*
X184689000Y-97892500D01*
G75*
G02*
X184651500Y-97930000I-37500J0D01*
G01*
X183351500Y-97930000D01*
G75*
G02*
X183314000Y-97892500I0J37500D01*
G01*
X183314000Y-97817500D01*
G75*
G02*
X183351500Y-97780000I37500J0D01*
G01*
X184651500Y-97780000D01*
G75*
G02*
X184689000Y-97817500I0J-37500D01*
G01*
G37*
G36*
G01*
X184689000Y-97317500D02*
X184689000Y-97392500D01*
G75*
G02*
X184651500Y-97430000I-37500J0D01*
G01*
X183351500Y-97430000D01*
G75*
G02*
X183314000Y-97392500I0J37500D01*
G01*
X183314000Y-97317500D01*
G75*
G02*
X183351500Y-97280000I37500J0D01*
G01*
X184651500Y-97280000D01*
G75*
G02*
X184689000Y-97317500I0J-37500D01*
G01*
G37*
G36*
G01*
X184689000Y-96817500D02*
X184689000Y-96892500D01*
G75*
G02*
X184651500Y-96930000I-37500J0D01*
G01*
X183351500Y-96930000D01*
G75*
G02*
X183314000Y-96892500I0J37500D01*
G01*
X183314000Y-96817500D01*
G75*
G02*
X183351500Y-96780000I37500J0D01*
G01*
X184651500Y-96780000D01*
G75*
G02*
X184689000Y-96817500I0J-37500D01*
G01*
G37*
G36*
G01*
X184689000Y-96317500D02*
X184689000Y-96392500D01*
G75*
G02*
X184651500Y-96430000I-37500J0D01*
G01*
X183351500Y-96430000D01*
G75*
G02*
X183314000Y-96392500I0J37500D01*
G01*
X183314000Y-96317500D01*
G75*
G02*
X183351500Y-96280000I37500J0D01*
G01*
X184651500Y-96280000D01*
G75*
G02*
X184689000Y-96317500I0J-37500D01*
G01*
G37*
G36*
G01*
X182139000Y-93767500D02*
X182139000Y-95067500D01*
G75*
G02*
X182101500Y-95105000I-37500J0D01*
G01*
X182026500Y-95105000D01*
G75*
G02*
X181989000Y-95067500I0J37500D01*
G01*
X181989000Y-93767500D01*
G75*
G02*
X182026500Y-93730000I37500J0D01*
G01*
X182101500Y-93730000D01*
G75*
G02*
X182139000Y-93767500I0J-37500D01*
G01*
G37*
G36*
G01*
X181639000Y-93767500D02*
X181639000Y-95067500D01*
G75*
G02*
X181601500Y-95105000I-37500J0D01*
G01*
X181526500Y-95105000D01*
G75*
G02*
X181489000Y-95067500I0J37500D01*
G01*
X181489000Y-93767500D01*
G75*
G02*
X181526500Y-93730000I37500J0D01*
G01*
X181601500Y-93730000D01*
G75*
G02*
X181639000Y-93767500I0J-37500D01*
G01*
G37*
G36*
G01*
X181139000Y-93767500D02*
X181139000Y-95067500D01*
G75*
G02*
X181101500Y-95105000I-37500J0D01*
G01*
X181026500Y-95105000D01*
G75*
G02*
X180989000Y-95067500I0J37500D01*
G01*
X180989000Y-93767500D01*
G75*
G02*
X181026500Y-93730000I37500J0D01*
G01*
X181101500Y-93730000D01*
G75*
G02*
X181139000Y-93767500I0J-37500D01*
G01*
G37*
G36*
G01*
X180639000Y-93767500D02*
X180639000Y-95067500D01*
G75*
G02*
X180601500Y-95105000I-37500J0D01*
G01*
X180526500Y-95105000D01*
G75*
G02*
X180489000Y-95067500I0J37500D01*
G01*
X180489000Y-93767500D01*
G75*
G02*
X180526500Y-93730000I37500J0D01*
G01*
X180601500Y-93730000D01*
G75*
G02*
X180639000Y-93767500I0J-37500D01*
G01*
G37*
G36*
G01*
X180139000Y-93767500D02*
X180139000Y-95067500D01*
G75*
G02*
X180101500Y-95105000I-37500J0D01*
G01*
X180026500Y-95105000D01*
G75*
G02*
X179989000Y-95067500I0J37500D01*
G01*
X179989000Y-93767500D01*
G75*
G02*
X180026500Y-93730000I37500J0D01*
G01*
X180101500Y-93730000D01*
G75*
G02*
X180139000Y-93767500I0J-37500D01*
G01*
G37*
G36*
G01*
X179639000Y-93767500D02*
X179639000Y-95067500D01*
G75*
G02*
X179601500Y-95105000I-37500J0D01*
G01*
X179526500Y-95105000D01*
G75*
G02*
X179489000Y-95067500I0J37500D01*
G01*
X179489000Y-93767500D01*
G75*
G02*
X179526500Y-93730000I37500J0D01*
G01*
X179601500Y-93730000D01*
G75*
G02*
X179639000Y-93767500I0J-37500D01*
G01*
G37*
G36*
G01*
X179139000Y-93767500D02*
X179139000Y-95067500D01*
G75*
G02*
X179101500Y-95105000I-37500J0D01*
G01*
X179026500Y-95105000D01*
G75*
G02*
X178989000Y-95067500I0J37500D01*
G01*
X178989000Y-93767500D01*
G75*
G02*
X179026500Y-93730000I37500J0D01*
G01*
X179101500Y-93730000D01*
G75*
G02*
X179139000Y-93767500I0J-37500D01*
G01*
G37*
G36*
G01*
X178639000Y-93767500D02*
X178639000Y-95067500D01*
G75*
G02*
X178601500Y-95105000I-37500J0D01*
G01*
X178526500Y-95105000D01*
G75*
G02*
X178489000Y-95067500I0J37500D01*
G01*
X178489000Y-93767500D01*
G75*
G02*
X178526500Y-93730000I37500J0D01*
G01*
X178601500Y-93730000D01*
G75*
G02*
X178639000Y-93767500I0J-37500D01*
G01*
G37*
G36*
G01*
X178139000Y-93767500D02*
X178139000Y-95067500D01*
G75*
G02*
X178101500Y-95105000I-37500J0D01*
G01*
X178026500Y-95105000D01*
G75*
G02*
X177989000Y-95067500I0J37500D01*
G01*
X177989000Y-93767500D01*
G75*
G02*
X178026500Y-93730000I37500J0D01*
G01*
X178101500Y-93730000D01*
G75*
G02*
X178139000Y-93767500I0J-37500D01*
G01*
G37*
G36*
G01*
X177639000Y-93767500D02*
X177639000Y-95067500D01*
G75*
G02*
X177601500Y-95105000I-37500J0D01*
G01*
X177526500Y-95105000D01*
G75*
G02*
X177489000Y-95067500I0J37500D01*
G01*
X177489000Y-93767500D01*
G75*
G02*
X177526500Y-93730000I37500J0D01*
G01*
X177601500Y-93730000D01*
G75*
G02*
X177639000Y-93767500I0J-37500D01*
G01*
G37*
G36*
G01*
X177139000Y-93767500D02*
X177139000Y-95067500D01*
G75*
G02*
X177101500Y-95105000I-37500J0D01*
G01*
X177026500Y-95105000D01*
G75*
G02*
X176989000Y-95067500I0J37500D01*
G01*
X176989000Y-93767500D01*
G75*
G02*
X177026500Y-93730000I37500J0D01*
G01*
X177101500Y-93730000D01*
G75*
G02*
X177139000Y-93767500I0J-37500D01*
G01*
G37*
G36*
G01*
X176639000Y-93767500D02*
X176639000Y-95067500D01*
G75*
G02*
X176601500Y-95105000I-37500J0D01*
G01*
X176526500Y-95105000D01*
G75*
G02*
X176489000Y-95067500I0J37500D01*
G01*
X176489000Y-93767500D01*
G75*
G02*
X176526500Y-93730000I37500J0D01*
G01*
X176601500Y-93730000D01*
G75*
G02*
X176639000Y-93767500I0J-37500D01*
G01*
G37*
G36*
G01*
X176139000Y-93767500D02*
X176139000Y-95067500D01*
G75*
G02*
X176101500Y-95105000I-37500J0D01*
G01*
X176026500Y-95105000D01*
G75*
G02*
X175989000Y-95067500I0J37500D01*
G01*
X175989000Y-93767500D01*
G75*
G02*
X176026500Y-93730000I37500J0D01*
G01*
X176101500Y-93730000D01*
G75*
G02*
X176139000Y-93767500I0J-37500D01*
G01*
G37*
G36*
G01*
X175639000Y-93767500D02*
X175639000Y-95067500D01*
G75*
G02*
X175601500Y-95105000I-37500J0D01*
G01*
X175526500Y-95105000D01*
G75*
G02*
X175489000Y-95067500I0J37500D01*
G01*
X175489000Y-93767500D01*
G75*
G02*
X175526500Y-93730000I37500J0D01*
G01*
X175601500Y-93730000D01*
G75*
G02*
X175639000Y-93767500I0J-37500D01*
G01*
G37*
G36*
G01*
X175139000Y-93767500D02*
X175139000Y-95067500D01*
G75*
G02*
X175101500Y-95105000I-37500J0D01*
G01*
X175026500Y-95105000D01*
G75*
G02*
X174989000Y-95067500I0J37500D01*
G01*
X174989000Y-93767500D01*
G75*
G02*
X175026500Y-93730000I37500J0D01*
G01*
X175101500Y-93730000D01*
G75*
G02*
X175139000Y-93767500I0J-37500D01*
G01*
G37*
G36*
G01*
X174639000Y-93767500D02*
X174639000Y-95067500D01*
G75*
G02*
X174601500Y-95105000I-37500J0D01*
G01*
X174526500Y-95105000D01*
G75*
G02*
X174489000Y-95067500I0J37500D01*
G01*
X174489000Y-93767500D01*
G75*
G02*
X174526500Y-93730000I37500J0D01*
G01*
X174601500Y-93730000D01*
G75*
G02*
X174639000Y-93767500I0J-37500D01*
G01*
G37*
G36*
G01*
X174139000Y-93767500D02*
X174139000Y-95067500D01*
G75*
G02*
X174101500Y-95105000I-37500J0D01*
G01*
X174026500Y-95105000D01*
G75*
G02*
X173989000Y-95067500I0J37500D01*
G01*
X173989000Y-93767500D01*
G75*
G02*
X174026500Y-93730000I37500J0D01*
G01*
X174101500Y-93730000D01*
G75*
G02*
X174139000Y-93767500I0J-37500D01*
G01*
G37*
G36*
G01*
X173639000Y-93767500D02*
X173639000Y-95067500D01*
G75*
G02*
X173601500Y-95105000I-37500J0D01*
G01*
X173526500Y-95105000D01*
G75*
G02*
X173489000Y-95067500I0J37500D01*
G01*
X173489000Y-93767500D01*
G75*
G02*
X173526500Y-93730000I37500J0D01*
G01*
X173601500Y-93730000D01*
G75*
G02*
X173639000Y-93767500I0J-37500D01*
G01*
G37*
G36*
G01*
X173139000Y-93767500D02*
X173139000Y-95067500D01*
G75*
G02*
X173101500Y-95105000I-37500J0D01*
G01*
X173026500Y-95105000D01*
G75*
G02*
X172989000Y-95067500I0J37500D01*
G01*
X172989000Y-93767500D01*
G75*
G02*
X173026500Y-93730000I37500J0D01*
G01*
X173101500Y-93730000D01*
G75*
G02*
X173139000Y-93767500I0J-37500D01*
G01*
G37*
G36*
G01*
X172639000Y-93767500D02*
X172639000Y-95067500D01*
G75*
G02*
X172601500Y-95105000I-37500J0D01*
G01*
X172526500Y-95105000D01*
G75*
G02*
X172489000Y-95067500I0J37500D01*
G01*
X172489000Y-93767500D01*
G75*
G02*
X172526500Y-93730000I37500J0D01*
G01*
X172601500Y-93730000D01*
G75*
G02*
X172639000Y-93767500I0J-37500D01*
G01*
G37*
G36*
G01*
X171314000Y-96317500D02*
X171314000Y-96392500D01*
G75*
G02*
X171276500Y-96430000I-37500J0D01*
G01*
X169976500Y-96430000D01*
G75*
G02*
X169939000Y-96392500I0J37500D01*
G01*
X169939000Y-96317500D01*
G75*
G02*
X169976500Y-96280000I37500J0D01*
G01*
X171276500Y-96280000D01*
G75*
G02*
X171314000Y-96317500I0J-37500D01*
G01*
G37*
G36*
G01*
X171314000Y-96817500D02*
X171314000Y-96892500D01*
G75*
G02*
X171276500Y-96930000I-37500J0D01*
G01*
X169976500Y-96930000D01*
G75*
G02*
X169939000Y-96892500I0J37500D01*
G01*
X169939000Y-96817500D01*
G75*
G02*
X169976500Y-96780000I37500J0D01*
G01*
X171276500Y-96780000D01*
G75*
G02*
X171314000Y-96817500I0J-37500D01*
G01*
G37*
G36*
G01*
X171314000Y-97317500D02*
X171314000Y-97392500D01*
G75*
G02*
X171276500Y-97430000I-37500J0D01*
G01*
X169976500Y-97430000D01*
G75*
G02*
X169939000Y-97392500I0J37500D01*
G01*
X169939000Y-97317500D01*
G75*
G02*
X169976500Y-97280000I37500J0D01*
G01*
X171276500Y-97280000D01*
G75*
G02*
X171314000Y-97317500I0J-37500D01*
G01*
G37*
G36*
G01*
X171314000Y-97817500D02*
X171314000Y-97892500D01*
G75*
G02*
X171276500Y-97930000I-37500J0D01*
G01*
X169976500Y-97930000D01*
G75*
G02*
X169939000Y-97892500I0J37500D01*
G01*
X169939000Y-97817500D01*
G75*
G02*
X169976500Y-97780000I37500J0D01*
G01*
X171276500Y-97780000D01*
G75*
G02*
X171314000Y-97817500I0J-37500D01*
G01*
G37*
G36*
G01*
X171314000Y-98317500D02*
X171314000Y-98392500D01*
G75*
G02*
X171276500Y-98430000I-37500J0D01*
G01*
X169976500Y-98430000D01*
G75*
G02*
X169939000Y-98392500I0J37500D01*
G01*
X169939000Y-98317500D01*
G75*
G02*
X169976500Y-98280000I37500J0D01*
G01*
X171276500Y-98280000D01*
G75*
G02*
X171314000Y-98317500I0J-37500D01*
G01*
G37*
G36*
G01*
X171314000Y-98817500D02*
X171314000Y-98892500D01*
G75*
G02*
X171276500Y-98930000I-37500J0D01*
G01*
X169976500Y-98930000D01*
G75*
G02*
X169939000Y-98892500I0J37500D01*
G01*
X169939000Y-98817500D01*
G75*
G02*
X169976500Y-98780000I37500J0D01*
G01*
X171276500Y-98780000D01*
G75*
G02*
X171314000Y-98817500I0J-37500D01*
G01*
G37*
G36*
G01*
X171314000Y-99317500D02*
X171314000Y-99392500D01*
G75*
G02*
X171276500Y-99430000I-37500J0D01*
G01*
X169976500Y-99430000D01*
G75*
G02*
X169939000Y-99392500I0J37500D01*
G01*
X169939000Y-99317500D01*
G75*
G02*
X169976500Y-99280000I37500J0D01*
G01*
X171276500Y-99280000D01*
G75*
G02*
X171314000Y-99317500I0J-37500D01*
G01*
G37*
G36*
G01*
X171314000Y-99817500D02*
X171314000Y-99892500D01*
G75*
G02*
X171276500Y-99930000I-37500J0D01*
G01*
X169976500Y-99930000D01*
G75*
G02*
X169939000Y-99892500I0J37500D01*
G01*
X169939000Y-99817500D01*
G75*
G02*
X169976500Y-99780000I37500J0D01*
G01*
X171276500Y-99780000D01*
G75*
G02*
X171314000Y-99817500I0J-37500D01*
G01*
G37*
G36*
G01*
X171314000Y-100317500D02*
X171314000Y-100392500D01*
G75*
G02*
X171276500Y-100430000I-37500J0D01*
G01*
X169976500Y-100430000D01*
G75*
G02*
X169939000Y-100392500I0J37500D01*
G01*
X169939000Y-100317500D01*
G75*
G02*
X169976500Y-100280000I37500J0D01*
G01*
X171276500Y-100280000D01*
G75*
G02*
X171314000Y-100317500I0J-37500D01*
G01*
G37*
G36*
G01*
X171314000Y-100817500D02*
X171314000Y-100892500D01*
G75*
G02*
X171276500Y-100930000I-37500J0D01*
G01*
X169976500Y-100930000D01*
G75*
G02*
X169939000Y-100892500I0J37500D01*
G01*
X169939000Y-100817500D01*
G75*
G02*
X169976500Y-100780000I37500J0D01*
G01*
X171276500Y-100780000D01*
G75*
G02*
X171314000Y-100817500I0J-37500D01*
G01*
G37*
G36*
G01*
X171314000Y-101317500D02*
X171314000Y-101392500D01*
G75*
G02*
X171276500Y-101430000I-37500J0D01*
G01*
X169976500Y-101430000D01*
G75*
G02*
X169939000Y-101392500I0J37500D01*
G01*
X169939000Y-101317500D01*
G75*
G02*
X169976500Y-101280000I37500J0D01*
G01*
X171276500Y-101280000D01*
G75*
G02*
X171314000Y-101317500I0J-37500D01*
G01*
G37*
G36*
G01*
X171314000Y-101817500D02*
X171314000Y-101892500D01*
G75*
G02*
X171276500Y-101930000I-37500J0D01*
G01*
X169976500Y-101930000D01*
G75*
G02*
X169939000Y-101892500I0J37500D01*
G01*
X169939000Y-101817500D01*
G75*
G02*
X169976500Y-101780000I37500J0D01*
G01*
X171276500Y-101780000D01*
G75*
G02*
X171314000Y-101817500I0J-37500D01*
G01*
G37*
G36*
G01*
X171314000Y-102317500D02*
X171314000Y-102392500D01*
G75*
G02*
X171276500Y-102430000I-37500J0D01*
G01*
X169976500Y-102430000D01*
G75*
G02*
X169939000Y-102392500I0J37500D01*
G01*
X169939000Y-102317500D01*
G75*
G02*
X169976500Y-102280000I37500J0D01*
G01*
X171276500Y-102280000D01*
G75*
G02*
X171314000Y-102317500I0J-37500D01*
G01*
G37*
G36*
G01*
X171314000Y-102817500D02*
X171314000Y-102892500D01*
G75*
G02*
X171276500Y-102930000I-37500J0D01*
G01*
X169976500Y-102930000D01*
G75*
G02*
X169939000Y-102892500I0J37500D01*
G01*
X169939000Y-102817500D01*
G75*
G02*
X169976500Y-102780000I37500J0D01*
G01*
X171276500Y-102780000D01*
G75*
G02*
X171314000Y-102817500I0J-37500D01*
G01*
G37*
G36*
G01*
X171314000Y-103317500D02*
X171314000Y-103392500D01*
G75*
G02*
X171276500Y-103430000I-37500J0D01*
G01*
X169976500Y-103430000D01*
G75*
G02*
X169939000Y-103392500I0J37500D01*
G01*
X169939000Y-103317500D01*
G75*
G02*
X169976500Y-103280000I37500J0D01*
G01*
X171276500Y-103280000D01*
G75*
G02*
X171314000Y-103317500I0J-37500D01*
G01*
G37*
G36*
G01*
X171314000Y-103817500D02*
X171314000Y-103892500D01*
G75*
G02*
X171276500Y-103930000I-37500J0D01*
G01*
X169976500Y-103930000D01*
G75*
G02*
X169939000Y-103892500I0J37500D01*
G01*
X169939000Y-103817500D01*
G75*
G02*
X169976500Y-103780000I37500J0D01*
G01*
X171276500Y-103780000D01*
G75*
G02*
X171314000Y-103817500I0J-37500D01*
G01*
G37*
G36*
G01*
X171314000Y-104317500D02*
X171314000Y-104392500D01*
G75*
G02*
X171276500Y-104430000I-37500J0D01*
G01*
X169976500Y-104430000D01*
G75*
G02*
X169939000Y-104392500I0J37500D01*
G01*
X169939000Y-104317500D01*
G75*
G02*
X169976500Y-104280000I37500J0D01*
G01*
X171276500Y-104280000D01*
G75*
G02*
X171314000Y-104317500I0J-37500D01*
G01*
G37*
G36*
G01*
X171314000Y-104817500D02*
X171314000Y-104892500D01*
G75*
G02*
X171276500Y-104930000I-37500J0D01*
G01*
X169976500Y-104930000D01*
G75*
G02*
X169939000Y-104892500I0J37500D01*
G01*
X169939000Y-104817500D01*
G75*
G02*
X169976500Y-104780000I37500J0D01*
G01*
X171276500Y-104780000D01*
G75*
G02*
X171314000Y-104817500I0J-37500D01*
G01*
G37*
G36*
G01*
X171314000Y-105317500D02*
X171314000Y-105392500D01*
G75*
G02*
X171276500Y-105430000I-37500J0D01*
G01*
X169976500Y-105430000D01*
G75*
G02*
X169939000Y-105392500I0J37500D01*
G01*
X169939000Y-105317500D01*
G75*
G02*
X169976500Y-105280000I37500J0D01*
G01*
X171276500Y-105280000D01*
G75*
G02*
X171314000Y-105317500I0J-37500D01*
G01*
G37*
G36*
G01*
X171314000Y-105817500D02*
X171314000Y-105892500D01*
G75*
G02*
X171276500Y-105930000I-37500J0D01*
G01*
X169976500Y-105930000D01*
G75*
G02*
X169939000Y-105892500I0J37500D01*
G01*
X169939000Y-105817500D01*
G75*
G02*
X169976500Y-105780000I37500J0D01*
G01*
X171276500Y-105780000D01*
G75*
G02*
X171314000Y-105817500I0J-37500D01*
G01*
G37*
G36*
G01*
X172639000Y-107142500D02*
X172639000Y-108442500D01*
G75*
G02*
X172601500Y-108480000I-37500J0D01*
G01*
X172526500Y-108480000D01*
G75*
G02*
X172489000Y-108442500I0J37500D01*
G01*
X172489000Y-107142500D01*
G75*
G02*
X172526500Y-107105000I37500J0D01*
G01*
X172601500Y-107105000D01*
G75*
G02*
X172639000Y-107142500I0J-37500D01*
G01*
G37*
G36*
G01*
X173139000Y-107142500D02*
X173139000Y-108442500D01*
G75*
G02*
X173101500Y-108480000I-37500J0D01*
G01*
X173026500Y-108480000D01*
G75*
G02*
X172989000Y-108442500I0J37500D01*
G01*
X172989000Y-107142500D01*
G75*
G02*
X173026500Y-107105000I37500J0D01*
G01*
X173101500Y-107105000D01*
G75*
G02*
X173139000Y-107142500I0J-37500D01*
G01*
G37*
G36*
G01*
X173639000Y-107142500D02*
X173639000Y-108442500D01*
G75*
G02*
X173601500Y-108480000I-37500J0D01*
G01*
X173526500Y-108480000D01*
G75*
G02*
X173489000Y-108442500I0J37500D01*
G01*
X173489000Y-107142500D01*
G75*
G02*
X173526500Y-107105000I37500J0D01*
G01*
X173601500Y-107105000D01*
G75*
G02*
X173639000Y-107142500I0J-37500D01*
G01*
G37*
G36*
G01*
X174139000Y-107142500D02*
X174139000Y-108442500D01*
G75*
G02*
X174101500Y-108480000I-37500J0D01*
G01*
X174026500Y-108480000D01*
G75*
G02*
X173989000Y-108442500I0J37500D01*
G01*
X173989000Y-107142500D01*
G75*
G02*
X174026500Y-107105000I37500J0D01*
G01*
X174101500Y-107105000D01*
G75*
G02*
X174139000Y-107142500I0J-37500D01*
G01*
G37*
G36*
G01*
X174639000Y-107142500D02*
X174639000Y-108442500D01*
G75*
G02*
X174601500Y-108480000I-37500J0D01*
G01*
X174526500Y-108480000D01*
G75*
G02*
X174489000Y-108442500I0J37500D01*
G01*
X174489000Y-107142500D01*
G75*
G02*
X174526500Y-107105000I37500J0D01*
G01*
X174601500Y-107105000D01*
G75*
G02*
X174639000Y-107142500I0J-37500D01*
G01*
G37*
G36*
G01*
X175139000Y-107142500D02*
X175139000Y-108442500D01*
G75*
G02*
X175101500Y-108480000I-37500J0D01*
G01*
X175026500Y-108480000D01*
G75*
G02*
X174989000Y-108442500I0J37500D01*
G01*
X174989000Y-107142500D01*
G75*
G02*
X175026500Y-107105000I37500J0D01*
G01*
X175101500Y-107105000D01*
G75*
G02*
X175139000Y-107142500I0J-37500D01*
G01*
G37*
G36*
G01*
X175639000Y-107142500D02*
X175639000Y-108442500D01*
G75*
G02*
X175601500Y-108480000I-37500J0D01*
G01*
X175526500Y-108480000D01*
G75*
G02*
X175489000Y-108442500I0J37500D01*
G01*
X175489000Y-107142500D01*
G75*
G02*
X175526500Y-107105000I37500J0D01*
G01*
X175601500Y-107105000D01*
G75*
G02*
X175639000Y-107142500I0J-37500D01*
G01*
G37*
G36*
G01*
X176139000Y-107142500D02*
X176139000Y-108442500D01*
G75*
G02*
X176101500Y-108480000I-37500J0D01*
G01*
X176026500Y-108480000D01*
G75*
G02*
X175989000Y-108442500I0J37500D01*
G01*
X175989000Y-107142500D01*
G75*
G02*
X176026500Y-107105000I37500J0D01*
G01*
X176101500Y-107105000D01*
G75*
G02*
X176139000Y-107142500I0J-37500D01*
G01*
G37*
G36*
G01*
X176639000Y-107142500D02*
X176639000Y-108442500D01*
G75*
G02*
X176601500Y-108480000I-37500J0D01*
G01*
X176526500Y-108480000D01*
G75*
G02*
X176489000Y-108442500I0J37500D01*
G01*
X176489000Y-107142500D01*
G75*
G02*
X176526500Y-107105000I37500J0D01*
G01*
X176601500Y-107105000D01*
G75*
G02*
X176639000Y-107142500I0J-37500D01*
G01*
G37*
G36*
G01*
X177139000Y-107142500D02*
X177139000Y-108442500D01*
G75*
G02*
X177101500Y-108480000I-37500J0D01*
G01*
X177026500Y-108480000D01*
G75*
G02*
X176989000Y-108442500I0J37500D01*
G01*
X176989000Y-107142500D01*
G75*
G02*
X177026500Y-107105000I37500J0D01*
G01*
X177101500Y-107105000D01*
G75*
G02*
X177139000Y-107142500I0J-37500D01*
G01*
G37*
G36*
G01*
X177639000Y-107142500D02*
X177639000Y-108442500D01*
G75*
G02*
X177601500Y-108480000I-37500J0D01*
G01*
X177526500Y-108480000D01*
G75*
G02*
X177489000Y-108442500I0J37500D01*
G01*
X177489000Y-107142500D01*
G75*
G02*
X177526500Y-107105000I37500J0D01*
G01*
X177601500Y-107105000D01*
G75*
G02*
X177639000Y-107142500I0J-37500D01*
G01*
G37*
G36*
G01*
X178139000Y-107142500D02*
X178139000Y-108442500D01*
G75*
G02*
X178101500Y-108480000I-37500J0D01*
G01*
X178026500Y-108480000D01*
G75*
G02*
X177989000Y-108442500I0J37500D01*
G01*
X177989000Y-107142500D01*
G75*
G02*
X178026500Y-107105000I37500J0D01*
G01*
X178101500Y-107105000D01*
G75*
G02*
X178139000Y-107142500I0J-37500D01*
G01*
G37*
G36*
G01*
X178639000Y-107142500D02*
X178639000Y-108442500D01*
G75*
G02*
X178601500Y-108480000I-37500J0D01*
G01*
X178526500Y-108480000D01*
G75*
G02*
X178489000Y-108442500I0J37500D01*
G01*
X178489000Y-107142500D01*
G75*
G02*
X178526500Y-107105000I37500J0D01*
G01*
X178601500Y-107105000D01*
G75*
G02*
X178639000Y-107142500I0J-37500D01*
G01*
G37*
G36*
G01*
X179139000Y-107142500D02*
X179139000Y-108442500D01*
G75*
G02*
X179101500Y-108480000I-37500J0D01*
G01*
X179026500Y-108480000D01*
G75*
G02*
X178989000Y-108442500I0J37500D01*
G01*
X178989000Y-107142500D01*
G75*
G02*
X179026500Y-107105000I37500J0D01*
G01*
X179101500Y-107105000D01*
G75*
G02*
X179139000Y-107142500I0J-37500D01*
G01*
G37*
G36*
G01*
X179639000Y-107142500D02*
X179639000Y-108442500D01*
G75*
G02*
X179601500Y-108480000I-37500J0D01*
G01*
X179526500Y-108480000D01*
G75*
G02*
X179489000Y-108442500I0J37500D01*
G01*
X179489000Y-107142500D01*
G75*
G02*
X179526500Y-107105000I37500J0D01*
G01*
X179601500Y-107105000D01*
G75*
G02*
X179639000Y-107142500I0J-37500D01*
G01*
G37*
G36*
G01*
X180139000Y-107142500D02*
X180139000Y-108442500D01*
G75*
G02*
X180101500Y-108480000I-37500J0D01*
G01*
X180026500Y-108480000D01*
G75*
G02*
X179989000Y-108442500I0J37500D01*
G01*
X179989000Y-107142500D01*
G75*
G02*
X180026500Y-107105000I37500J0D01*
G01*
X180101500Y-107105000D01*
G75*
G02*
X180139000Y-107142500I0J-37500D01*
G01*
G37*
G36*
G01*
X180639000Y-107142500D02*
X180639000Y-108442500D01*
G75*
G02*
X180601500Y-108480000I-37500J0D01*
G01*
X180526500Y-108480000D01*
G75*
G02*
X180489000Y-108442500I0J37500D01*
G01*
X180489000Y-107142500D01*
G75*
G02*
X180526500Y-107105000I37500J0D01*
G01*
X180601500Y-107105000D01*
G75*
G02*
X180639000Y-107142500I0J-37500D01*
G01*
G37*
G36*
G01*
X181139000Y-107142500D02*
X181139000Y-108442500D01*
G75*
G02*
X181101500Y-108480000I-37500J0D01*
G01*
X181026500Y-108480000D01*
G75*
G02*
X180989000Y-108442500I0J37500D01*
G01*
X180989000Y-107142500D01*
G75*
G02*
X181026500Y-107105000I37500J0D01*
G01*
X181101500Y-107105000D01*
G75*
G02*
X181139000Y-107142500I0J-37500D01*
G01*
G37*
G36*
G01*
X181639000Y-107142500D02*
X181639000Y-108442500D01*
G75*
G02*
X181601500Y-108480000I-37500J0D01*
G01*
X181526500Y-108480000D01*
G75*
G02*
X181489000Y-108442500I0J37500D01*
G01*
X181489000Y-107142500D01*
G75*
G02*
X181526500Y-107105000I37500J0D01*
G01*
X181601500Y-107105000D01*
G75*
G02*
X181639000Y-107142500I0J-37500D01*
G01*
G37*
G36*
G01*
X182139000Y-107142500D02*
X182139000Y-108442500D01*
G75*
G02*
X182101500Y-108480000I-37500J0D01*
G01*
X182026500Y-108480000D01*
G75*
G02*
X181989000Y-108442500I0J37500D01*
G01*
X181989000Y-107142500D01*
G75*
G02*
X182026500Y-107105000I37500J0D01*
G01*
X182101500Y-107105000D01*
G75*
G02*
X182139000Y-107142500I0J-37500D01*
G01*
G37*
%TD*%
%TO.C,C406*%
G36*
G01*
X125150000Y-127850000D02*
X125440000Y-127850000D01*
G75*
G02*
X125555000Y-127965000I0J-115000D01*
G01*
X125555000Y-128195000D01*
G75*
G02*
X125440000Y-128310000I-115000J0D01*
G01*
X125150000Y-128310000D01*
G75*
G02*
X125035000Y-128195000I0J115000D01*
G01*
X125035000Y-127965000D01*
G75*
G02*
X125150000Y-127850000I115000J0D01*
G01*
G37*
G36*
G01*
X125150000Y-126890000D02*
X125440000Y-126890000D01*
G75*
G02*
X125555000Y-127005000I0J-115000D01*
G01*
X125555000Y-127235000D01*
G75*
G02*
X125440000Y-127350000I-115000J0D01*
G01*
X125150000Y-127350000D01*
G75*
G02*
X125035000Y-127235000I0J115000D01*
G01*
X125035000Y-127005000D01*
G75*
G02*
X125150000Y-126890000I115000J0D01*
G01*
G37*
%TD*%
%TO.C,R404*%
G36*
G01*
X124135000Y-127890000D02*
X124455000Y-127890000D01*
G75*
G02*
X124565000Y-128000000I0J-110000D01*
G01*
X124565000Y-128220000D01*
G75*
G02*
X124455000Y-128330000I-110000J0D01*
G01*
X124135000Y-128330000D01*
G75*
G02*
X124025000Y-128220000I0J110000D01*
G01*
X124025000Y-128000000D01*
G75*
G02*
X124135000Y-127890000I110000J0D01*
G01*
G37*
G36*
G01*
X124135000Y-126870000D02*
X124455000Y-126870000D01*
G75*
G02*
X124565000Y-126980000I0J-110000D01*
G01*
X124565000Y-127200000D01*
G75*
G02*
X124455000Y-127310000I-110000J0D01*
G01*
X124135000Y-127310000D01*
G75*
G02*
X124025000Y-127200000I0J110000D01*
G01*
X124025000Y-126980000D01*
G75*
G02*
X124135000Y-126870000I110000J0D01*
G01*
G37*
%TD*%
%TO.C,R405*%
G36*
G01*
X124185000Y-129890000D02*
X124505000Y-129890000D01*
G75*
G02*
X124615000Y-130000000I0J-110000D01*
G01*
X124615000Y-130220000D01*
G75*
G02*
X124505000Y-130330000I-110000J0D01*
G01*
X124185000Y-130330000D01*
G75*
G02*
X124075000Y-130220000I0J110000D01*
G01*
X124075000Y-130000000D01*
G75*
G02*
X124185000Y-129890000I110000J0D01*
G01*
G37*
G36*
G01*
X124185000Y-128870000D02*
X124505000Y-128870000D01*
G75*
G02*
X124615000Y-128980000I0J-110000D01*
G01*
X124615000Y-129200000D01*
G75*
G02*
X124505000Y-129310000I-110000J0D01*
G01*
X124185000Y-129310000D01*
G75*
G02*
X124075000Y-129200000I0J110000D01*
G01*
X124075000Y-128980000D01*
G75*
G02*
X124185000Y-128870000I110000J0D01*
G01*
G37*
%TD*%
D10*
%TO.C,U601*%
X144210000Y-94566000D03*
X143460000Y-94566000D03*
X142710000Y-94566000D03*
X141960000Y-94566000D03*
X141210000Y-94566000D03*
X140460000Y-94566000D03*
X139710000Y-94566000D03*
X138960000Y-94566000D03*
X144210000Y-95316000D03*
X143460000Y-95316000D03*
X139710000Y-95316000D03*
X138960000Y-95316000D03*
X144210000Y-96066000D03*
X143460000Y-96066000D03*
X142710000Y-96066000D03*
X140460000Y-96066000D03*
X139710000Y-96066000D03*
X138960000Y-96066000D03*
X144210000Y-96816000D03*
X143460000Y-96816000D03*
X142710000Y-96816000D03*
X140460000Y-96816000D03*
X139710000Y-96816000D03*
X138960000Y-96816000D03*
X144210000Y-97566000D03*
X143460000Y-97566000D03*
X139710000Y-97566000D03*
X138960000Y-97566000D03*
X144210000Y-98316000D03*
X143460000Y-98316000D03*
X142710000Y-98316000D03*
X141960000Y-98316000D03*
X141210000Y-98316000D03*
X140460000Y-98316000D03*
X139710000Y-98316000D03*
X138960000Y-98316000D03*
%TD*%
%TO.C,U603*%
X134280000Y-111325000D03*
X134280000Y-110575000D03*
X134280000Y-109825000D03*
X134280000Y-109075000D03*
X134280000Y-108325000D03*
X134280000Y-107575000D03*
X134280000Y-106825000D03*
X134280000Y-106075000D03*
X133530000Y-111325000D03*
X133530000Y-110575000D03*
X133530000Y-109825000D03*
X133530000Y-109075000D03*
X133530000Y-108325000D03*
X133530000Y-107575000D03*
X133530000Y-106825000D03*
X133530000Y-106075000D03*
X132780000Y-111325000D03*
X132780000Y-110575000D03*
X132780000Y-109825000D03*
X132780000Y-109075000D03*
X132780000Y-108325000D03*
X132780000Y-107575000D03*
X132780000Y-106825000D03*
X132780000Y-106075000D03*
X132030000Y-111325000D03*
X132030000Y-110575000D03*
X132030000Y-109825000D03*
X132030000Y-109075000D03*
X132030000Y-108325000D03*
X132030000Y-107575000D03*
X132030000Y-106825000D03*
X132030000Y-106075000D03*
X131280000Y-111325000D03*
X131280000Y-110575000D03*
X131280000Y-109825000D03*
X131280000Y-109075000D03*
X131280000Y-108325000D03*
X131280000Y-107575000D03*
X131280000Y-106825000D03*
X131280000Y-106075000D03*
X130530000Y-111325000D03*
X130530000Y-110575000D03*
X130530000Y-109825000D03*
X130530000Y-109075000D03*
X130530000Y-108325000D03*
X130530000Y-107575000D03*
X130530000Y-106825000D03*
X130530000Y-106075000D03*
%TD*%
D11*
%TO.C,U501*%
X150120000Y-103525000D03*
X150120000Y-104325000D03*
X150120000Y-105125000D03*
X150120000Y-105925000D03*
X150120000Y-106725000D03*
X150120000Y-107525000D03*
X150120000Y-108325000D03*
X150120000Y-109125000D03*
X150120000Y-109925000D03*
X150120000Y-110725000D03*
X138920000Y-114725000D03*
X150920000Y-102725000D03*
X150920000Y-103525000D03*
X150920000Y-104325000D03*
X150920000Y-105125000D03*
X150920000Y-105925000D03*
X150920000Y-106725000D03*
X150920000Y-107525000D03*
X150920000Y-108325000D03*
X150920000Y-109125000D03*
X150920000Y-109925000D03*
X150920000Y-110725000D03*
X150920000Y-111525000D03*
X150920000Y-112325000D03*
X150920000Y-113125000D03*
X150920000Y-113925000D03*
X150920000Y-114725000D03*
X150120000Y-102725000D03*
X150120000Y-111525000D03*
X150120000Y-112325000D03*
X150120000Y-113125000D03*
X150120000Y-113925000D03*
X150120000Y-114725000D03*
X149320000Y-102725000D03*
X149320000Y-103525000D03*
X149320000Y-104325000D03*
X149320000Y-105125000D03*
X149320000Y-105925000D03*
X149320000Y-106725000D03*
X149320000Y-107525000D03*
X149320000Y-108325000D03*
X149320000Y-109125000D03*
X149320000Y-109925000D03*
X149320000Y-110725000D03*
X149320000Y-111525000D03*
X149320000Y-112325000D03*
X149320000Y-113125000D03*
X149320000Y-113925000D03*
X149320000Y-114725000D03*
X148520000Y-102725000D03*
X148520000Y-103525000D03*
X148520000Y-104325000D03*
X148520000Y-105125000D03*
X148520000Y-105925000D03*
X148520000Y-106725000D03*
X148520000Y-107525000D03*
X148520000Y-108325000D03*
X148520000Y-109125000D03*
X148520000Y-109925000D03*
X148520000Y-110725000D03*
X148520000Y-111525000D03*
X148520000Y-112325000D03*
X148520000Y-113125000D03*
X148520000Y-113925000D03*
X148520000Y-114725000D03*
X147720000Y-102725000D03*
X147720000Y-103525000D03*
X147720000Y-104325000D03*
X147720000Y-105125000D03*
X147720000Y-105925000D03*
X147720000Y-106725000D03*
X147720000Y-107525000D03*
X147720000Y-108325000D03*
X147720000Y-109125000D03*
X147720000Y-109925000D03*
X147720000Y-110725000D03*
X147720000Y-111525000D03*
X147720000Y-112325000D03*
X147720000Y-113125000D03*
X147720000Y-113925000D03*
X147720000Y-114725000D03*
X146920000Y-102725000D03*
X146920000Y-103525000D03*
X146920000Y-104325000D03*
X146920000Y-105125000D03*
X146920000Y-105925000D03*
X146920000Y-106725000D03*
X146920000Y-107525000D03*
X146920000Y-108325000D03*
X146920000Y-109125000D03*
X146920000Y-109925000D03*
X146920000Y-110725000D03*
X146920000Y-111525000D03*
X146920000Y-112325000D03*
X146920000Y-113125000D03*
X146920000Y-113925000D03*
X146920000Y-114725000D03*
X146120000Y-102725000D03*
X146120000Y-103525000D03*
X146120000Y-104325000D03*
X146120000Y-105125000D03*
X146120000Y-105925000D03*
X146120000Y-106725000D03*
X146120000Y-107525000D03*
X146120000Y-108325000D03*
X146120000Y-109125000D03*
X146120000Y-109925000D03*
X146120000Y-110725000D03*
X146120000Y-111525000D03*
X146120000Y-112325000D03*
X146120000Y-113125000D03*
X146120000Y-113925000D03*
X146120000Y-114725000D03*
X145320000Y-102725000D03*
X145320000Y-103525000D03*
X145320000Y-104325000D03*
X145320000Y-105125000D03*
X145320000Y-105925000D03*
X145320000Y-106725000D03*
X145320000Y-107525000D03*
X145320000Y-108325000D03*
X145320000Y-109125000D03*
X145320000Y-109925000D03*
X145320000Y-110725000D03*
X145320000Y-111525000D03*
X145320000Y-112325000D03*
X145320000Y-113125000D03*
X145320000Y-113925000D03*
X145320000Y-114725000D03*
X144520000Y-102725000D03*
X144520000Y-103525000D03*
X144520000Y-104325000D03*
X144520000Y-105125000D03*
X144520000Y-105925000D03*
X144520000Y-106725000D03*
X144520000Y-107525000D03*
X144520000Y-108325000D03*
X144520000Y-109125000D03*
X144520000Y-109925000D03*
X144520000Y-110725000D03*
X144520000Y-111525000D03*
X144520000Y-112325000D03*
X144520000Y-113125000D03*
X144520000Y-113925000D03*
X144520000Y-114725000D03*
X143720000Y-102725000D03*
X143720000Y-103525000D03*
X143720000Y-104325000D03*
X143720000Y-105125000D03*
X143720000Y-105925000D03*
X143720000Y-106725000D03*
X143720000Y-107525000D03*
X143720000Y-108325000D03*
X143720000Y-109125000D03*
X143720000Y-109925000D03*
X143720000Y-110725000D03*
X143720000Y-111525000D03*
X143720000Y-112325000D03*
X143720000Y-113125000D03*
X143720000Y-113925000D03*
X143720000Y-114725000D03*
X142920000Y-102725000D03*
X142920000Y-103525000D03*
X142920000Y-104325000D03*
X142920000Y-105125000D03*
X142920000Y-105925000D03*
X142920000Y-106725000D03*
X142920000Y-107525000D03*
X142920000Y-108325000D03*
X142920000Y-109125000D03*
X142920000Y-109925000D03*
X142920000Y-110725000D03*
X142920000Y-111525000D03*
X142920000Y-112325000D03*
X142920000Y-113125000D03*
X142920000Y-113925000D03*
X142920000Y-114725000D03*
X142120000Y-102725000D03*
X142120000Y-103525000D03*
X142120000Y-104325000D03*
X142120000Y-105125000D03*
X142120000Y-105925000D03*
X142120000Y-106725000D03*
X142120000Y-107525000D03*
X142120000Y-108325000D03*
X142120000Y-109125000D03*
X142120000Y-109925000D03*
X142120000Y-110725000D03*
X142120000Y-111525000D03*
X142120000Y-112325000D03*
X142120000Y-113125000D03*
X142120000Y-113925000D03*
X142120000Y-114725000D03*
X141320000Y-102725000D03*
X141320000Y-103525000D03*
X141320000Y-104325000D03*
X141320000Y-105125000D03*
X141320000Y-105925000D03*
X141320000Y-106725000D03*
X141320000Y-107525000D03*
X141320000Y-108325000D03*
X141320000Y-109125000D03*
X141320000Y-109925000D03*
X141320000Y-110725000D03*
X141320000Y-111525000D03*
X141320000Y-112325000D03*
X141320000Y-113125000D03*
X141320000Y-113925000D03*
X141320000Y-114725000D03*
X140520000Y-102725000D03*
X140520000Y-103525000D03*
X140520000Y-104325000D03*
X140520000Y-105125000D03*
X140520000Y-105925000D03*
X140520000Y-106725000D03*
X140520000Y-107525000D03*
X140520000Y-108325000D03*
X140520000Y-109125000D03*
X140520000Y-109925000D03*
X140520000Y-110725000D03*
X140520000Y-111525000D03*
X140520000Y-112325000D03*
X140520000Y-113125000D03*
X140520000Y-113925000D03*
X140520000Y-114725000D03*
X139720000Y-102725000D03*
X139720000Y-103525000D03*
X139720000Y-104325000D03*
X139720000Y-105125000D03*
X139720000Y-105925000D03*
X139720000Y-106725000D03*
X139720000Y-107525000D03*
X139720000Y-108325000D03*
X139720000Y-109125000D03*
X139720000Y-109925000D03*
X139720000Y-110725000D03*
X139720000Y-111525000D03*
X139720000Y-112325000D03*
X139720000Y-113125000D03*
X139720000Y-113925000D03*
X139720000Y-114725000D03*
X138920000Y-102725000D03*
X138920000Y-103525000D03*
X138920000Y-104325000D03*
X138920000Y-105125000D03*
X138920000Y-105925000D03*
X138920000Y-106725000D03*
X138920000Y-107525000D03*
X138920000Y-108325000D03*
X138920000Y-109125000D03*
X138920000Y-109925000D03*
X138920000Y-110725000D03*
X138920000Y-111525000D03*
X138920000Y-112325000D03*
X138920000Y-113125000D03*
X138920000Y-113925000D03*
%TD*%
%TO.C,D301*%
G36*
G01*
X137954000Y-74031250D02*
X137954000Y-73568750D01*
G75*
G02*
X138147750Y-73375000I193750J0D01*
G01*
X138535250Y-73375000D01*
G75*
G02*
X138729000Y-73568750I0J-193750D01*
G01*
X138729000Y-74031250D01*
G75*
G02*
X138535250Y-74225000I-193750J0D01*
G01*
X138147750Y-74225000D01*
G75*
G02*
X137954000Y-74031250I0J193750D01*
G01*
G37*
G36*
G01*
X136379000Y-74031250D02*
X136379000Y-73568750D01*
G75*
G02*
X136572750Y-73375000I193750J0D01*
G01*
X136960250Y-73375000D01*
G75*
G02*
X137154000Y-73568750I0J-193750D01*
G01*
X137154000Y-74031250D01*
G75*
G02*
X136960250Y-74225000I-193750J0D01*
G01*
X136572750Y-74225000D01*
G75*
G02*
X136379000Y-74031250I0J193750D01*
G01*
G37*
%TD*%
%TO.C,D302*%
G36*
G01*
X134144000Y-74031250D02*
X134144000Y-73568750D01*
G75*
G02*
X134337750Y-73375000I193750J0D01*
G01*
X134725250Y-73375000D01*
G75*
G02*
X134919000Y-73568750I0J-193750D01*
G01*
X134919000Y-74031250D01*
G75*
G02*
X134725250Y-74225000I-193750J0D01*
G01*
X134337750Y-74225000D01*
G75*
G02*
X134144000Y-74031250I0J193750D01*
G01*
G37*
G36*
G01*
X132569000Y-74031250D02*
X132569000Y-73568750D01*
G75*
G02*
X132762750Y-73375000I193750J0D01*
G01*
X133150250Y-73375000D01*
G75*
G02*
X133344000Y-73568750I0J-193750D01*
G01*
X133344000Y-74031250D01*
G75*
G02*
X133150250Y-74225000I-193750J0D01*
G01*
X132762750Y-74225000D01*
G75*
G02*
X132569000Y-74031250I0J193750D01*
G01*
G37*
%TD*%
%TO.C,D303*%
G36*
G01*
X130343000Y-74031250D02*
X130343000Y-73568750D01*
G75*
G02*
X130536750Y-73375000I193750J0D01*
G01*
X130924250Y-73375000D01*
G75*
G02*
X131118000Y-73568750I0J-193750D01*
G01*
X131118000Y-74031250D01*
G75*
G02*
X130924250Y-74225000I-193750J0D01*
G01*
X130536750Y-74225000D01*
G75*
G02*
X130343000Y-74031250I0J193750D01*
G01*
G37*
G36*
G01*
X128768000Y-74031250D02*
X128768000Y-73568750D01*
G75*
G02*
X128961750Y-73375000I193750J0D01*
G01*
X129349250Y-73375000D01*
G75*
G02*
X129543000Y-73568750I0J-193750D01*
G01*
X129543000Y-74031250D01*
G75*
G02*
X129349250Y-74225000I-193750J0D01*
G01*
X128961750Y-74225000D01*
G75*
G02*
X128768000Y-74031250I0J193750D01*
G01*
G37*
%TD*%
%TO.C,C411*%
G36*
G01*
X122350000Y-122650000D02*
X122350000Y-121750000D01*
G75*
G02*
X122575000Y-121525000I225000J0D01*
G01*
X123025000Y-121525000D01*
G75*
G02*
X123250000Y-121750000I0J-225000D01*
G01*
X123250000Y-122650000D01*
G75*
G02*
X123025000Y-122875000I-225000J0D01*
G01*
X122575000Y-122875000D01*
G75*
G02*
X122350000Y-122650000I0J225000D01*
G01*
G37*
G36*
G01*
X120450000Y-122650000D02*
X120450000Y-121750000D01*
G75*
G02*
X120675000Y-121525000I225000J0D01*
G01*
X121125000Y-121525000D01*
G75*
G02*
X121350000Y-121750000I0J-225000D01*
G01*
X121350000Y-122650000D01*
G75*
G02*
X121125000Y-122875000I-225000J0D01*
G01*
X120675000Y-122875000D01*
G75*
G02*
X120450000Y-122650000I0J225000D01*
G01*
G37*
%TD*%
%TO.C,C408*%
G36*
G01*
X122350000Y-124650000D02*
X122350000Y-123750000D01*
G75*
G02*
X122575000Y-123525000I225000J0D01*
G01*
X123025000Y-123525000D01*
G75*
G02*
X123250000Y-123750000I0J-225000D01*
G01*
X123250000Y-124650000D01*
G75*
G02*
X123025000Y-124875000I-225000J0D01*
G01*
X122575000Y-124875000D01*
G75*
G02*
X122350000Y-124650000I0J225000D01*
G01*
G37*
G36*
G01*
X120450000Y-124650000D02*
X120450000Y-123750000D01*
G75*
G02*
X120675000Y-123525000I225000J0D01*
G01*
X121125000Y-123525000D01*
G75*
G02*
X121350000Y-123750000I0J-225000D01*
G01*
X121350000Y-124650000D01*
G75*
G02*
X121125000Y-124875000I-225000J0D01*
G01*
X120675000Y-124875000D01*
G75*
G02*
X120450000Y-124650000I0J225000D01*
G01*
G37*
%TD*%
%TO.C,C410*%
G36*
G01*
X112450000Y-122650000D02*
X112450000Y-121750000D01*
G75*
G02*
X112675000Y-121525000I225000J0D01*
G01*
X113125000Y-121525000D01*
G75*
G02*
X113350000Y-121750000I0J-225000D01*
G01*
X113350000Y-122650000D01*
G75*
G02*
X113125000Y-122875000I-225000J0D01*
G01*
X112675000Y-122875000D01*
G75*
G02*
X112450000Y-122650000I0J225000D01*
G01*
G37*
G36*
G01*
X110550000Y-122650000D02*
X110550000Y-121750000D01*
G75*
G02*
X110775000Y-121525000I225000J0D01*
G01*
X111225000Y-121525000D01*
G75*
G02*
X111450000Y-121750000I0J-225000D01*
G01*
X111450000Y-122650000D01*
G75*
G02*
X111225000Y-122875000I-225000J0D01*
G01*
X110775000Y-122875000D01*
G75*
G02*
X110550000Y-122650000I0J225000D01*
G01*
G37*
%TD*%
%TO.C,C407*%
G36*
G01*
X112450000Y-124650000D02*
X112450000Y-123750000D01*
G75*
G02*
X112675000Y-123525000I225000J0D01*
G01*
X113125000Y-123525000D01*
G75*
G02*
X113350000Y-123750000I0J-225000D01*
G01*
X113350000Y-124650000D01*
G75*
G02*
X113125000Y-124875000I-225000J0D01*
G01*
X112675000Y-124875000D01*
G75*
G02*
X112450000Y-124650000I0J225000D01*
G01*
G37*
G36*
G01*
X110550000Y-124650000D02*
X110550000Y-123750000D01*
G75*
G02*
X110775000Y-123525000I225000J0D01*
G01*
X111225000Y-123525000D01*
G75*
G02*
X111450000Y-123750000I0J-225000D01*
G01*
X111450000Y-124650000D01*
G75*
G02*
X111225000Y-124875000I-225000J0D01*
G01*
X110775000Y-124875000D01*
G75*
G02*
X110550000Y-124650000I0J225000D01*
G01*
G37*
%TD*%
%TO.C,C405*%
G36*
G01*
X115250000Y-127850000D02*
X115540000Y-127850000D01*
G75*
G02*
X115655000Y-127965000I0J-115000D01*
G01*
X115655000Y-128195000D01*
G75*
G02*
X115540000Y-128310000I-115000J0D01*
G01*
X115250000Y-128310000D01*
G75*
G02*
X115135000Y-128195000I0J115000D01*
G01*
X115135000Y-127965000D01*
G75*
G02*
X115250000Y-127850000I115000J0D01*
G01*
G37*
G36*
G01*
X115250000Y-126890000D02*
X115540000Y-126890000D01*
G75*
G02*
X115655000Y-127005000I0J-115000D01*
G01*
X115655000Y-127235000D01*
G75*
G02*
X115540000Y-127350000I-115000J0D01*
G01*
X115250000Y-127350000D01*
G75*
G02*
X115135000Y-127235000I0J115000D01*
G01*
X115135000Y-127005000D01*
G75*
G02*
X115250000Y-126890000I115000J0D01*
G01*
G37*
%TD*%
%TO.C,C402*%
G36*
G01*
X122045000Y-130475000D02*
X122045000Y-129575000D01*
G75*
G02*
X122270000Y-129350000I225000J0D01*
G01*
X122720000Y-129350000D01*
G75*
G02*
X122945000Y-129575000I0J-225000D01*
G01*
X122945000Y-130475000D01*
G75*
G02*
X122720000Y-130700000I-225000J0D01*
G01*
X122270000Y-130700000D01*
G75*
G02*
X122045000Y-130475000I0J225000D01*
G01*
G37*
G36*
G01*
X120145000Y-130475000D02*
X120145000Y-129575000D01*
G75*
G02*
X120370000Y-129350000I225000J0D01*
G01*
X120820000Y-129350000D01*
G75*
G02*
X121045000Y-129575000I0J-225000D01*
G01*
X121045000Y-130475000D01*
G75*
G02*
X120820000Y-130700000I-225000J0D01*
G01*
X120370000Y-130700000D01*
G75*
G02*
X120145000Y-130475000I0J225000D01*
G01*
G37*
%TD*%
%TO.C,C401*%
G36*
G01*
X112120000Y-130475000D02*
X112120000Y-129575000D01*
G75*
G02*
X112345000Y-129350000I225000J0D01*
G01*
X112795000Y-129350000D01*
G75*
G02*
X113020000Y-129575000I0J-225000D01*
G01*
X113020000Y-130475000D01*
G75*
G02*
X112795000Y-130700000I-225000J0D01*
G01*
X112345000Y-130700000D01*
G75*
G02*
X112120000Y-130475000I0J225000D01*
G01*
G37*
G36*
G01*
X110220000Y-130475000D02*
X110220000Y-129575000D01*
G75*
G02*
X110445000Y-129350000I225000J0D01*
G01*
X110895000Y-129350000D01*
G75*
G02*
X111120000Y-129575000I0J-225000D01*
G01*
X111120000Y-130475000D01*
G75*
G02*
X110895000Y-130700000I-225000J0D01*
G01*
X110445000Y-130700000D01*
G75*
G02*
X110220000Y-130475000I0J225000D01*
G01*
G37*
%TD*%
%TO.C,C414*%
G36*
G01*
X189759000Y-134945000D02*
X189759000Y-135845000D01*
G75*
G02*
X189534000Y-136070000I-225000J0D01*
G01*
X189084000Y-136070000D01*
G75*
G02*
X188859000Y-135845000I0J225000D01*
G01*
X188859000Y-134945000D01*
G75*
G02*
X189084000Y-134720000I225000J0D01*
G01*
X189534000Y-134720000D01*
G75*
G02*
X189759000Y-134945000I0J-225000D01*
G01*
G37*
G36*
G01*
X191659000Y-134945000D02*
X191659000Y-135845000D01*
G75*
G02*
X191434000Y-136070000I-225000J0D01*
G01*
X190984000Y-136070000D01*
G75*
G02*
X190759000Y-135845000I0J225000D01*
G01*
X190759000Y-134945000D01*
G75*
G02*
X190984000Y-134720000I225000J0D01*
G01*
X191434000Y-134720000D01*
G75*
G02*
X191659000Y-134945000I0J-225000D01*
G01*
G37*
%TD*%
%TO.C,C416*%
G36*
G01*
X189759000Y-132151000D02*
X189759000Y-133051000D01*
G75*
G02*
X189534000Y-133276000I-225000J0D01*
G01*
X189084000Y-133276000D01*
G75*
G02*
X188859000Y-133051000I0J225000D01*
G01*
X188859000Y-132151000D01*
G75*
G02*
X189084000Y-131926000I225000J0D01*
G01*
X189534000Y-131926000D01*
G75*
G02*
X189759000Y-132151000I0J-225000D01*
G01*
G37*
G36*
G01*
X191659000Y-132151000D02*
X191659000Y-133051000D01*
G75*
G02*
X191434000Y-133276000I-225000J0D01*
G01*
X190984000Y-133276000D01*
G75*
G02*
X190759000Y-133051000I0J225000D01*
G01*
X190759000Y-132151000D01*
G75*
G02*
X190984000Y-131926000I225000J0D01*
G01*
X191434000Y-131926000D01*
G75*
G02*
X191659000Y-132151000I0J-225000D01*
G01*
G37*
%TD*%
%TO.C,C420*%
G36*
G01*
X187137000Y-133559000D02*
X187137000Y-132659000D01*
G75*
G02*
X187362000Y-132434000I225000J0D01*
G01*
X187812000Y-132434000D01*
G75*
G02*
X188037000Y-132659000I0J-225000D01*
G01*
X188037000Y-133559000D01*
G75*
G02*
X187812000Y-133784000I-225000J0D01*
G01*
X187362000Y-133784000D01*
G75*
G02*
X187137000Y-133559000I0J225000D01*
G01*
G37*
G36*
G01*
X185237000Y-133559000D02*
X185237000Y-132659000D01*
G75*
G02*
X185462000Y-132434000I225000J0D01*
G01*
X185912000Y-132434000D01*
G75*
G02*
X186137000Y-132659000I0J-225000D01*
G01*
X186137000Y-133559000D01*
G75*
G02*
X185912000Y-133784000I-225000J0D01*
G01*
X185462000Y-133784000D01*
G75*
G02*
X185237000Y-133559000I0J225000D01*
G01*
G37*
%TD*%
%TO.C,C409*%
G36*
G01*
X159780000Y-112175000D02*
X158880000Y-112175000D01*
G75*
G02*
X158655000Y-111950000I0J225000D01*
G01*
X158655000Y-111500000D01*
G75*
G02*
X158880000Y-111275000I225000J0D01*
G01*
X159780000Y-111275000D01*
G75*
G02*
X160005000Y-111500000I0J-225000D01*
G01*
X160005000Y-111950000D01*
G75*
G02*
X159780000Y-112175000I-225000J0D01*
G01*
G37*
G36*
G01*
X159780000Y-114075000D02*
X158880000Y-114075000D01*
G75*
G02*
X158655000Y-113850000I0J225000D01*
G01*
X158655000Y-113400000D01*
G75*
G02*
X158880000Y-113175000I225000J0D01*
G01*
X159780000Y-113175000D01*
G75*
G02*
X160005000Y-113400000I0J-225000D01*
G01*
X160005000Y-113850000D01*
G75*
G02*
X159780000Y-114075000I-225000J0D01*
G01*
G37*
%TD*%
%TO.C,C404*%
G36*
G01*
X165780000Y-112175000D02*
X164880000Y-112175000D01*
G75*
G02*
X164655000Y-111950000I0J225000D01*
G01*
X164655000Y-111500000D01*
G75*
G02*
X164880000Y-111275000I225000J0D01*
G01*
X165780000Y-111275000D01*
G75*
G02*
X166005000Y-111500000I0J-225000D01*
G01*
X166005000Y-111950000D01*
G75*
G02*
X165780000Y-112175000I-225000J0D01*
G01*
G37*
G36*
G01*
X165780000Y-114075000D02*
X164880000Y-114075000D01*
G75*
G02*
X164655000Y-113850000I0J225000D01*
G01*
X164655000Y-113400000D01*
G75*
G02*
X164880000Y-113175000I225000J0D01*
G01*
X165780000Y-113175000D01*
G75*
G02*
X166005000Y-113400000I0J-225000D01*
G01*
X166005000Y-113850000D01*
G75*
G02*
X165780000Y-114075000I-225000J0D01*
G01*
G37*
%TD*%
%TO.C,R402*%
G36*
G01*
X114235000Y-127890000D02*
X114555000Y-127890000D01*
G75*
G02*
X114665000Y-128000000I0J-110000D01*
G01*
X114665000Y-128220000D01*
G75*
G02*
X114555000Y-128330000I-110000J0D01*
G01*
X114235000Y-128330000D01*
G75*
G02*
X114125000Y-128220000I0J110000D01*
G01*
X114125000Y-128000000D01*
G75*
G02*
X114235000Y-127890000I110000J0D01*
G01*
G37*
G36*
G01*
X114235000Y-126870000D02*
X114555000Y-126870000D01*
G75*
G02*
X114665000Y-126980000I0J-110000D01*
G01*
X114665000Y-127200000D01*
G75*
G02*
X114555000Y-127310000I-110000J0D01*
G01*
X114235000Y-127310000D01*
G75*
G02*
X114125000Y-127200000I0J110000D01*
G01*
X114125000Y-126980000D01*
G75*
G02*
X114235000Y-126870000I110000J0D01*
G01*
G37*
%TD*%
%TO.C,R403*%
G36*
G01*
X114235000Y-129790000D02*
X114555000Y-129790000D01*
G75*
G02*
X114665000Y-129900000I0J-110000D01*
G01*
X114665000Y-130120000D01*
G75*
G02*
X114555000Y-130230000I-110000J0D01*
G01*
X114235000Y-130230000D01*
G75*
G02*
X114125000Y-130120000I0J110000D01*
G01*
X114125000Y-129900000D01*
G75*
G02*
X114235000Y-129790000I110000J0D01*
G01*
G37*
G36*
G01*
X114235000Y-128770000D02*
X114555000Y-128770000D01*
G75*
G02*
X114665000Y-128880000I0J-110000D01*
G01*
X114665000Y-129100000D01*
G75*
G02*
X114555000Y-129210000I-110000J0D01*
G01*
X114235000Y-129210000D01*
G75*
G02*
X114125000Y-129100000I0J110000D01*
G01*
X114125000Y-128880000D01*
G75*
G02*
X114235000Y-128770000I110000J0D01*
G01*
G37*
%TD*%
%TO.C,FB401*%
G36*
G01*
X185791250Y-129635500D02*
X185328750Y-129635500D01*
G75*
G02*
X185135000Y-129441750I0J193750D01*
G01*
X185135000Y-129054250D01*
G75*
G02*
X185328750Y-128860500I193750J0D01*
G01*
X185791250Y-128860500D01*
G75*
G02*
X185985000Y-129054250I0J-193750D01*
G01*
X185985000Y-129441750D01*
G75*
G02*
X185791250Y-129635500I-193750J0D01*
G01*
G37*
G36*
G01*
X185791250Y-131210500D02*
X185328750Y-131210500D01*
G75*
G02*
X185135000Y-131016750I0J193750D01*
G01*
X185135000Y-130629250D01*
G75*
G02*
X185328750Y-130435500I193750J0D01*
G01*
X185791250Y-130435500D01*
G75*
G02*
X185985000Y-130629250I0J-193750D01*
G01*
X185985000Y-131016750D01*
G75*
G02*
X185791250Y-131210500I-193750J0D01*
G01*
G37*
%TD*%
%TO.C,R310*%
G36*
G01*
X165840000Y-85510000D02*
X165840000Y-85190000D01*
G75*
G02*
X165950000Y-85080000I110000J0D01*
G01*
X166170000Y-85080000D01*
G75*
G02*
X166280000Y-85190000I0J-110000D01*
G01*
X166280000Y-85510000D01*
G75*
G02*
X166170000Y-85620000I-110000J0D01*
G01*
X165950000Y-85620000D01*
G75*
G02*
X165840000Y-85510000I0J110000D01*
G01*
G37*
G36*
G01*
X164820000Y-85510000D02*
X164820000Y-85190000D01*
G75*
G02*
X164930000Y-85080000I110000J0D01*
G01*
X165150000Y-85080000D01*
G75*
G02*
X165260000Y-85190000I0J-110000D01*
G01*
X165260000Y-85510000D01*
G75*
G02*
X165150000Y-85620000I-110000J0D01*
G01*
X164930000Y-85620000D01*
G75*
G02*
X164820000Y-85510000I0J110000D01*
G01*
G37*
%TD*%
%TO.C,R307*%
G36*
G01*
X166890000Y-85140000D02*
X167210000Y-85140000D01*
G75*
G02*
X167320000Y-85250000I0J-110000D01*
G01*
X167320000Y-85470000D01*
G75*
G02*
X167210000Y-85580000I-110000J0D01*
G01*
X166890000Y-85580000D01*
G75*
G02*
X166780000Y-85470000I0J110000D01*
G01*
X166780000Y-85250000D01*
G75*
G02*
X166890000Y-85140000I110000J0D01*
G01*
G37*
G36*
G01*
X166890000Y-84120000D02*
X167210000Y-84120000D01*
G75*
G02*
X167320000Y-84230000I0J-110000D01*
G01*
X167320000Y-84450000D01*
G75*
G02*
X167210000Y-84560000I-110000J0D01*
G01*
X166890000Y-84560000D01*
G75*
G02*
X166780000Y-84450000I0J110000D01*
G01*
X166780000Y-84230000D01*
G75*
G02*
X166890000Y-84120000I110000J0D01*
G01*
G37*
%TD*%
%TO.C,R309*%
G36*
G01*
X165840000Y-84510000D02*
X165840000Y-84190000D01*
G75*
G02*
X165950000Y-84080000I110000J0D01*
G01*
X166170000Y-84080000D01*
G75*
G02*
X166280000Y-84190000I0J-110000D01*
G01*
X166280000Y-84510000D01*
G75*
G02*
X166170000Y-84620000I-110000J0D01*
G01*
X165950000Y-84620000D01*
G75*
G02*
X165840000Y-84510000I0J110000D01*
G01*
G37*
G36*
G01*
X164820000Y-84510000D02*
X164820000Y-84190000D01*
G75*
G02*
X164930000Y-84080000I110000J0D01*
G01*
X165150000Y-84080000D01*
G75*
G02*
X165260000Y-84190000I0J-110000D01*
G01*
X165260000Y-84510000D01*
G75*
G02*
X165150000Y-84620000I-110000J0D01*
G01*
X164930000Y-84620000D01*
G75*
G02*
X164820000Y-84510000I0J110000D01*
G01*
G37*
%TD*%
%TO.C,R306*%
G36*
G01*
X169290000Y-110160000D02*
X169290000Y-109840000D01*
G75*
G02*
X169400000Y-109730000I110000J0D01*
G01*
X169620000Y-109730000D01*
G75*
G02*
X169730000Y-109840000I0J-110000D01*
G01*
X169730000Y-110160000D01*
G75*
G02*
X169620000Y-110270000I-110000J0D01*
G01*
X169400000Y-110270000D01*
G75*
G02*
X169290000Y-110160000I0J110000D01*
G01*
G37*
G36*
G01*
X168270000Y-110160000D02*
X168270000Y-109840000D01*
G75*
G02*
X168380000Y-109730000I110000J0D01*
G01*
X168600000Y-109730000D01*
G75*
G02*
X168710000Y-109840000I0J-110000D01*
G01*
X168710000Y-110160000D01*
G75*
G02*
X168600000Y-110270000I-110000J0D01*
G01*
X168380000Y-110270000D01*
G75*
G02*
X168270000Y-110160000I0J110000D01*
G01*
G37*
%TD*%
%TO.C,R308*%
G36*
G01*
X168710000Y-108840000D02*
X168710000Y-109160000D01*
G75*
G02*
X168600000Y-109270000I-110000J0D01*
G01*
X168380000Y-109270000D01*
G75*
G02*
X168270000Y-109160000I0J110000D01*
G01*
X168270000Y-108840000D01*
G75*
G02*
X168380000Y-108730000I110000J0D01*
G01*
X168600000Y-108730000D01*
G75*
G02*
X168710000Y-108840000I0J-110000D01*
G01*
G37*
G36*
G01*
X169730000Y-108840000D02*
X169730000Y-109160000D01*
G75*
G02*
X169620000Y-109270000I-110000J0D01*
G01*
X169400000Y-109270000D01*
G75*
G02*
X169290000Y-109160000I0J110000D01*
G01*
X169290000Y-108840000D01*
G75*
G02*
X169400000Y-108730000I110000J0D01*
G01*
X169620000Y-108730000D01*
G75*
G02*
X169730000Y-108840000I0J-110000D01*
G01*
G37*
%TD*%
%TO.C,R401*%
G36*
G01*
X118640000Y-136590000D02*
X118960000Y-136590000D01*
G75*
G02*
X119070000Y-136700000I0J-110000D01*
G01*
X119070000Y-136920000D01*
G75*
G02*
X118960000Y-137030000I-110000J0D01*
G01*
X118640000Y-137030000D01*
G75*
G02*
X118530000Y-136920000I0J110000D01*
G01*
X118530000Y-136700000D01*
G75*
G02*
X118640000Y-136590000I110000J0D01*
G01*
G37*
G36*
G01*
X118640000Y-135570000D02*
X118960000Y-135570000D01*
G75*
G02*
X119070000Y-135680000I0J-110000D01*
G01*
X119070000Y-135900000D01*
G75*
G02*
X118960000Y-136010000I-110000J0D01*
G01*
X118640000Y-136010000D01*
G75*
G02*
X118530000Y-135900000I0J110000D01*
G01*
X118530000Y-135680000D01*
G75*
G02*
X118640000Y-135570000I110000J0D01*
G01*
G37*
%TD*%
%TO.C,R409*%
G36*
G01*
X191990000Y-140898000D02*
X191990000Y-140578000D01*
G75*
G02*
X192100000Y-140468000I110000J0D01*
G01*
X192320000Y-140468000D01*
G75*
G02*
X192430000Y-140578000I0J-110000D01*
G01*
X192430000Y-140898000D01*
G75*
G02*
X192320000Y-141008000I-110000J0D01*
G01*
X192100000Y-141008000D01*
G75*
G02*
X191990000Y-140898000I0J110000D01*
G01*
G37*
G36*
G01*
X190970000Y-140898000D02*
X190970000Y-140578000D01*
G75*
G02*
X191080000Y-140468000I110000J0D01*
G01*
X191300000Y-140468000D01*
G75*
G02*
X191410000Y-140578000I0J-110000D01*
G01*
X191410000Y-140898000D01*
G75*
G02*
X191300000Y-141008000I-110000J0D01*
G01*
X191080000Y-141008000D01*
G75*
G02*
X190970000Y-140898000I0J110000D01*
G01*
G37*
%TD*%
%TO.C,R408*%
G36*
G01*
X193510000Y-140578000D02*
X193510000Y-140898000D01*
G75*
G02*
X193400000Y-141008000I-110000J0D01*
G01*
X193180000Y-141008000D01*
G75*
G02*
X193070000Y-140898000I0J110000D01*
G01*
X193070000Y-140578000D01*
G75*
G02*
X193180000Y-140468000I110000J0D01*
G01*
X193400000Y-140468000D01*
G75*
G02*
X193510000Y-140578000I0J-110000D01*
G01*
G37*
G36*
G01*
X194530000Y-140578000D02*
X194530000Y-140898000D01*
G75*
G02*
X194420000Y-141008000I-110000J0D01*
G01*
X194200000Y-141008000D01*
G75*
G02*
X194090000Y-140898000I0J110000D01*
G01*
X194090000Y-140578000D01*
G75*
G02*
X194200000Y-140468000I110000J0D01*
G01*
X194420000Y-140468000D01*
G75*
G02*
X194530000Y-140578000I0J-110000D01*
G01*
G37*
%TD*%
%TO.C,L401*%
G36*
G01*
X112055000Y-138425000D02*
X114145000Y-138425000D01*
G75*
G02*
X114375000Y-138655000I0J-230000D01*
G01*
X114375000Y-139345000D01*
G75*
G02*
X114145000Y-139575000I-230000J0D01*
G01*
X112055000Y-139575000D01*
G75*
G02*
X111825000Y-139345000I0J230000D01*
G01*
X111825000Y-138655000D01*
G75*
G02*
X112055000Y-138425000I230000J0D01*
G01*
G37*
G36*
G01*
X112055000Y-135625000D02*
X114145000Y-135625000D01*
G75*
G02*
X114375000Y-135855000I0J-230000D01*
G01*
X114375000Y-136545000D01*
G75*
G02*
X114145000Y-136775000I-230000J0D01*
G01*
X112055000Y-136775000D01*
G75*
G02*
X111825000Y-136545000I0J230000D01*
G01*
X111825000Y-135855000D01*
G75*
G02*
X112055000Y-135625000I230000J0D01*
G01*
G37*
%TD*%
%TO.C,C403*%
G36*
G01*
X122071741Y-136650000D02*
X119928259Y-136650000D01*
G75*
G02*
X119700000Y-136421741I0J228259D01*
G01*
X119700000Y-135828259D01*
G75*
G02*
X119928259Y-135600000I228259J0D01*
G01*
X122071741Y-135600000D01*
G75*
G02*
X122300000Y-135828259I0J-228259D01*
G01*
X122300000Y-136421741D01*
G75*
G02*
X122071741Y-136650000I-228259J0D01*
G01*
G37*
G36*
G01*
X122071741Y-139600000D02*
X119928259Y-139600000D01*
G75*
G02*
X119700000Y-139371741I0J228259D01*
G01*
X119700000Y-138778259D01*
G75*
G02*
X119928259Y-138550000I228259J0D01*
G01*
X122071741Y-138550000D01*
G75*
G02*
X122300000Y-138778259I0J-228259D01*
G01*
X122300000Y-139371741D01*
G75*
G02*
X122071741Y-139600000I-228259J0D01*
G01*
G37*
%TD*%
%TO.C,C305*%
G36*
G01*
X189669000Y-98605000D02*
X189959000Y-98605000D01*
G75*
G02*
X190074000Y-98720000I0J-115000D01*
G01*
X190074000Y-98950000D01*
G75*
G02*
X189959000Y-99065000I-115000J0D01*
G01*
X189669000Y-99065000D01*
G75*
G02*
X189554000Y-98950000I0J115000D01*
G01*
X189554000Y-98720000D01*
G75*
G02*
X189669000Y-98605000I115000J0D01*
G01*
G37*
G36*
G01*
X189669000Y-97645000D02*
X189959000Y-97645000D01*
G75*
G02*
X190074000Y-97760000I0J-115000D01*
G01*
X190074000Y-97990000D01*
G75*
G02*
X189959000Y-98105000I-115000J0D01*
G01*
X189669000Y-98105000D01*
G75*
G02*
X189554000Y-97990000I0J115000D01*
G01*
X189554000Y-97760000D01*
G75*
G02*
X189669000Y-97645000I115000J0D01*
G01*
G37*
%TD*%
%TO.C,C304*%
G36*
G01*
X189959000Y-100585000D02*
X189669000Y-100585000D01*
G75*
G02*
X189554000Y-100470000I0J115000D01*
G01*
X189554000Y-100240000D01*
G75*
G02*
X189669000Y-100125000I115000J0D01*
G01*
X189959000Y-100125000D01*
G75*
G02*
X190074000Y-100240000I0J-115000D01*
G01*
X190074000Y-100470000D01*
G75*
G02*
X189959000Y-100585000I-115000J0D01*
G01*
G37*
G36*
G01*
X189959000Y-101545000D02*
X189669000Y-101545000D01*
G75*
G02*
X189554000Y-101430000I0J115000D01*
G01*
X189554000Y-101200000D01*
G75*
G02*
X189669000Y-101085000I115000J0D01*
G01*
X189959000Y-101085000D01*
G75*
G02*
X190074000Y-101200000I0J-115000D01*
G01*
X190074000Y-101430000D01*
G75*
G02*
X189959000Y-101545000I-115000J0D01*
G01*
G37*
%TD*%
%TO.C,C303*%
G36*
G01*
X188350000Y-92045000D02*
X188350000Y-91755000D01*
G75*
G02*
X188465000Y-91640000I115000J0D01*
G01*
X188695000Y-91640000D01*
G75*
G02*
X188810000Y-91755000I0J-115000D01*
G01*
X188810000Y-92045000D01*
G75*
G02*
X188695000Y-92160000I-115000J0D01*
G01*
X188465000Y-92160000D01*
G75*
G02*
X188350000Y-92045000I0J115000D01*
G01*
G37*
G36*
G01*
X187390000Y-92045000D02*
X187390000Y-91755000D01*
G75*
G02*
X187505000Y-91640000I115000J0D01*
G01*
X187735000Y-91640000D01*
G75*
G02*
X187850000Y-91755000I0J-115000D01*
G01*
X187850000Y-92045000D01*
G75*
G02*
X187735000Y-92160000I-115000J0D01*
G01*
X187505000Y-92160000D01*
G75*
G02*
X187390000Y-92045000I0J115000D01*
G01*
G37*
%TD*%
%TO.C,C302*%
G36*
G01*
X190509000Y-94585000D02*
X190219000Y-94585000D01*
G75*
G02*
X190104000Y-94470000I0J115000D01*
G01*
X190104000Y-94240000D01*
G75*
G02*
X190219000Y-94125000I115000J0D01*
G01*
X190509000Y-94125000D01*
G75*
G02*
X190624000Y-94240000I0J-115000D01*
G01*
X190624000Y-94470000D01*
G75*
G02*
X190509000Y-94585000I-115000J0D01*
G01*
G37*
G36*
G01*
X190509000Y-95545000D02*
X190219000Y-95545000D01*
G75*
G02*
X190104000Y-95430000I0J115000D01*
G01*
X190104000Y-95200000D01*
G75*
G02*
X190219000Y-95085000I115000J0D01*
G01*
X190509000Y-95085000D01*
G75*
G02*
X190624000Y-95200000I0J-115000D01*
G01*
X190624000Y-95430000D01*
G75*
G02*
X190509000Y-95545000I-115000J0D01*
G01*
G37*
%TD*%
%TO.C,C418*%
G36*
G01*
X190771000Y-130932000D02*
X190771000Y-131222000D01*
G75*
G02*
X190656000Y-131337000I-115000J0D01*
G01*
X190426000Y-131337000D01*
G75*
G02*
X190311000Y-131222000I0J115000D01*
G01*
X190311000Y-130932000D01*
G75*
G02*
X190426000Y-130817000I115000J0D01*
G01*
X190656000Y-130817000D01*
G75*
G02*
X190771000Y-130932000I0J-115000D01*
G01*
G37*
G36*
G01*
X191731000Y-130932000D02*
X191731000Y-131222000D01*
G75*
G02*
X191616000Y-131337000I-115000J0D01*
G01*
X191386000Y-131337000D01*
G75*
G02*
X191271000Y-131222000I0J115000D01*
G01*
X191271000Y-130932000D01*
G75*
G02*
X191386000Y-130817000I115000J0D01*
G01*
X191616000Y-130817000D01*
G75*
G02*
X191731000Y-130932000I0J-115000D01*
G01*
G37*
%TD*%
%TO.C,U406*%
G36*
G01*
X175910000Y-135040000D02*
X176160000Y-135040000D01*
G75*
G02*
X176285000Y-135165000I0J-125000D01*
G01*
X176285000Y-136765000D01*
G75*
G02*
X176160000Y-136890000I-125000J0D01*
G01*
X175910000Y-136890000D01*
G75*
G02*
X175785000Y-136765000I0J125000D01*
G01*
X175785000Y-135165000D01*
G75*
G02*
X175910000Y-135040000I125000J0D01*
G01*
G37*
G36*
G01*
X174640000Y-135040000D02*
X174890000Y-135040000D01*
G75*
G02*
X175015000Y-135165000I0J-125000D01*
G01*
X175015000Y-136765000D01*
G75*
G02*
X174890000Y-136890000I-125000J0D01*
G01*
X174640000Y-136890000D01*
G75*
G02*
X174515000Y-136765000I0J125000D01*
G01*
X174515000Y-135165000D01*
G75*
G02*
X174640000Y-135040000I125000J0D01*
G01*
G37*
G36*
G01*
X173370000Y-135040000D02*
X173620000Y-135040000D01*
G75*
G02*
X173745000Y-135165000I0J-125000D01*
G01*
X173745000Y-136765000D01*
G75*
G02*
X173620000Y-136890000I-125000J0D01*
G01*
X173370000Y-136890000D01*
G75*
G02*
X173245000Y-136765000I0J125000D01*
G01*
X173245000Y-135165000D01*
G75*
G02*
X173370000Y-135040000I125000J0D01*
G01*
G37*
G36*
G01*
X172100000Y-135040000D02*
X172350000Y-135040000D01*
G75*
G02*
X172475000Y-135165000I0J-125000D01*
G01*
X172475000Y-136765000D01*
G75*
G02*
X172350000Y-136890000I-125000J0D01*
G01*
X172100000Y-136890000D01*
G75*
G02*
X171975000Y-136765000I0J125000D01*
G01*
X171975000Y-135165000D01*
G75*
G02*
X172100000Y-135040000I125000J0D01*
G01*
G37*
G36*
G01*
X172100000Y-130090000D02*
X172350000Y-130090000D01*
G75*
G02*
X172475000Y-130215000I0J-125000D01*
G01*
X172475000Y-131815000D01*
G75*
G02*
X172350000Y-131940000I-125000J0D01*
G01*
X172100000Y-131940000D01*
G75*
G02*
X171975000Y-131815000I0J125000D01*
G01*
X171975000Y-130215000D01*
G75*
G02*
X172100000Y-130090000I125000J0D01*
G01*
G37*
G36*
G01*
X173370000Y-130090000D02*
X173620000Y-130090000D01*
G75*
G02*
X173745000Y-130215000I0J-125000D01*
G01*
X173745000Y-131815000D01*
G75*
G02*
X173620000Y-131940000I-125000J0D01*
G01*
X173370000Y-131940000D01*
G75*
G02*
X173245000Y-131815000I0J125000D01*
G01*
X173245000Y-130215000D01*
G75*
G02*
X173370000Y-130090000I125000J0D01*
G01*
G37*
G36*
G01*
X174640000Y-130090000D02*
X174890000Y-130090000D01*
G75*
G02*
X175015000Y-130215000I0J-125000D01*
G01*
X175015000Y-131815000D01*
G75*
G02*
X174890000Y-131940000I-125000J0D01*
G01*
X174640000Y-131940000D01*
G75*
G02*
X174515000Y-131815000I0J125000D01*
G01*
X174515000Y-130215000D01*
G75*
G02*
X174640000Y-130090000I125000J0D01*
G01*
G37*
G36*
G01*
X175910000Y-130090000D02*
X176160000Y-130090000D01*
G75*
G02*
X176285000Y-130215000I0J-125000D01*
G01*
X176285000Y-131815000D01*
G75*
G02*
X176160000Y-131940000I-125000J0D01*
G01*
X175910000Y-131940000D01*
G75*
G02*
X175785000Y-131815000I0J125000D01*
G01*
X175785000Y-130215000D01*
G75*
G02*
X175910000Y-130090000I125000J0D01*
G01*
G37*
%TD*%
%TO.C,U203*%
G36*
G01*
X130300000Y-130975000D02*
X130200000Y-130975000D01*
G75*
G02*
X130150000Y-130925000I0J50000D01*
G01*
X130150000Y-129650000D01*
G75*
G02*
X130200000Y-129600000I50000J0D01*
G01*
X130300000Y-129600000D01*
G75*
G02*
X130350000Y-129650000I0J-50000D01*
G01*
X130350000Y-130925000D01*
G75*
G02*
X130300000Y-130975000I-50000J0D01*
G01*
G37*
G36*
G01*
X130800000Y-130975000D02*
X130700000Y-130975000D01*
G75*
G02*
X130650000Y-130925000I0J50000D01*
G01*
X130650000Y-129650000D01*
G75*
G02*
X130700000Y-129600000I50000J0D01*
G01*
X130800000Y-129600000D01*
G75*
G02*
X130850000Y-129650000I0J-50000D01*
G01*
X130850000Y-130925000D01*
G75*
G02*
X130800000Y-130975000I-50000J0D01*
G01*
G37*
G36*
G01*
X131300000Y-130975000D02*
X131200000Y-130975000D01*
G75*
G02*
X131150000Y-130925000I0J50000D01*
G01*
X131150000Y-129650000D01*
G75*
G02*
X131200000Y-129600000I50000J0D01*
G01*
X131300000Y-129600000D01*
G75*
G02*
X131350000Y-129650000I0J-50000D01*
G01*
X131350000Y-130925000D01*
G75*
G02*
X131300000Y-130975000I-50000J0D01*
G01*
G37*
G36*
G01*
X131800000Y-130975000D02*
X131700000Y-130975000D01*
G75*
G02*
X131650000Y-130925000I0J50000D01*
G01*
X131650000Y-129650000D01*
G75*
G02*
X131700000Y-129600000I50000J0D01*
G01*
X131800000Y-129600000D01*
G75*
G02*
X131850000Y-129650000I0J-50000D01*
G01*
X131850000Y-130925000D01*
G75*
G02*
X131800000Y-130975000I-50000J0D01*
G01*
G37*
G36*
G01*
X132300000Y-130975000D02*
X132200000Y-130975000D01*
G75*
G02*
X132150000Y-130925000I0J50000D01*
G01*
X132150000Y-129650000D01*
G75*
G02*
X132200000Y-129600000I50000J0D01*
G01*
X132300000Y-129600000D01*
G75*
G02*
X132350000Y-129650000I0J-50000D01*
G01*
X132350000Y-130925000D01*
G75*
G02*
X132300000Y-130975000I-50000J0D01*
G01*
G37*
G36*
G01*
X132800000Y-130975000D02*
X132700000Y-130975000D01*
G75*
G02*
X132650000Y-130925000I0J50000D01*
G01*
X132650000Y-129650000D01*
G75*
G02*
X132700000Y-129600000I50000J0D01*
G01*
X132800000Y-129600000D01*
G75*
G02*
X132850000Y-129650000I0J-50000D01*
G01*
X132850000Y-130925000D01*
G75*
G02*
X132800000Y-130975000I-50000J0D01*
G01*
G37*
G36*
G01*
X133300000Y-130975000D02*
X133200000Y-130975000D01*
G75*
G02*
X133150000Y-130925000I0J50000D01*
G01*
X133150000Y-129650000D01*
G75*
G02*
X133200000Y-129600000I50000J0D01*
G01*
X133300000Y-129600000D01*
G75*
G02*
X133350000Y-129650000I0J-50000D01*
G01*
X133350000Y-130925000D01*
G75*
G02*
X133300000Y-130975000I-50000J0D01*
G01*
G37*
G36*
G01*
X133800000Y-130975000D02*
X133700000Y-130975000D01*
G75*
G02*
X133650000Y-130925000I0J50000D01*
G01*
X133650000Y-129650000D01*
G75*
G02*
X133700000Y-129600000I50000J0D01*
G01*
X133800000Y-129600000D01*
G75*
G02*
X133850000Y-129650000I0J-50000D01*
G01*
X133850000Y-130925000D01*
G75*
G02*
X133800000Y-130975000I-50000J0D01*
G01*
G37*
G36*
G01*
X134300000Y-130975000D02*
X134200000Y-130975000D01*
G75*
G02*
X134150000Y-130925000I0J50000D01*
G01*
X134150000Y-129650000D01*
G75*
G02*
X134200000Y-129600000I50000J0D01*
G01*
X134300000Y-129600000D01*
G75*
G02*
X134350000Y-129650000I0J-50000D01*
G01*
X134350000Y-130925000D01*
G75*
G02*
X134300000Y-130975000I-50000J0D01*
G01*
G37*
G36*
G01*
X134800000Y-130975000D02*
X134700000Y-130975000D01*
G75*
G02*
X134650000Y-130925000I0J50000D01*
G01*
X134650000Y-129650000D01*
G75*
G02*
X134700000Y-129600000I50000J0D01*
G01*
X134800000Y-129600000D01*
G75*
G02*
X134850000Y-129650000I0J-50000D01*
G01*
X134850000Y-130925000D01*
G75*
G02*
X134800000Y-130975000I-50000J0D01*
G01*
G37*
G36*
G01*
X135300000Y-130975000D02*
X135200000Y-130975000D01*
G75*
G02*
X135150000Y-130925000I0J50000D01*
G01*
X135150000Y-129650000D01*
G75*
G02*
X135200000Y-129600000I50000J0D01*
G01*
X135300000Y-129600000D01*
G75*
G02*
X135350000Y-129650000I0J-50000D01*
G01*
X135350000Y-130925000D01*
G75*
G02*
X135300000Y-130975000I-50000J0D01*
G01*
G37*
G36*
G01*
X135800000Y-130975000D02*
X135700000Y-130975000D01*
G75*
G02*
X135650000Y-130925000I0J50000D01*
G01*
X135650000Y-129650000D01*
G75*
G02*
X135700000Y-129600000I50000J0D01*
G01*
X135800000Y-129600000D01*
G75*
G02*
X135850000Y-129650000I0J-50000D01*
G01*
X135850000Y-130925000D01*
G75*
G02*
X135800000Y-130975000I-50000J0D01*
G01*
G37*
G36*
G01*
X136300000Y-130975000D02*
X136200000Y-130975000D01*
G75*
G02*
X136150000Y-130925000I0J50000D01*
G01*
X136150000Y-129650000D01*
G75*
G02*
X136200000Y-129600000I50000J0D01*
G01*
X136300000Y-129600000D01*
G75*
G02*
X136350000Y-129650000I0J-50000D01*
G01*
X136350000Y-130925000D01*
G75*
G02*
X136300000Y-130975000I-50000J0D01*
G01*
G37*
G36*
G01*
X136800000Y-130975000D02*
X136700000Y-130975000D01*
G75*
G02*
X136650000Y-130925000I0J50000D01*
G01*
X136650000Y-129650000D01*
G75*
G02*
X136700000Y-129600000I50000J0D01*
G01*
X136800000Y-129600000D01*
G75*
G02*
X136850000Y-129650000I0J-50000D01*
G01*
X136850000Y-130925000D01*
G75*
G02*
X136800000Y-130975000I-50000J0D01*
G01*
G37*
G36*
G01*
X137300000Y-130975000D02*
X137200000Y-130975000D01*
G75*
G02*
X137150000Y-130925000I0J50000D01*
G01*
X137150000Y-129650000D01*
G75*
G02*
X137200000Y-129600000I50000J0D01*
G01*
X137300000Y-129600000D01*
G75*
G02*
X137350000Y-129650000I0J-50000D01*
G01*
X137350000Y-130925000D01*
G75*
G02*
X137300000Y-130975000I-50000J0D01*
G01*
G37*
G36*
G01*
X137800000Y-130975000D02*
X137700000Y-130975000D01*
G75*
G02*
X137650000Y-130925000I0J50000D01*
G01*
X137650000Y-129650000D01*
G75*
G02*
X137700000Y-129600000I50000J0D01*
G01*
X137800000Y-129600000D01*
G75*
G02*
X137850000Y-129650000I0J-50000D01*
G01*
X137850000Y-130925000D01*
G75*
G02*
X137800000Y-130975000I-50000J0D01*
G01*
G37*
G36*
G01*
X138300000Y-130975000D02*
X138200000Y-130975000D01*
G75*
G02*
X138150000Y-130925000I0J50000D01*
G01*
X138150000Y-129650000D01*
G75*
G02*
X138200000Y-129600000I50000J0D01*
G01*
X138300000Y-129600000D01*
G75*
G02*
X138350000Y-129650000I0J-50000D01*
G01*
X138350000Y-130925000D01*
G75*
G02*
X138300000Y-130975000I-50000J0D01*
G01*
G37*
G36*
G01*
X138800000Y-130975000D02*
X138700000Y-130975000D01*
G75*
G02*
X138650000Y-130925000I0J50000D01*
G01*
X138650000Y-129650000D01*
G75*
G02*
X138700000Y-129600000I50000J0D01*
G01*
X138800000Y-129600000D01*
G75*
G02*
X138850000Y-129650000I0J-50000D01*
G01*
X138850000Y-130925000D01*
G75*
G02*
X138800000Y-130975000I-50000J0D01*
G01*
G37*
G36*
G01*
X139300000Y-130975000D02*
X139200000Y-130975000D01*
G75*
G02*
X139150000Y-130925000I0J50000D01*
G01*
X139150000Y-129650000D01*
G75*
G02*
X139200000Y-129600000I50000J0D01*
G01*
X139300000Y-129600000D01*
G75*
G02*
X139350000Y-129650000I0J-50000D01*
G01*
X139350000Y-130925000D01*
G75*
G02*
X139300000Y-130975000I-50000J0D01*
G01*
G37*
G36*
G01*
X139800000Y-130975000D02*
X139700000Y-130975000D01*
G75*
G02*
X139650000Y-130925000I0J50000D01*
G01*
X139650000Y-129650000D01*
G75*
G02*
X139700000Y-129600000I50000J0D01*
G01*
X139800000Y-129600000D01*
G75*
G02*
X139850000Y-129650000I0J-50000D01*
G01*
X139850000Y-130925000D01*
G75*
G02*
X139800000Y-130975000I-50000J0D01*
G01*
G37*
G36*
G01*
X140300000Y-130975000D02*
X140200000Y-130975000D01*
G75*
G02*
X140150000Y-130925000I0J50000D01*
G01*
X140150000Y-129650000D01*
G75*
G02*
X140200000Y-129600000I50000J0D01*
G01*
X140300000Y-129600000D01*
G75*
G02*
X140350000Y-129650000I0J-50000D01*
G01*
X140350000Y-130925000D01*
G75*
G02*
X140300000Y-130975000I-50000J0D01*
G01*
G37*
G36*
G01*
X140800000Y-130975000D02*
X140700000Y-130975000D01*
G75*
G02*
X140650000Y-130925000I0J50000D01*
G01*
X140650000Y-129650000D01*
G75*
G02*
X140700000Y-129600000I50000J0D01*
G01*
X140800000Y-129600000D01*
G75*
G02*
X140850000Y-129650000I0J-50000D01*
G01*
X140850000Y-130925000D01*
G75*
G02*
X140800000Y-130975000I-50000J0D01*
G01*
G37*
G36*
G01*
X141300000Y-130975000D02*
X141200000Y-130975000D01*
G75*
G02*
X141150000Y-130925000I0J50000D01*
G01*
X141150000Y-129650000D01*
G75*
G02*
X141200000Y-129600000I50000J0D01*
G01*
X141300000Y-129600000D01*
G75*
G02*
X141350000Y-129650000I0J-50000D01*
G01*
X141350000Y-130925000D01*
G75*
G02*
X141300000Y-130975000I-50000J0D01*
G01*
G37*
G36*
G01*
X141800000Y-130975000D02*
X141700000Y-130975000D01*
G75*
G02*
X141650000Y-130925000I0J50000D01*
G01*
X141650000Y-129650000D01*
G75*
G02*
X141700000Y-129600000I50000J0D01*
G01*
X141800000Y-129600000D01*
G75*
G02*
X141850000Y-129650000I0J-50000D01*
G01*
X141850000Y-130925000D01*
G75*
G02*
X141800000Y-130975000I-50000J0D01*
G01*
G37*
G36*
G01*
X141800000Y-138400000D02*
X141700000Y-138400000D01*
G75*
G02*
X141650000Y-138350000I0J50000D01*
G01*
X141650000Y-137075000D01*
G75*
G02*
X141700000Y-137025000I50000J0D01*
G01*
X141800000Y-137025000D01*
G75*
G02*
X141850000Y-137075000I0J-50000D01*
G01*
X141850000Y-138350000D01*
G75*
G02*
X141800000Y-138400000I-50000J0D01*
G01*
G37*
G36*
G01*
X141300000Y-138400000D02*
X141200000Y-138400000D01*
G75*
G02*
X141150000Y-138350000I0J50000D01*
G01*
X141150000Y-137075000D01*
G75*
G02*
X141200000Y-137025000I50000J0D01*
G01*
X141300000Y-137025000D01*
G75*
G02*
X141350000Y-137075000I0J-50000D01*
G01*
X141350000Y-138350000D01*
G75*
G02*
X141300000Y-138400000I-50000J0D01*
G01*
G37*
G36*
G01*
X140800000Y-138400000D02*
X140700000Y-138400000D01*
G75*
G02*
X140650000Y-138350000I0J50000D01*
G01*
X140650000Y-137075000D01*
G75*
G02*
X140700000Y-137025000I50000J0D01*
G01*
X140800000Y-137025000D01*
G75*
G02*
X140850000Y-137075000I0J-50000D01*
G01*
X140850000Y-138350000D01*
G75*
G02*
X140800000Y-138400000I-50000J0D01*
G01*
G37*
G36*
G01*
X140300000Y-138400000D02*
X140200000Y-138400000D01*
G75*
G02*
X140150000Y-138350000I0J50000D01*
G01*
X140150000Y-137075000D01*
G75*
G02*
X140200000Y-137025000I50000J0D01*
G01*
X140300000Y-137025000D01*
G75*
G02*
X140350000Y-137075000I0J-50000D01*
G01*
X140350000Y-138350000D01*
G75*
G02*
X140300000Y-138400000I-50000J0D01*
G01*
G37*
G36*
G01*
X139800000Y-138400000D02*
X139700000Y-138400000D01*
G75*
G02*
X139650000Y-138350000I0J50000D01*
G01*
X139650000Y-137075000D01*
G75*
G02*
X139700000Y-137025000I50000J0D01*
G01*
X139800000Y-137025000D01*
G75*
G02*
X139850000Y-137075000I0J-50000D01*
G01*
X139850000Y-138350000D01*
G75*
G02*
X139800000Y-138400000I-50000J0D01*
G01*
G37*
G36*
G01*
X139300000Y-138400000D02*
X139200000Y-138400000D01*
G75*
G02*
X139150000Y-138350000I0J50000D01*
G01*
X139150000Y-137075000D01*
G75*
G02*
X139200000Y-137025000I50000J0D01*
G01*
X139300000Y-137025000D01*
G75*
G02*
X139350000Y-137075000I0J-50000D01*
G01*
X139350000Y-138350000D01*
G75*
G02*
X139300000Y-138400000I-50000J0D01*
G01*
G37*
G36*
G01*
X138800000Y-138400000D02*
X138700000Y-138400000D01*
G75*
G02*
X138650000Y-138350000I0J50000D01*
G01*
X138650000Y-137075000D01*
G75*
G02*
X138700000Y-137025000I50000J0D01*
G01*
X138800000Y-137025000D01*
G75*
G02*
X138850000Y-137075000I0J-50000D01*
G01*
X138850000Y-138350000D01*
G75*
G02*
X138800000Y-138400000I-50000J0D01*
G01*
G37*
G36*
G01*
X138300000Y-138400000D02*
X138200000Y-138400000D01*
G75*
G02*
X138150000Y-138350000I0J50000D01*
G01*
X138150000Y-137075000D01*
G75*
G02*
X138200000Y-137025000I50000J0D01*
G01*
X138300000Y-137025000D01*
G75*
G02*
X138350000Y-137075000I0J-50000D01*
G01*
X138350000Y-138350000D01*
G75*
G02*
X138300000Y-138400000I-50000J0D01*
G01*
G37*
G36*
G01*
X137800000Y-138400000D02*
X137700000Y-138400000D01*
G75*
G02*
X137650000Y-138350000I0J50000D01*
G01*
X137650000Y-137075000D01*
G75*
G02*
X137700000Y-137025000I50000J0D01*
G01*
X137800000Y-137025000D01*
G75*
G02*
X137850000Y-137075000I0J-50000D01*
G01*
X137850000Y-138350000D01*
G75*
G02*
X137800000Y-138400000I-50000J0D01*
G01*
G37*
G36*
G01*
X137300000Y-138400000D02*
X137200000Y-138400000D01*
G75*
G02*
X137150000Y-138350000I0J50000D01*
G01*
X137150000Y-137075000D01*
G75*
G02*
X137200000Y-137025000I50000J0D01*
G01*
X137300000Y-137025000D01*
G75*
G02*
X137350000Y-137075000I0J-50000D01*
G01*
X137350000Y-138350000D01*
G75*
G02*
X137300000Y-138400000I-50000J0D01*
G01*
G37*
G36*
G01*
X136800000Y-138400000D02*
X136700000Y-138400000D01*
G75*
G02*
X136650000Y-138350000I0J50000D01*
G01*
X136650000Y-137075000D01*
G75*
G02*
X136700000Y-137025000I50000J0D01*
G01*
X136800000Y-137025000D01*
G75*
G02*
X136850000Y-137075000I0J-50000D01*
G01*
X136850000Y-138350000D01*
G75*
G02*
X136800000Y-138400000I-50000J0D01*
G01*
G37*
G36*
G01*
X136300000Y-138400000D02*
X136200000Y-138400000D01*
G75*
G02*
X136150000Y-138350000I0J50000D01*
G01*
X136150000Y-137075000D01*
G75*
G02*
X136200000Y-137025000I50000J0D01*
G01*
X136300000Y-137025000D01*
G75*
G02*
X136350000Y-137075000I0J-50000D01*
G01*
X136350000Y-138350000D01*
G75*
G02*
X136300000Y-138400000I-50000J0D01*
G01*
G37*
G36*
G01*
X135800000Y-138400000D02*
X135700000Y-138400000D01*
G75*
G02*
X135650000Y-138350000I0J50000D01*
G01*
X135650000Y-137075000D01*
G75*
G02*
X135700000Y-137025000I50000J0D01*
G01*
X135800000Y-137025000D01*
G75*
G02*
X135850000Y-137075000I0J-50000D01*
G01*
X135850000Y-138350000D01*
G75*
G02*
X135800000Y-138400000I-50000J0D01*
G01*
G37*
G36*
G01*
X135300000Y-138400000D02*
X135200000Y-138400000D01*
G75*
G02*
X135150000Y-138350000I0J50000D01*
G01*
X135150000Y-137075000D01*
G75*
G02*
X135200000Y-137025000I50000J0D01*
G01*
X135300000Y-137025000D01*
G75*
G02*
X135350000Y-137075000I0J-50000D01*
G01*
X135350000Y-138350000D01*
G75*
G02*
X135300000Y-138400000I-50000J0D01*
G01*
G37*
G36*
G01*
X134800000Y-138400000D02*
X134700000Y-138400000D01*
G75*
G02*
X134650000Y-138350000I0J50000D01*
G01*
X134650000Y-137075000D01*
G75*
G02*
X134700000Y-137025000I50000J0D01*
G01*
X134800000Y-137025000D01*
G75*
G02*
X134850000Y-137075000I0J-50000D01*
G01*
X134850000Y-138350000D01*
G75*
G02*
X134800000Y-138400000I-50000J0D01*
G01*
G37*
G36*
G01*
X134300000Y-138400000D02*
X134200000Y-138400000D01*
G75*
G02*
X134150000Y-138350000I0J50000D01*
G01*
X134150000Y-137075000D01*
G75*
G02*
X134200000Y-137025000I50000J0D01*
G01*
X134300000Y-137025000D01*
G75*
G02*
X134350000Y-137075000I0J-50000D01*
G01*
X134350000Y-138350000D01*
G75*
G02*
X134300000Y-138400000I-50000J0D01*
G01*
G37*
G36*
G01*
X133800000Y-138400000D02*
X133700000Y-138400000D01*
G75*
G02*
X133650000Y-138350000I0J50000D01*
G01*
X133650000Y-137075000D01*
G75*
G02*
X133700000Y-137025000I50000J0D01*
G01*
X133800000Y-137025000D01*
G75*
G02*
X133850000Y-137075000I0J-50000D01*
G01*
X133850000Y-138350000D01*
G75*
G02*
X133800000Y-138400000I-50000J0D01*
G01*
G37*
G36*
G01*
X133300000Y-138400000D02*
X133200000Y-138400000D01*
G75*
G02*
X133150000Y-138350000I0J50000D01*
G01*
X133150000Y-137075000D01*
G75*
G02*
X133200000Y-137025000I50000J0D01*
G01*
X133300000Y-137025000D01*
G75*
G02*
X133350000Y-137075000I0J-50000D01*
G01*
X133350000Y-138350000D01*
G75*
G02*
X133300000Y-138400000I-50000J0D01*
G01*
G37*
G36*
G01*
X132800000Y-138400000D02*
X132700000Y-138400000D01*
G75*
G02*
X132650000Y-138350000I0J50000D01*
G01*
X132650000Y-137075000D01*
G75*
G02*
X132700000Y-137025000I50000J0D01*
G01*
X132800000Y-137025000D01*
G75*
G02*
X132850000Y-137075000I0J-50000D01*
G01*
X132850000Y-138350000D01*
G75*
G02*
X132800000Y-138400000I-50000J0D01*
G01*
G37*
G36*
G01*
X132300000Y-138400000D02*
X132200000Y-138400000D01*
G75*
G02*
X132150000Y-138350000I0J50000D01*
G01*
X132150000Y-137075000D01*
G75*
G02*
X132200000Y-137025000I50000J0D01*
G01*
X132300000Y-137025000D01*
G75*
G02*
X132350000Y-137075000I0J-50000D01*
G01*
X132350000Y-138350000D01*
G75*
G02*
X132300000Y-138400000I-50000J0D01*
G01*
G37*
G36*
G01*
X131800000Y-138400000D02*
X131700000Y-138400000D01*
G75*
G02*
X131650000Y-138350000I0J50000D01*
G01*
X131650000Y-137075000D01*
G75*
G02*
X131700000Y-137025000I50000J0D01*
G01*
X131800000Y-137025000D01*
G75*
G02*
X131850000Y-137075000I0J-50000D01*
G01*
X131850000Y-138350000D01*
G75*
G02*
X131800000Y-138400000I-50000J0D01*
G01*
G37*
G36*
G01*
X131300000Y-138400000D02*
X131200000Y-138400000D01*
G75*
G02*
X131150000Y-138350000I0J50000D01*
G01*
X131150000Y-137075000D01*
G75*
G02*
X131200000Y-137025000I50000J0D01*
G01*
X131300000Y-137025000D01*
G75*
G02*
X131350000Y-137075000I0J-50000D01*
G01*
X131350000Y-138350000D01*
G75*
G02*
X131300000Y-138400000I-50000J0D01*
G01*
G37*
G36*
G01*
X130800000Y-138400000D02*
X130700000Y-138400000D01*
G75*
G02*
X130650000Y-138350000I0J50000D01*
G01*
X130650000Y-137075000D01*
G75*
G02*
X130700000Y-137025000I50000J0D01*
G01*
X130800000Y-137025000D01*
G75*
G02*
X130850000Y-137075000I0J-50000D01*
G01*
X130850000Y-138350000D01*
G75*
G02*
X130800000Y-138400000I-50000J0D01*
G01*
G37*
G36*
G01*
X130300000Y-138400000D02*
X130200000Y-138400000D01*
G75*
G02*
X130150000Y-138350000I0J50000D01*
G01*
X130150000Y-137075000D01*
G75*
G02*
X130200000Y-137025000I50000J0D01*
G01*
X130300000Y-137025000D01*
G75*
G02*
X130350000Y-137075000I0J-50000D01*
G01*
X130350000Y-138350000D01*
G75*
G02*
X130300000Y-138400000I-50000J0D01*
G01*
G37*
%TD*%
%TO.C,U202*%
G36*
G01*
X144300000Y-130975000D02*
X144200000Y-130975000D01*
G75*
G02*
X144150000Y-130925000I0J50000D01*
G01*
X144150000Y-129650000D01*
G75*
G02*
X144200000Y-129600000I50000J0D01*
G01*
X144300000Y-129600000D01*
G75*
G02*
X144350000Y-129650000I0J-50000D01*
G01*
X144350000Y-130925000D01*
G75*
G02*
X144300000Y-130975000I-50000J0D01*
G01*
G37*
G36*
G01*
X144800000Y-130975000D02*
X144700000Y-130975000D01*
G75*
G02*
X144650000Y-130925000I0J50000D01*
G01*
X144650000Y-129650000D01*
G75*
G02*
X144700000Y-129600000I50000J0D01*
G01*
X144800000Y-129600000D01*
G75*
G02*
X144850000Y-129650000I0J-50000D01*
G01*
X144850000Y-130925000D01*
G75*
G02*
X144800000Y-130975000I-50000J0D01*
G01*
G37*
G36*
G01*
X145300000Y-130975000D02*
X145200000Y-130975000D01*
G75*
G02*
X145150000Y-130925000I0J50000D01*
G01*
X145150000Y-129650000D01*
G75*
G02*
X145200000Y-129600000I50000J0D01*
G01*
X145300000Y-129600000D01*
G75*
G02*
X145350000Y-129650000I0J-50000D01*
G01*
X145350000Y-130925000D01*
G75*
G02*
X145300000Y-130975000I-50000J0D01*
G01*
G37*
G36*
G01*
X145800000Y-130975000D02*
X145700000Y-130975000D01*
G75*
G02*
X145650000Y-130925000I0J50000D01*
G01*
X145650000Y-129650000D01*
G75*
G02*
X145700000Y-129600000I50000J0D01*
G01*
X145800000Y-129600000D01*
G75*
G02*
X145850000Y-129650000I0J-50000D01*
G01*
X145850000Y-130925000D01*
G75*
G02*
X145800000Y-130975000I-50000J0D01*
G01*
G37*
G36*
G01*
X146300000Y-130975000D02*
X146200000Y-130975000D01*
G75*
G02*
X146150000Y-130925000I0J50000D01*
G01*
X146150000Y-129650000D01*
G75*
G02*
X146200000Y-129600000I50000J0D01*
G01*
X146300000Y-129600000D01*
G75*
G02*
X146350000Y-129650000I0J-50000D01*
G01*
X146350000Y-130925000D01*
G75*
G02*
X146300000Y-130975000I-50000J0D01*
G01*
G37*
G36*
G01*
X146800000Y-130975000D02*
X146700000Y-130975000D01*
G75*
G02*
X146650000Y-130925000I0J50000D01*
G01*
X146650000Y-129650000D01*
G75*
G02*
X146700000Y-129600000I50000J0D01*
G01*
X146800000Y-129600000D01*
G75*
G02*
X146850000Y-129650000I0J-50000D01*
G01*
X146850000Y-130925000D01*
G75*
G02*
X146800000Y-130975000I-50000J0D01*
G01*
G37*
G36*
G01*
X147300000Y-130975000D02*
X147200000Y-130975000D01*
G75*
G02*
X147150000Y-130925000I0J50000D01*
G01*
X147150000Y-129650000D01*
G75*
G02*
X147200000Y-129600000I50000J0D01*
G01*
X147300000Y-129600000D01*
G75*
G02*
X147350000Y-129650000I0J-50000D01*
G01*
X147350000Y-130925000D01*
G75*
G02*
X147300000Y-130975000I-50000J0D01*
G01*
G37*
G36*
G01*
X147800000Y-130975000D02*
X147700000Y-130975000D01*
G75*
G02*
X147650000Y-130925000I0J50000D01*
G01*
X147650000Y-129650000D01*
G75*
G02*
X147700000Y-129600000I50000J0D01*
G01*
X147800000Y-129600000D01*
G75*
G02*
X147850000Y-129650000I0J-50000D01*
G01*
X147850000Y-130925000D01*
G75*
G02*
X147800000Y-130975000I-50000J0D01*
G01*
G37*
G36*
G01*
X148300000Y-130975000D02*
X148200000Y-130975000D01*
G75*
G02*
X148150000Y-130925000I0J50000D01*
G01*
X148150000Y-129650000D01*
G75*
G02*
X148200000Y-129600000I50000J0D01*
G01*
X148300000Y-129600000D01*
G75*
G02*
X148350000Y-129650000I0J-50000D01*
G01*
X148350000Y-130925000D01*
G75*
G02*
X148300000Y-130975000I-50000J0D01*
G01*
G37*
G36*
G01*
X148800000Y-130975000D02*
X148700000Y-130975000D01*
G75*
G02*
X148650000Y-130925000I0J50000D01*
G01*
X148650000Y-129650000D01*
G75*
G02*
X148700000Y-129600000I50000J0D01*
G01*
X148800000Y-129600000D01*
G75*
G02*
X148850000Y-129650000I0J-50000D01*
G01*
X148850000Y-130925000D01*
G75*
G02*
X148800000Y-130975000I-50000J0D01*
G01*
G37*
G36*
G01*
X149300000Y-130975000D02*
X149200000Y-130975000D01*
G75*
G02*
X149150000Y-130925000I0J50000D01*
G01*
X149150000Y-129650000D01*
G75*
G02*
X149200000Y-129600000I50000J0D01*
G01*
X149300000Y-129600000D01*
G75*
G02*
X149350000Y-129650000I0J-50000D01*
G01*
X149350000Y-130925000D01*
G75*
G02*
X149300000Y-130975000I-50000J0D01*
G01*
G37*
G36*
G01*
X149800000Y-130975000D02*
X149700000Y-130975000D01*
G75*
G02*
X149650000Y-130925000I0J50000D01*
G01*
X149650000Y-129650000D01*
G75*
G02*
X149700000Y-129600000I50000J0D01*
G01*
X149800000Y-129600000D01*
G75*
G02*
X149850000Y-129650000I0J-50000D01*
G01*
X149850000Y-130925000D01*
G75*
G02*
X149800000Y-130975000I-50000J0D01*
G01*
G37*
G36*
G01*
X150300000Y-130975000D02*
X150200000Y-130975000D01*
G75*
G02*
X150150000Y-130925000I0J50000D01*
G01*
X150150000Y-129650000D01*
G75*
G02*
X150200000Y-129600000I50000J0D01*
G01*
X150300000Y-129600000D01*
G75*
G02*
X150350000Y-129650000I0J-50000D01*
G01*
X150350000Y-130925000D01*
G75*
G02*
X150300000Y-130975000I-50000J0D01*
G01*
G37*
G36*
G01*
X150800000Y-130975000D02*
X150700000Y-130975000D01*
G75*
G02*
X150650000Y-130925000I0J50000D01*
G01*
X150650000Y-129650000D01*
G75*
G02*
X150700000Y-129600000I50000J0D01*
G01*
X150800000Y-129600000D01*
G75*
G02*
X150850000Y-129650000I0J-50000D01*
G01*
X150850000Y-130925000D01*
G75*
G02*
X150800000Y-130975000I-50000J0D01*
G01*
G37*
G36*
G01*
X151300000Y-130975000D02*
X151200000Y-130975000D01*
G75*
G02*
X151150000Y-130925000I0J50000D01*
G01*
X151150000Y-129650000D01*
G75*
G02*
X151200000Y-129600000I50000J0D01*
G01*
X151300000Y-129600000D01*
G75*
G02*
X151350000Y-129650000I0J-50000D01*
G01*
X151350000Y-130925000D01*
G75*
G02*
X151300000Y-130975000I-50000J0D01*
G01*
G37*
G36*
G01*
X151800000Y-130975000D02*
X151700000Y-130975000D01*
G75*
G02*
X151650000Y-130925000I0J50000D01*
G01*
X151650000Y-129650000D01*
G75*
G02*
X151700000Y-129600000I50000J0D01*
G01*
X151800000Y-129600000D01*
G75*
G02*
X151850000Y-129650000I0J-50000D01*
G01*
X151850000Y-130925000D01*
G75*
G02*
X151800000Y-130975000I-50000J0D01*
G01*
G37*
G36*
G01*
X152300000Y-130975000D02*
X152200000Y-130975000D01*
G75*
G02*
X152150000Y-130925000I0J50000D01*
G01*
X152150000Y-129650000D01*
G75*
G02*
X152200000Y-129600000I50000J0D01*
G01*
X152300000Y-129600000D01*
G75*
G02*
X152350000Y-129650000I0J-50000D01*
G01*
X152350000Y-130925000D01*
G75*
G02*
X152300000Y-130975000I-50000J0D01*
G01*
G37*
G36*
G01*
X152800000Y-130975000D02*
X152700000Y-130975000D01*
G75*
G02*
X152650000Y-130925000I0J50000D01*
G01*
X152650000Y-129650000D01*
G75*
G02*
X152700000Y-129600000I50000J0D01*
G01*
X152800000Y-129600000D01*
G75*
G02*
X152850000Y-129650000I0J-50000D01*
G01*
X152850000Y-130925000D01*
G75*
G02*
X152800000Y-130975000I-50000J0D01*
G01*
G37*
G36*
G01*
X153300000Y-130975000D02*
X153200000Y-130975000D01*
G75*
G02*
X153150000Y-130925000I0J50000D01*
G01*
X153150000Y-129650000D01*
G75*
G02*
X153200000Y-129600000I50000J0D01*
G01*
X153300000Y-129600000D01*
G75*
G02*
X153350000Y-129650000I0J-50000D01*
G01*
X153350000Y-130925000D01*
G75*
G02*
X153300000Y-130975000I-50000J0D01*
G01*
G37*
G36*
G01*
X153800000Y-130975000D02*
X153700000Y-130975000D01*
G75*
G02*
X153650000Y-130925000I0J50000D01*
G01*
X153650000Y-129650000D01*
G75*
G02*
X153700000Y-129600000I50000J0D01*
G01*
X153800000Y-129600000D01*
G75*
G02*
X153850000Y-129650000I0J-50000D01*
G01*
X153850000Y-130925000D01*
G75*
G02*
X153800000Y-130975000I-50000J0D01*
G01*
G37*
G36*
G01*
X154300000Y-130975000D02*
X154200000Y-130975000D01*
G75*
G02*
X154150000Y-130925000I0J50000D01*
G01*
X154150000Y-129650000D01*
G75*
G02*
X154200000Y-129600000I50000J0D01*
G01*
X154300000Y-129600000D01*
G75*
G02*
X154350000Y-129650000I0J-50000D01*
G01*
X154350000Y-130925000D01*
G75*
G02*
X154300000Y-130975000I-50000J0D01*
G01*
G37*
G36*
G01*
X154800000Y-130975000D02*
X154700000Y-130975000D01*
G75*
G02*
X154650000Y-130925000I0J50000D01*
G01*
X154650000Y-129650000D01*
G75*
G02*
X154700000Y-129600000I50000J0D01*
G01*
X154800000Y-129600000D01*
G75*
G02*
X154850000Y-129650000I0J-50000D01*
G01*
X154850000Y-130925000D01*
G75*
G02*
X154800000Y-130975000I-50000J0D01*
G01*
G37*
G36*
G01*
X155300000Y-130975000D02*
X155200000Y-130975000D01*
G75*
G02*
X155150000Y-130925000I0J50000D01*
G01*
X155150000Y-129650000D01*
G75*
G02*
X155200000Y-129600000I50000J0D01*
G01*
X155300000Y-129600000D01*
G75*
G02*
X155350000Y-129650000I0J-50000D01*
G01*
X155350000Y-130925000D01*
G75*
G02*
X155300000Y-130975000I-50000J0D01*
G01*
G37*
G36*
G01*
X155800000Y-130975000D02*
X155700000Y-130975000D01*
G75*
G02*
X155650000Y-130925000I0J50000D01*
G01*
X155650000Y-129650000D01*
G75*
G02*
X155700000Y-129600000I50000J0D01*
G01*
X155800000Y-129600000D01*
G75*
G02*
X155850000Y-129650000I0J-50000D01*
G01*
X155850000Y-130925000D01*
G75*
G02*
X155800000Y-130975000I-50000J0D01*
G01*
G37*
G36*
G01*
X155800000Y-138400000D02*
X155700000Y-138400000D01*
G75*
G02*
X155650000Y-138350000I0J50000D01*
G01*
X155650000Y-137075000D01*
G75*
G02*
X155700000Y-137025000I50000J0D01*
G01*
X155800000Y-137025000D01*
G75*
G02*
X155850000Y-137075000I0J-50000D01*
G01*
X155850000Y-138350000D01*
G75*
G02*
X155800000Y-138400000I-50000J0D01*
G01*
G37*
G36*
G01*
X155300000Y-138400000D02*
X155200000Y-138400000D01*
G75*
G02*
X155150000Y-138350000I0J50000D01*
G01*
X155150000Y-137075000D01*
G75*
G02*
X155200000Y-137025000I50000J0D01*
G01*
X155300000Y-137025000D01*
G75*
G02*
X155350000Y-137075000I0J-50000D01*
G01*
X155350000Y-138350000D01*
G75*
G02*
X155300000Y-138400000I-50000J0D01*
G01*
G37*
G36*
G01*
X154800000Y-138400000D02*
X154700000Y-138400000D01*
G75*
G02*
X154650000Y-138350000I0J50000D01*
G01*
X154650000Y-137075000D01*
G75*
G02*
X154700000Y-137025000I50000J0D01*
G01*
X154800000Y-137025000D01*
G75*
G02*
X154850000Y-137075000I0J-50000D01*
G01*
X154850000Y-138350000D01*
G75*
G02*
X154800000Y-138400000I-50000J0D01*
G01*
G37*
G36*
G01*
X154300000Y-138400000D02*
X154200000Y-138400000D01*
G75*
G02*
X154150000Y-138350000I0J50000D01*
G01*
X154150000Y-137075000D01*
G75*
G02*
X154200000Y-137025000I50000J0D01*
G01*
X154300000Y-137025000D01*
G75*
G02*
X154350000Y-137075000I0J-50000D01*
G01*
X154350000Y-138350000D01*
G75*
G02*
X154300000Y-138400000I-50000J0D01*
G01*
G37*
G36*
G01*
X153800000Y-138400000D02*
X153700000Y-138400000D01*
G75*
G02*
X153650000Y-138350000I0J50000D01*
G01*
X153650000Y-137075000D01*
G75*
G02*
X153700000Y-137025000I50000J0D01*
G01*
X153800000Y-137025000D01*
G75*
G02*
X153850000Y-137075000I0J-50000D01*
G01*
X153850000Y-138350000D01*
G75*
G02*
X153800000Y-138400000I-50000J0D01*
G01*
G37*
G36*
G01*
X153300000Y-138400000D02*
X153200000Y-138400000D01*
G75*
G02*
X153150000Y-138350000I0J50000D01*
G01*
X153150000Y-137075000D01*
G75*
G02*
X153200000Y-137025000I50000J0D01*
G01*
X153300000Y-137025000D01*
G75*
G02*
X153350000Y-137075000I0J-50000D01*
G01*
X153350000Y-138350000D01*
G75*
G02*
X153300000Y-138400000I-50000J0D01*
G01*
G37*
G36*
G01*
X152800000Y-138400000D02*
X152700000Y-138400000D01*
G75*
G02*
X152650000Y-138350000I0J50000D01*
G01*
X152650000Y-137075000D01*
G75*
G02*
X152700000Y-137025000I50000J0D01*
G01*
X152800000Y-137025000D01*
G75*
G02*
X152850000Y-137075000I0J-50000D01*
G01*
X152850000Y-138350000D01*
G75*
G02*
X152800000Y-138400000I-50000J0D01*
G01*
G37*
G36*
G01*
X152300000Y-138400000D02*
X152200000Y-138400000D01*
G75*
G02*
X152150000Y-138350000I0J50000D01*
G01*
X152150000Y-137075000D01*
G75*
G02*
X152200000Y-137025000I50000J0D01*
G01*
X152300000Y-137025000D01*
G75*
G02*
X152350000Y-137075000I0J-50000D01*
G01*
X152350000Y-138350000D01*
G75*
G02*
X152300000Y-138400000I-50000J0D01*
G01*
G37*
G36*
G01*
X151800000Y-138400000D02*
X151700000Y-138400000D01*
G75*
G02*
X151650000Y-138350000I0J50000D01*
G01*
X151650000Y-137075000D01*
G75*
G02*
X151700000Y-137025000I50000J0D01*
G01*
X151800000Y-137025000D01*
G75*
G02*
X151850000Y-137075000I0J-50000D01*
G01*
X151850000Y-138350000D01*
G75*
G02*
X151800000Y-138400000I-50000J0D01*
G01*
G37*
G36*
G01*
X151300000Y-138400000D02*
X151200000Y-138400000D01*
G75*
G02*
X151150000Y-138350000I0J50000D01*
G01*
X151150000Y-137075000D01*
G75*
G02*
X151200000Y-137025000I50000J0D01*
G01*
X151300000Y-137025000D01*
G75*
G02*
X151350000Y-137075000I0J-50000D01*
G01*
X151350000Y-138350000D01*
G75*
G02*
X151300000Y-138400000I-50000J0D01*
G01*
G37*
G36*
G01*
X150800000Y-138400000D02*
X150700000Y-138400000D01*
G75*
G02*
X150650000Y-138350000I0J50000D01*
G01*
X150650000Y-137075000D01*
G75*
G02*
X150700000Y-137025000I50000J0D01*
G01*
X150800000Y-137025000D01*
G75*
G02*
X150850000Y-137075000I0J-50000D01*
G01*
X150850000Y-138350000D01*
G75*
G02*
X150800000Y-138400000I-50000J0D01*
G01*
G37*
G36*
G01*
X150300000Y-138400000D02*
X150200000Y-138400000D01*
G75*
G02*
X150150000Y-138350000I0J50000D01*
G01*
X150150000Y-137075000D01*
G75*
G02*
X150200000Y-137025000I50000J0D01*
G01*
X150300000Y-137025000D01*
G75*
G02*
X150350000Y-137075000I0J-50000D01*
G01*
X150350000Y-138350000D01*
G75*
G02*
X150300000Y-138400000I-50000J0D01*
G01*
G37*
G36*
G01*
X149800000Y-138400000D02*
X149700000Y-138400000D01*
G75*
G02*
X149650000Y-138350000I0J50000D01*
G01*
X149650000Y-137075000D01*
G75*
G02*
X149700000Y-137025000I50000J0D01*
G01*
X149800000Y-137025000D01*
G75*
G02*
X149850000Y-137075000I0J-50000D01*
G01*
X149850000Y-138350000D01*
G75*
G02*
X149800000Y-138400000I-50000J0D01*
G01*
G37*
G36*
G01*
X149300000Y-138400000D02*
X149200000Y-138400000D01*
G75*
G02*
X149150000Y-138350000I0J50000D01*
G01*
X149150000Y-137075000D01*
G75*
G02*
X149200000Y-137025000I50000J0D01*
G01*
X149300000Y-137025000D01*
G75*
G02*
X149350000Y-137075000I0J-50000D01*
G01*
X149350000Y-138350000D01*
G75*
G02*
X149300000Y-138400000I-50000J0D01*
G01*
G37*
G36*
G01*
X148800000Y-138400000D02*
X148700000Y-138400000D01*
G75*
G02*
X148650000Y-138350000I0J50000D01*
G01*
X148650000Y-137075000D01*
G75*
G02*
X148700000Y-137025000I50000J0D01*
G01*
X148800000Y-137025000D01*
G75*
G02*
X148850000Y-137075000I0J-50000D01*
G01*
X148850000Y-138350000D01*
G75*
G02*
X148800000Y-138400000I-50000J0D01*
G01*
G37*
G36*
G01*
X148300000Y-138400000D02*
X148200000Y-138400000D01*
G75*
G02*
X148150000Y-138350000I0J50000D01*
G01*
X148150000Y-137075000D01*
G75*
G02*
X148200000Y-137025000I50000J0D01*
G01*
X148300000Y-137025000D01*
G75*
G02*
X148350000Y-137075000I0J-50000D01*
G01*
X148350000Y-138350000D01*
G75*
G02*
X148300000Y-138400000I-50000J0D01*
G01*
G37*
G36*
G01*
X147800000Y-138400000D02*
X147700000Y-138400000D01*
G75*
G02*
X147650000Y-138350000I0J50000D01*
G01*
X147650000Y-137075000D01*
G75*
G02*
X147700000Y-137025000I50000J0D01*
G01*
X147800000Y-137025000D01*
G75*
G02*
X147850000Y-137075000I0J-50000D01*
G01*
X147850000Y-138350000D01*
G75*
G02*
X147800000Y-138400000I-50000J0D01*
G01*
G37*
G36*
G01*
X147300000Y-138400000D02*
X147200000Y-138400000D01*
G75*
G02*
X147150000Y-138350000I0J50000D01*
G01*
X147150000Y-137075000D01*
G75*
G02*
X147200000Y-137025000I50000J0D01*
G01*
X147300000Y-137025000D01*
G75*
G02*
X147350000Y-137075000I0J-50000D01*
G01*
X147350000Y-138350000D01*
G75*
G02*
X147300000Y-138400000I-50000J0D01*
G01*
G37*
G36*
G01*
X146800000Y-138400000D02*
X146700000Y-138400000D01*
G75*
G02*
X146650000Y-138350000I0J50000D01*
G01*
X146650000Y-137075000D01*
G75*
G02*
X146700000Y-137025000I50000J0D01*
G01*
X146800000Y-137025000D01*
G75*
G02*
X146850000Y-137075000I0J-50000D01*
G01*
X146850000Y-138350000D01*
G75*
G02*
X146800000Y-138400000I-50000J0D01*
G01*
G37*
G36*
G01*
X146300000Y-138400000D02*
X146200000Y-138400000D01*
G75*
G02*
X146150000Y-138350000I0J50000D01*
G01*
X146150000Y-137075000D01*
G75*
G02*
X146200000Y-137025000I50000J0D01*
G01*
X146300000Y-137025000D01*
G75*
G02*
X146350000Y-137075000I0J-50000D01*
G01*
X146350000Y-138350000D01*
G75*
G02*
X146300000Y-138400000I-50000J0D01*
G01*
G37*
G36*
G01*
X145800000Y-138400000D02*
X145700000Y-138400000D01*
G75*
G02*
X145650000Y-138350000I0J50000D01*
G01*
X145650000Y-137075000D01*
G75*
G02*
X145700000Y-137025000I50000J0D01*
G01*
X145800000Y-137025000D01*
G75*
G02*
X145850000Y-137075000I0J-50000D01*
G01*
X145850000Y-138350000D01*
G75*
G02*
X145800000Y-138400000I-50000J0D01*
G01*
G37*
G36*
G01*
X145300000Y-138400000D02*
X145200000Y-138400000D01*
G75*
G02*
X145150000Y-138350000I0J50000D01*
G01*
X145150000Y-137075000D01*
G75*
G02*
X145200000Y-137025000I50000J0D01*
G01*
X145300000Y-137025000D01*
G75*
G02*
X145350000Y-137075000I0J-50000D01*
G01*
X145350000Y-138350000D01*
G75*
G02*
X145300000Y-138400000I-50000J0D01*
G01*
G37*
G36*
G01*
X144800000Y-138400000D02*
X144700000Y-138400000D01*
G75*
G02*
X144650000Y-138350000I0J50000D01*
G01*
X144650000Y-137075000D01*
G75*
G02*
X144700000Y-137025000I50000J0D01*
G01*
X144800000Y-137025000D01*
G75*
G02*
X144850000Y-137075000I0J-50000D01*
G01*
X144850000Y-138350000D01*
G75*
G02*
X144800000Y-138400000I-50000J0D01*
G01*
G37*
G36*
G01*
X144300000Y-138400000D02*
X144200000Y-138400000D01*
G75*
G02*
X144150000Y-138350000I0J50000D01*
G01*
X144150000Y-137075000D01*
G75*
G02*
X144200000Y-137025000I50000J0D01*
G01*
X144300000Y-137025000D01*
G75*
G02*
X144350000Y-137075000I0J-50000D01*
G01*
X144350000Y-138350000D01*
G75*
G02*
X144300000Y-138400000I-50000J0D01*
G01*
G37*
%TD*%
D10*
%TO.C,U602*%
X126427500Y-111325000D03*
X126427500Y-110575000D03*
X126427500Y-109825000D03*
X126427500Y-109075000D03*
X126427500Y-108325000D03*
X126427500Y-107575000D03*
X126427500Y-106825000D03*
X126427500Y-106075000D03*
X125677500Y-111325000D03*
X125677500Y-110575000D03*
X125677500Y-109825000D03*
X125677500Y-109075000D03*
X125677500Y-108325000D03*
X125677500Y-107575000D03*
X125677500Y-106825000D03*
X125677500Y-106075000D03*
X124927500Y-111325000D03*
X124927500Y-110575000D03*
X124927500Y-109825000D03*
X124927500Y-109075000D03*
X124927500Y-108325000D03*
X124927500Y-107575000D03*
X124927500Y-106825000D03*
X124927500Y-106075000D03*
X124177500Y-111325000D03*
X124177500Y-110575000D03*
X124177500Y-109825000D03*
X124177500Y-109075000D03*
X124177500Y-108325000D03*
X124177500Y-107575000D03*
X124177500Y-106825000D03*
X124177500Y-106075000D03*
X123427500Y-111325000D03*
X123427500Y-110575000D03*
X123427500Y-109825000D03*
X123427500Y-109075000D03*
X123427500Y-108325000D03*
X123427500Y-107575000D03*
X123427500Y-106825000D03*
X123427500Y-106075000D03*
X122677500Y-111325000D03*
X122677500Y-110575000D03*
X122677500Y-109825000D03*
X122677500Y-109075000D03*
X122677500Y-108325000D03*
X122677500Y-107575000D03*
X122677500Y-106825000D03*
X122677500Y-106075000D03*
%TD*%
%TO.C,U405*%
G36*
G01*
X195990000Y-137543000D02*
X195990000Y-137393000D01*
G75*
G02*
X196065000Y-137318000I75000J0D01*
G01*
X197290000Y-137318000D01*
G75*
G02*
X197365000Y-137393000I0J-75000D01*
G01*
X197365000Y-137543000D01*
G75*
G02*
X197290000Y-137618000I-75000J0D01*
G01*
X196065000Y-137618000D01*
G75*
G02*
X195990000Y-137543000I0J75000D01*
G01*
G37*
G36*
G01*
X195990000Y-138193000D02*
X195990000Y-138043000D01*
G75*
G02*
X196065000Y-137968000I75000J0D01*
G01*
X197290000Y-137968000D01*
G75*
G02*
X197365000Y-138043000I0J-75000D01*
G01*
X197365000Y-138193000D01*
G75*
G02*
X197290000Y-138268000I-75000J0D01*
G01*
X196065000Y-138268000D01*
G75*
G02*
X195990000Y-138193000I0J75000D01*
G01*
G37*
G36*
G01*
X195990000Y-138843000D02*
X195990000Y-138693000D01*
G75*
G02*
X196065000Y-138618000I75000J0D01*
G01*
X197290000Y-138618000D01*
G75*
G02*
X197365000Y-138693000I0J-75000D01*
G01*
X197365000Y-138843000D01*
G75*
G02*
X197290000Y-138918000I-75000J0D01*
G01*
X196065000Y-138918000D01*
G75*
G02*
X195990000Y-138843000I0J75000D01*
G01*
G37*
G36*
G01*
X195990000Y-139493000D02*
X195990000Y-139343000D01*
G75*
G02*
X196065000Y-139268000I75000J0D01*
G01*
X197290000Y-139268000D01*
G75*
G02*
X197365000Y-139343000I0J-75000D01*
G01*
X197365000Y-139493000D01*
G75*
G02*
X197290000Y-139568000I-75000J0D01*
G01*
X196065000Y-139568000D01*
G75*
G02*
X195990000Y-139493000I0J75000D01*
G01*
G37*
G36*
G01*
X190265000Y-139493000D02*
X190265000Y-139343000D01*
G75*
G02*
X190340000Y-139268000I75000J0D01*
G01*
X191565000Y-139268000D01*
G75*
G02*
X191640000Y-139343000I0J-75000D01*
G01*
X191640000Y-139493000D01*
G75*
G02*
X191565000Y-139568000I-75000J0D01*
G01*
X190340000Y-139568000D01*
G75*
G02*
X190265000Y-139493000I0J75000D01*
G01*
G37*
G36*
G01*
X190265000Y-138843000D02*
X190265000Y-138693000D01*
G75*
G02*
X190340000Y-138618000I75000J0D01*
G01*
X191565000Y-138618000D01*
G75*
G02*
X191640000Y-138693000I0J-75000D01*
G01*
X191640000Y-138843000D01*
G75*
G02*
X191565000Y-138918000I-75000J0D01*
G01*
X190340000Y-138918000D01*
G75*
G02*
X190265000Y-138843000I0J75000D01*
G01*
G37*
G36*
G01*
X190265000Y-138193000D02*
X190265000Y-138043000D01*
G75*
G02*
X190340000Y-137968000I75000J0D01*
G01*
X191565000Y-137968000D01*
G75*
G02*
X191640000Y-138043000I0J-75000D01*
G01*
X191640000Y-138193000D01*
G75*
G02*
X191565000Y-138268000I-75000J0D01*
G01*
X190340000Y-138268000D01*
G75*
G02*
X190265000Y-138193000I0J75000D01*
G01*
G37*
G36*
G01*
X190265000Y-137543000D02*
X190265000Y-137393000D01*
G75*
G02*
X190340000Y-137318000I75000J0D01*
G01*
X191565000Y-137318000D01*
G75*
G02*
X191640000Y-137393000I0J-75000D01*
G01*
X191640000Y-137543000D01*
G75*
G02*
X191565000Y-137618000I-75000J0D01*
G01*
X190340000Y-137618000D01*
G75*
G02*
X190265000Y-137543000I0J75000D01*
G01*
G37*
%TD*%
M02*
